<?xml version="1.0" encoding="utf-8"?>
<!-- Generator: Adobe Illustrator 23.0.6, SVG Export Plug-In . SVG Version: 6.00 Build 0)  -->
<svg version="1.1" xmlns="http://www.w3.org/2000/svg" xmlns:xlink="http://www.w3.org/1999/xlink" x="0px" y="0px"
	 viewBox="0 0 512 512" enable-background="new 0 0 512 512" xml:space="preserve">
<g id="Слой_3">
	<circle fill="#FFFFFF" stroke="#FFFFFF" stroke-width="4.8844" stroke-miterlimit="10" cx="222.1" cy="287" r="228.2"/>
	<path fill="#FFFFFF" d="M508.3,243.3H195.6c-8.6,0-15.7-7-15.7-15.7V11.9c0-8.6,7-15.7,15.7-15.7h312.8c8.6,0,15.7,7,15.7,15.7
		v215.7C524,236.3,517,243.3,508.3,243.3z"/>
</g>
<g id="Слой_2">
	<path d="M483.6,225.5H220.3c-8.6,0-15.7-7-15.7-15.7V29.7c0-8.6,7-15.7,15.7-15.7h263.3c8.6,0,15.7,7,15.7,15.7v180.2
		C499.3,218.5,492.2,225.5,483.6,225.5z"/>
	<circle cx="221.8" cy="287" r="210.7"/>
</g>
<g id="Слой_1">
	<g transform="translate(-1)">
		<g id="Shape">
			<path fill="#FFFFFF" d="M478.9,0h-256c-18.9,0-34.1,15.3-34.1,34.1v37C15.3,97.7-60.7,308.5,59.1,439.6c0,0,0.7,0.5,0.9,0.9
				c96.3,99.2,241.6,90.9,325.7,0c0,0,0.5,0,0.7-0.6c49.8-54.1,69.4-129.5,52.2-201h40.2c18.9,0,34.1-15.3,34.1-34.1V34.1
				C513,15.3,497.7,0,478.9,0z M307.4,263.9c0,5.8,0.5,11.7,0.6,17.7h-27.1L307.4,263.9z M427.7,298.7
				c-1.8,45.9-19.2,89.9-49.2,124.7c-20-12.8-41.9-22.2-64.9-28c7.4-31.7,11.3-64.1,11.6-96.7H427.7z M18.1,298.7h102.4
				c0.4,32.6,4.3,65,11.8,96.7c-23,5.7-44.9,15.2-64.9,28C37.3,388.5,20,344.6,18.1,298.7L18.1,298.7z M67.5,156.9
				c20,12.9,42,22.3,65.1,28.1c-7.6,31.7-11.6,64.1-12.1,96.6H18.1C20,235.7,37.4,191.7,67.5,156.9z M188.7,177.5
				c-11.8-1.1-23.5-2.8-35.2-5.1c6.6-25.2,18.6-48.7,35.2-68.9V177.5z M136.9,168.4c-20.3-5-39.8-13.2-57.6-24.1
				c27.1-26.7,61.1-45.4,98.2-53.8C158.2,113,144.3,139.7,136.9,168.4z M136.9,411.8c7.4,28.8,21.4,55.5,40.8,78
				c-37.2-8.4-71.3-27.1-98.5-53.8c17.8-10.9,37.2-19.1,57.5-24.1h0.2V411.8z M154,408c45.7-9.2,92.8-9.2,138.6,0
				c-35.2,115.7-103.9,115.9-139,0H154z M309.4,411.8c20.3,5.1,39.7,13.2,57.5,24.1c-27.2,26.8-61.4,45.5-98.7,53.8
				c19.4-22.5,33.3-49.2,40.8-78L309.4,411.8z M297,391.5c-48.6-10-98.8-10-147.5,0c-7.4-30.4-11.4-61.5-12-92.8h93.9
				c0,4.7,3.8,8.5,8.5,8.5c3.2,0,3.8-0.9,15.4-8.5h52.9c-0.5,31.3-4.4,62.4-11.6,92.8H297z M231.4,281.6h-93.9
				c0.4-31.2,4.2-62.3,11.3-92.8c13.1,2.7,26.3,4.6,39.6,5.8v10.2c0,18.9,15.3,34.1,34.1,34.1c4.7,0,8.5,3.8,8.5,8.5L231.4,281.6z
				 M427.7,281.6H325.3c0-9.7-0.6-19.3-1.3-28.6l20.9-14.1H421C424.8,252.9,427,267.2,427.7,281.6z M495.9,204.8
				c0,9.4-7.6,17.1-17.1,17.1H342.3c-3.8,0,3.7-4.2-93.9,60.8v-35.2c0-14.1-11.5-25.6-25.6-25.6c-9.4,0-17.1-7.6-17.1-17.1V34.1
				c0-9.4,7.6-17.1,17.1-17.1h256c9.4,0,17.1,7.6,17.1,17.1V204.8z"/>
		</g>
	</g>
</g>
</svg>
