<?xml version="1.0" encoding="utf-8"?>
<!-- Generator: Adobe Illustrator 23.0.6, SVG Export Plug-In . SVG Version: 6.00 Build 0)  -->
<svg version="1.1" id="Слой_1" xmlns="http://www.w3.org/2000/svg" xmlns:xlink="http://www.w3.org/1999/xlink" x="0px" y="0px"
	 viewBox="0 0 512 512" style="enable-background:new 0 0 512 512;" xml:space="preserve">
<style type="text/css">
	.st0{fill:#FFFFFF;}
</style>
<circle class="st0" cx="219.5" cy="294.3" r="217.5"/>
<g>
	<path id="Shape" d="M65.6,448.8c29,28.7,65.5,48.7,105.3,57.7c-20.8-24.1-35.7-52.7-43.7-83.6C105.4,428.4,84.7,437.1,65.6,448.8
		L65.6,448.8z"/>
	<path d="M122.7,179.9c-24.7-6.1-48.3-16.3-69.8-30.1c-32,37.3-50.5,84.4-52.5,133.6h109.3C110.2,248.6,114.6,213.8,122.7,179.9z"/>
	<path d="M109.7,301.7H0c2,49.2,20.7,96.3,52.9,133.6c21.4-13.7,44.8-23.8,69.5-30C114.4,371.3,110.2,336.6,109.7,301.7z"/>
	<path d="M182.9,171.9V92.6c-17.8,21.6-30.6,46.7-37.7,73.8C157.6,168.9,170.2,170.8,182.9,171.9z"/>
	<path d="M242.7,309.3c-2.8,1.8-6.4,2-9.3,0.4c-3-1.6-4.8-4.7-4.8-8H128c0.5,33.5,4.6,66.9,12.3,99.5c52.1-10.7,105.9-10.7,158,0
		c7.8-32.6,12-66,12.5-99.5h-56.7L242.7,309.3z"/>
	<path d="M219.4,237.7c-20.2,0-36.6-16.4-36.6-36.6v-10.9c-14.3-1.2-28.4-3.3-42.4-6.2c-7.7,32.6-11.9,65.9-12.4,99.4h100.6v-36.6
		C228.6,241.8,224.5,237.7,219.4,237.7z"/>
	<path d="M281.6,283.4h29.3c0-6.4,0-12.7-0.6-18.9L281.6,283.4z"/>
	<path d="M170.9,78.7c-39.8,9-76.2,29-105.2,57.6c19.1,11.8,39.9,20.5,61.7,25.9C135.2,131.4,150.1,102.8,170.9,78.7z"/>
	<path d="M431.7,237.7h-81.6l-22.6,15.1c0.7,10,1.2,20.2,1.4,30.6h109.9C438.1,268,435.7,252.6,431.7,237.7L431.7,237.7z"/>
	<path d="M288,45.7c-17.7,0-32,14.3-32,32v4.6h64v-4.6C320,60,305.7,45.7,288,45.7z"/>
	<path d="M493.7,0H219.4c-10.1,0-18.3,8.2-18.3,18.3v182.9c0,10.1,8.2,18.3,18.3,18.3c15.1,0,27.4,12.3,27.4,27.4v37.8
		c104.3-69.5,96.6-65.2,100.6-65.2h146.3c10.1,0,18.3-8.2,18.3-18.3V18.3C512,8.2,503.8,0,493.7,0z M338.3,137.1
		c0,5-4.1,9.1-9.1,9.1s-9.1-4.1-9.1-9.1v-36.6h-64v36.6c0,5-4.1,9.1-9.1,9.1s-9.1-4.1-9.1-9.1V77.7c0-27.8,22.5-50.3,50.3-50.3
		s50.3,22.5,50.3,50.3v59.4H338.3z M475.4,109.7h-9.1c0.9,22.1-6.4,43.8-20.3,61.1c6.6,2.1,13.4,3,20.3,2.9c5,0,9.1,4.1,9.1,9.1
		s-4.1,9.1-9.1,9.1c-12.7,0.3-25.2-2.6-36.6-8.3c-11.3,5.7-23.9,8.6-36.6,8.3c-5,0-9.1-4.1-9.1-9.1s4.1-9.1,9.1-9.1
		c6.8,0,13.5-1,19.9-3c-7.9-8.9-13.5-19.6-16.5-31.2c-0.7-2.4-0.4-5,0.8-7.1s3.3-3.8,5.7-4.4c4.8-1.3,9.8,1.6,11.2,6.4
		c2.4,10.3,7.8,19.6,15.5,26.9c1.1-1,2.3-1.8,3.3-2.9c10.5-14,15.8-31.2,15-48.6h-64c-5,0-9.1-4.1-9.1-9.1s4.1-9.1,9.1-9.1h36.6
		V73.1c0-5,4.1-9.1,9.1-9.1s9.1,4.1,9.1,9.1v18.3h36.6c5,0,9.1,4.1,9.1,9.1S480.5,109.7,475.4,109.7L475.4,109.7z"/>
	<path d="M145.2,418.8c37.2,124,111.3,124.2,148.5,0C244.7,409,194.2,409,145.2,418.8z"/>
	<path d="M316.4,405.3c24.6,6.2,48.1,16.3,69.5,30c32.2-37.3,50.9-84.3,52.9-133.6H329.1C328.7,336.6,324.4,371.3,316.4,405.3z"/>
	<path d="M268,506.5c39.8-9,76.3-29,105.3-57.7c-19.1-11.7-39.9-20.4-61.6-25.9C303.7,453.8,288.8,482.4,268,506.5L268,506.5z"/>
</g>
<rect x="215.8" y="21.5" width="275.6" height="177.8"/>
</svg>
