<?xml version="1.0" encoding="utf-8"?>
<!-- Generator: Adobe Illustrator 23.0.6, SVG Export Plug-In . SVG Version: 6.00 Build 0)  -->
<svg version="1.1" id="Слой_1" xmlns="http://www.w3.org/2000/svg" xmlns:xlink="http://www.w3.org/1999/xlink" x="0px" y="0px"
	 viewBox="0 0 210 272.2" enable-background="new 0 0 210 272.2" xml:space="preserve">
<path fill="#1572B6" d="M15.8,70.1C61.6,57.7,107.4,45.3,153.1,33c11.7-3.2,23.6,4.4,26.1,16.6c10.1,49.1,20.2,98.2,30.3,147.2
	c1.6,7.8-1,15.8-6.8,21.1c-18.2,16.3-36.4,32.6-54.6,49c-4.8,4.3-11.3,6.2-17.6,5c-25.7-4.7-51.5-9.5-77.2-14.2
	c-8.2-1.5-14.8-7.8-16.8-16.1C24.5,193.2,12.6,144.9,0.7,96.6C-2.2,85,4.6,73.1,15.8,70.1z"/>
<g>
	<path fill="#CCCCCC" d="M25.5,93.2c1.5-2.8,4.2-5.1,22.5-9.2c19.2-4.4,28-4.5,47.3-9.2c4.5-1.1,7.9-2.1,10.9-2.8
		c15-3.8,30-7.6,45-11.3c0.6-0.2,1.4-0.2,2.4,0c6,1.6,6,14.8,9.3,32.5c1.4,7.3,3.9,14.4,5.4,21.6c5.3,25.8,10.5,51.5,15.8,77.3
		c0.3,1.5,0.6,3,0.2,4.5c-0.6,2.6-2.6,4.1-3.2,4.6c-5.8,4.7-8.2,12.8-27.4,30.8c-9.2,8.6-13.8,12.9-16.7,14.1
		c-9.4,3.9-13.4,0-41.4-4.4c-19.7-3.1-28.5-2.9-34.1-10.4c-1.2-1.6-2.4-4.7-4.7-10.7c-4.4-11.5-6.7-17.3-4.4-21.1
		c2.8-4.8,11-7.1,16-4.5c5.4,2.8,3.5,9.6,9.6,15.8c2.8,2.8,5.7,4,14,6.3c19.8,5.5,29.8,8.3,35.8,6.3c6.2-2.1,11-7.6,20.6-18.6
		c8.9-10.3,10.2-15.2,10.6-18.5c0.5-4.4-0.4-8.3-1.5-13.1c-1.5-6.5-3.8-11.7-5.5-15.1c-25.2,3.8-42.4,8.5-53.7,12.3
		c0,0-7.5,2.5-18.5,4.4c-14.6,2.5-25,4.2-30.8-1.8c-3.2-3.3-5.4-9.3-3.5-14.1c0.8-2,3.8-7.9,39.6-12.3c0,0,28.1-3.5,53.1-12.1
		c0.7-0.2,2-0.7,3.1-1.9c3.2-3.5,1.2-9.6-1.6-20.3c-4-15-2.9-16.6-5.3-18.5c-6-4.7-18.4,0.8-24.7,3.5c-17.6,7.7-36.7,11.3-55,17.2
		c-12,3.9-17.1,5.4-22,2.6C25.1,112.8,21.5,100.6,25.5,93.2z"/>
</g>
<path opacity="0.49" fill="#FFFFFF" d="M88.1,64.2c21.7-4.4,43.4-8.7,65.1-13.1c5.4-1.1,10.6,2.5,11.8,8
	c9.5,46.6,19,93.3,28.5,139.9c0.7,3.5-0.4,7.1-2.9,9.6l-48,47.3c-5.5,5.4-14.7,2.8-16.7-4.8C110.7,193,95.5,135,80.3,77
	C78.8,71.2,82.3,65.3,88.1,64.2z"/>
<g>
	<g>
		<path d="M44.2,24.5c-5.7-1.9-12.4-0.6-16.7,3.7c-3.3,3.2-4.7,7.6-5.2,12.1c-0.4,3.8,0.1,8,2,11.3c1.6,2.9,4.5,5.1,7.7,5.9
			c3,0.7,6.2,0.4,9.2-0.3c5.5-1.2,10.5-4.6,14-8.8c1.5-1.8,1.9-4.6,0-6.4c-1.7-1.5-4.8-1.9-6.4,0c-1,1.2-2,2.2-3.1,3.2
			c-0.1,0-0.4,0.4-0.5,0.4c0.1-0.1,0.3-0.2,0.4-0.3c-0.1,0.1-0.3,0.2-0.4,0.3c-0.4,0.3-0.8,0.6-1.2,0.8c-0.4,0.3-0.9,0.5-1.4,0.8
			c-0.3,0.1-0.5,0.3-0.8,0.4c-0.8,0.4,0.7-0.2-0.3,0.1c-1.1,0.4-2.2,0.7-3.4,0.9c-0.3,0.1-0.9,0.3-1.2,0.2c0.9,0.2,0.5-0.1,0,0
			c-0.4,0-0.7,0.1-1.1,0.1c-0.3,0-1.9-0.1-0.8,0c-0.3,0-0.5-0.1-0.7-0.1c0,0-1.2-0.4-0.6-0.1c0.6,0.2-0.6-0.3-0.6-0.3
			c-0.2-0.1-0.9-0.3,0,0.1c-0.2-0.1-1.1-0.9-1.1-1.1c0.1,0.1,0.2,0.3,0.3,0.4c-0.1-0.1-0.2-0.2-0.2-0.4c-0.1-0.2-0.3-0.4-0.4-0.6
			c0-0.1-0.3-0.5-0.3-0.5c0.1-0.1,0.3,0.9,0.1,0.3c-0.1-0.5-0.3-0.9-0.4-1.4c-0.1-0.5-0.1-1.8-0.1-0.4c0-1.3-0.2-2.6-0.1-3.9
			c0-0.3,0.1-0.6,0.1-0.9c0-0.3-0.2,1.4,0,0.3c0.1-0.4,0.1-0.7,0.2-1.1c0.2-0.7,0.4-1.4,0.6-2.1c0.2-0.5,0.2,0.1-0.1,0.3
			c0.1-0.1,0.2-0.4,0.2-0.5c0.2-0.5,0.5-0.9,0.8-1.4c0.2-0.3,0.3-0.9-0.1,0c0.1-0.3,0.4-0.5,0.6-0.7c0.1-0.2,0.3-0.3,0.5-0.5
			c0.2-0.2,1-0.7,0.1-0.2c0.5-0.3,1.1-0.7,1.6-1c-0.6,0.3,0.3-0.1,0.4-0.1c0.4-0.1,0.8-0.2,1.3-0.3c0.7-0.2-1,0,0.2,0
			c0.4,0,0.8,0,1.1,0c0.2,0,0.5,0,0.7,0c0.2,0,0.3,0,0.5,0c0.4,0,0.2,0-0.4-0.1c0.2,0.2,1.8,0.4,2.2,0.5c2.2,0.7,5-0.9,5.5-3.1
			C47.9,27.5,46.6,25.3,44.2,24.5L44.2,24.5z"/>
	</g>
</g>
<g>
	<g>
		<path d="M80.5,10.7c-8.2-2-18.1,0.8-22.6,8.4c-2.6,4.5-2.5,10.2,1.2,14.1c1.8,1.8,4.2,3,6.8,3.1c2.6,0.1,4.8-1.1,6.9-2.5
			c1-0.7,2.1-1.3,3.2-1.8c0.2-0.1,0.4-0.2,0.6-0.3c-0.7,0.3,0.2-0.1,0.3-0.1c0.6-0.2,1.2-0.4,1.8-0.6c1.1-0.3,2.2-0.6,3.4-0.8
			c-0.8,0.1-0.1,0,0.1,0c0.4,0,0.7-0.1,1.1-0.1c0.2,0,0.4,0,0.6,0c1-0.1-0.4-0.3,0.5,0.1c-0.7-0.4-1.3-0.8-2-1.2
			c-0.3-0.3-0.4-0.9-0.6-1.2c0-0.3-0.1-0.3,0-0.1c0,0.1,0,0.3,0,0.4c0,0.7,0,1.4,0,2.2c0,1.4,0,2.9,0,4.3c0,0.3,0,0.6,0,1
			c0,0.2,0,0.3,0,0.5c0,0.5,0,0.6,0,0.2c0.3-0.4,0-0.1-0.1,0.1c-0.2,0.5,0,0,0.1-0.2c-0.1,0.2-0.2,0.4-0.3,0.6c-0.4,0.7,0.4-0.2,0,0
			c-0.2,0.1-0.3,0.3-0.5,0.5c-0.1,0.1-0.2,0.1-0.2,0.2c-0.3,0.2-0.2,0.1,0.3-0.2c-0.1,0.4-1.7,1-2.1,1.2c-0.2,0.1-0.4,0.2-0.5,0.3
			c0.4-0.2-0.2,0.1-0.3,0.1c-0.6,0.2-1.3,0.4-2,0.6c-0.4,0.1-0.7,0.2-1.1,0.2c-0.4,0.1-0.5,0.1,0,0c-0.6,0.1-1.1,0.1-1.7,0.1
			c-1,0-2,0-3-0.1c-2.3-0.3-4.6,2.3-4.5,4.5c0.1,2.7,2,4.2,4.5,4.5c5.8,0.6,12.3-0.9,16.8-4.8c2.6-2.3,3.7-5.3,3.7-8.7
			c0-1.7,0-3.4,0-5.1c0-2,0.2-4.3-0.9-6.1c-2.4-3.9-7.6-3-11.4-2.2c-3.3,0.7-6.6,2-9.4,3.8c-0.6,0.4-1.2,0.8-1.8,1.2
			c-0.3,0.2-0.7,0.5-1.1,0.6c0.7-0.3,0.1-0.1,0-0.1c1.3-0.2,0.1,0.1-0.1-0.1c0.5,0.4,0.7,0,0.1-0.1c-0.6-0.1,0.9,0.5,0,0
			c-0.7-0.5,0.5,0.6-0.3-0.2c-0.2-0.2-0.6-0.8-0.1,0c-0.2-0.3-0.4-0.6-0.5-0.9c0.5,0.9,0.2,0.3,0.1,0.1c0-0.1-0.1-0.3-0.1-0.4
			c0.1,0.6,0.1,0.6,0,0.1c0,0,0.1-1.2,0-0.5c-0.1,0.7,0.1-0.5,0.2-0.5c0-0.2,0.6-1.3,0.1-0.4c0.2-0.3,0.4-0.7,0.6-1
			c0.5-1-0.5,0.5,0.2-0.3c0.3-0.3,0.6-0.6,0.9-0.9c0,0,1.2-1,0.5-0.4c0.3-0.2,0.7-0.5,1-0.7c0.2-0.1,1.7-1.2,2-1.1
			c-0.2,0.1-0.3,0.1-0.5,0.2c0.2-0.1,0.4-0.2,0.6-0.2c0.3-0.1,0.5-0.2,0.8-0.3c0.5-0.2,1-0.3,1.6-0.4c1.4-0.3-0.7,0,0.6-0.1
			c0.4,0,0.8-0.1,1.3-0.1c0.4,0,0.8,0,1.2,0c0.1,0,1.5,0.2,0.8,0.1c-0.7-0.1,0.2,0,0.3,0.1c0.3,0.1,0.7,0.1,1,0.2
			c2.3,0.6,5-0.7,5.5-3.1C84.2,13.9,83,11.3,80.5,10.7L80.5,10.7z"/>
	</g>
</g>
<g>
	<g>
		<path d="M108.7,1.3c-0.1,0.1-0.3,0.3-0.4,0.4c-0.4,0.4,0.6-0.3,0,0c-0.3,0.1-0.7,0.4-1,0.5c-0.4,0.2,0.1-0.1,0.2-0.1
			c-0.2,0.1-0.5,0.2-0.7,0.3c-0.4,0.1-0.8,0.3-1.3,0.4c-2,0.7-4.1,1.5-5.9,2.5c-3.7,2.1-7,5.6-7.9,9.8c-1,4.7,0.7,9.6,5,12
			c2.1,1.2,4.5,1.6,6.9,1.1c2.1-0.4,3.8-1.8,5.6-2.9c0.5-0.3,1-0.6,1.5-0.8c0.2-0.1,0.4-0.2,0.6-0.3c0.1,0,0.8-0.4,0.4-0.2
			c-0.4,0.2,0.2-0.1,0.3-0.1c0.3-0.1,0.7-0.3,1-0.4c0.5-0.2,1-0.3,1.4-0.4c0.6-0.2,1.1-0.3,1.7-0.4c0.2,0,0.4-0.1,0.6-0.1
			c0.3-0.1,1-0.1,0.3-0.1c0.5-0.1,1-0.1,1.5-0.1c0.3,0,0.6,0,0.9,0c0.3,0,0.3,0,0-0.1c-0.3-0.1-0.2-0.1,0.2,0.1
			c-0.7-0.4-1.3-0.8-2-1.2c-0.2-0.2-0.4-0.7-0.5-0.9c-0.3-0.9-0.1-0.4-0.1,0.1c0,0.7,0,1.4,0,2.2c0,1.4,0,2.7,0,4.1
			c0,0.4-0.2,1.7,0,2c-0.2-0.3,0.6-1.4,0.8-1.5c0.2-0.2,0.8-0.5,0.5-0.4c-1.1,0.2-2.1,0.6-3.2,0.8c-4.6,1-9.5,1.9-12.8,5.6
			c-1.6,1.8-1.9,4.7,0,6.4c1.7,1.6,4.7,1.9,6.4,0c0.2-0.3,0.5-0.5,0.7-0.8c0.2-0.2,0.6-0.4-0.1,0.1c0.5-0.3,1-0.6,1.5-0.9
			c1-0.5-0.6,0.2,0,0c0.3-0.1,0.5-0.2,0.8-0.3c0.7-0.2,1.4-0.4,2.1-0.6c2.4-0.6,4.8-0.9,7.1-1.7c2.2-0.8,4.2-2.1,4.9-4.5
			c0.5-1.6,0.3-3.4,0.3-5c0-1.6,0-3.2,0-4.8c0-2.2-0.2-4.4-1.8-6c-2.7-2.8-7.6-1.7-11-1c-3,0.7-6,1.9-8.6,3.5
			c-0.6,0.4-1.2,0.8-1.8,1.2c-0.4,0.2-0.7,0.5-1.1,0.7c-0.4,0.3-0.4,0-0.1,0.1c-0.1,0-0.2,0.1-0.3,0.1c0.6-0.1,0.7-0.1,0.4-0.1
			c-0.9,0.1,0-0.2,0,0c0,0-0.6-0.2-0.6-0.2c0.6,0.2,0.6,0.3,0.2,0c-0.4-0.3-0.4-0.2,0.1,0.1c-0.2-0.1-0.3-0.3-0.5-0.5
			c-0.8-0.7,0.2,0.5,0,0c-0.1-0.3-0.3-0.5-0.4-0.8c0.5,0.9,0.2,0.3,0.1,0.1c0-0.1-0.1-0.3-0.1-0.4c0.1,0.6,0.1,0.6,0,0.1
			c0-0.3,0-0.5,0-0.8c-0.1,1.1,0.1-0.1,0.1-0.3c0.1-0.2,0.5-1.2,0.1-0.4c0.1-0.2,0.2-0.5,0.4-0.7c0.1-0.2,0.3-0.4,0.4-0.7
			c-0.3,0.4-0.3,0.4,0,0c0.5-0.5,0.9-1,1.4-1.4c-0.8,0.6,0.3-0.2,0.4-0.2c0.3-0.2,0.7-0.4,1-0.6c0.3-0.2,0.6-0.3,0.9-0.5
			c0.2-0.1,0.4-0.2,0.6-0.3c-0.5,0.2-0.4,0.2,0.1,0c3.3-1.2,6.7-2,9.2-4.6c1.7-1.7,1.8-4.7,0-6.4C113.2-0.4,110.4-0.5,108.7,1.3
			L108.7,1.3z"/>
	</g>
</g>
</svg>
