<?xml version="1.0" encoding="utf-8"?>
<!-- Generator: Adobe Illustrator 23.0.6, SVG Export Plug-In . SVG Version: 6.00 Build 0)  -->
<svg version="1.1" id="Слой_1" xmlns="http://www.w3.org/2000/svg" xmlns:xlink="http://www.w3.org/1999/xlink" x="0px" y="0px"
	 viewBox="0 0 189 269.6" enable-background="new 0 0 189 269.6" xml:space="preserve">
<path fill="#E44D26" d="M33.2,38.6h122.5c18.4,0,33.2,15,33.2,33.6v118.3c0,10.6-4.9,20.5-13.3,26.8l-60.2,45.6
	c-12.3,9.4-29.4,8.9-41.3-1.1l-62.4-52.6C4.4,202.8,0,193.3,0,183.4V72.1C0,53.6,14.9,38.6,33.2,38.6z"/>
<g>
	<path fill="#E6E6E6" d="M96,245.6c-16.5,0.3-28.4-8.9-44-21c-11.5-8.9-21.6-16.8-26.9-31.3c-5.2-14.5-2.8-27.7-1.1-34.3
		c0-6.1,4.8-11.3,10.8-11.4c6.2-0.1,11.2,4.9,11.2,11v24.3c0,0,0,0,0,0c3.4,5.9,9.9,15.3,21,23.7c11.1,8.5,22,12.2,28.6,13.9
		c0,0,0,0,0,0c0,0,0,0,0,0c6.1-1.6,16.7-5.3,27.3-13.9c11.5-9.3,17.3-20,20-25.8c0,0,0,0,0,0c0,0,0,0,0,0c1.5-5.9,2.8-13.4,3-22.2
		c0.3-11.1-1.3-20.5-3-27.4c0,0,0,0,0,0c0,0,0,0,0,0c-13,3.6-30.7,7.2-52,7.4c-23.2,0.2-42.4-3.6-56-7.4c-0.7,0-4.6-0.1-7.8-3.2
		c-2-2-3.2-4.8-3.2-7.8V65.6c0-6.1,4.9-11,11-11c16.2,3.3,36.5,6,60,6c23.1,0,43-2.7,59-6c0,0,0,0,0,0c5.7,1.3,10.1,5.7,11,11
		c1.2,6.7-3.4,13.9-11,16c0,0,0,0,0,0c-36-1.7-72-3.3-108-5c0,0,0,0,0,0v32.5c0,0,0,0,0,0c13.3,3.2,30.2,6.1,50,6.4
		c23.4,0.4,43.2-2.8,58-6.4c0.7,0,4.6,0.1,7.8,3.2c2,2,3.2,4.8,3.2,7.8c1.7,9.5,3.1,21.1,3,34.4c-0.1,12-1.4,22.5-3,31.3
		c-4,9.1-11.7,23.4-26,36.7C127.9,232.9,114.6,245.2,96,245.6z"/>
</g>
<path opacity="0.48" fill="#FFFFFF" d="M98.9,50.2c18.5-0.9,37-1.7,55.5-2.6c0.4,0,0.9,0,1.3,0c3.7,0.5,9.4,1.8,14.5,5.8
	c12.1,9.6,13,28.6,7.8,86.2c-1.3,14.7-3.2,34.4-6,57.8c-0.2,2-0.6,2.6-0.7,2.9c-3.9,14.2-13.8,22.5-38.3,39.3
	c-26.5,18.3-31.7,20.2-35,18c-4.2-2.7-3.2-10.6-3.2-13.1c-1.2-62-2.4-124-3.6-186C91.1,54.1,94.5,50.4,98.9,50.2z"/>
<g>
	<g>
		<path d="M42.1,11.2c1.6,7.8,3.3,15.7,4.9,23.5c0.3,1.6,2.2,2.5,3.7,2.1c1.6-0.5,2.4-2.1,2.1-3.7c-1.6-7.8-3.3-15.7-4.9-23.5
			c-0.3-1.6-2.2-2.5-3.7-2.1C42.6,8,41.8,9.6,42.1,11.2L42.1,11.2z"/>
	</g>
</g>
<g>
	<g>
		<path d="M46.1,30.9c4.8,0.2,9.6-1.1,13.6-3.7c1.3-0.8,2-2.7,1.1-4.1c-0.9-1.3-2.7-2-4.1-1.1c-0.9,0.6-1.8,1-2.8,1.5
			c-0.3,0.1-0.3,0.1,0.1-0.1c-0.1,0.1-0.3,0.1-0.4,0.2c-0.2,0.1-0.4,0.1-0.6,0.2c-0.5,0.2-1,0.3-1.5,0.5c-0.5,0.1-1,0.3-1.5,0.4
			c-0.2,0-0.4,0.1-0.6,0.1c-0.3,0-0.3,0,0.2,0c-0.1,0-0.3,0-0.4,0c-1,0.1-2.1,0.1-3.1,0.1c-1.6-0.1-3.1,1.4-3,3
			C43.2,29.6,44.4,30.9,46.1,30.9L46.1,30.9z"/>
	</g>
</g>
<g>
	<g>
		<path d="M57.8,7.7C57.5,16,58.9,24.4,62,32.2c0.6,1.5,2,2.6,3.7,2.1c1.4-0.4,2.7-2.2,2.1-3.7c-2.9-7.3-4.3-15-4.1-22.9
			c0-1.6-1.4-3-3-3C59.1,4.7,57.8,6,57.8,7.7L57.8,7.7z"/>
	</g>
</g>
<g>
	<g>
		<path d="M70.4,8.6c6.3,0,12.6,0,18.9,0c1.6,0,3.1-1.4,3-3c-0.1-1.6-1.3-3-3-3c-6.3,0-12.6,0-18.9,0c-1.6,0-3.1,1.4-3,3
			C67.5,7.2,68.8,8.6,70.4,8.6L70.4,8.6z"/>
	</g>
</g>
<g>
	<g>
		<path d="M78.2,6.3c0.3,8.3,0.2,16.7-0.4,25c-0.1,1.6,1.5,3,3,3c1.7,0,2.9-1.4,3-3c0.6-8.3,0.8-16.7,0.4-25c-0.1-1.6-1.3-3-3-3
			C79.6,3.3,78.1,4.7,78.2,6.3L78.2,6.3z"/>
	</g>
</g>
<g>
	<g>
		<path d="M95.2,5.6c0,8.1,0,16.2,0,24.3c0,3.9,6,3.9,6,0c0-8.1,0-16.2,0-24.3C101.2,1.8,95.2,1.8,95.2,5.6L95.2,5.6z"/>
	</g>
</g>
<g>
	<g>
		<path d="M96.1,6.5c1.6,2.7,3.3,5.2,5.2,7.6c1.8,2.3,4.2,5.9,7.7,5.2c3-0.7,4.4-4.2,5.9-6.5c1.7-2.8,3.5-5.5,5.2-8.3
			c-1.1,0.5-2.3,0.9-3.4,1.4c1,0.1-0.7-0.2-0.5-0.6c0,0,0.2,0.9,0.2,0.5c0.2,1.1,0.1,2.2,0.2,3.3c0.1,2.2,0.2,4.5,0.3,6.7
			c0.1,4.5,0.1,9.1-0.1,13.6c-0.1,3.9,5.9,3.9,6,0c0.2-5.4,0.2-10.7,0-16.1c-0.1-2.5-0.1-5.1-0.4-7.6c-0.3-2.3-1.4-5.1-4-5.5
			c-1.4-0.2-2.6,0.1-3.4,1.4c-1.4,2.2-2.8,4.4-4.1,6.7c-0.6,1-1.2,1.9-1.8,2.9c-0.3,0.6-0.7,1.1-1,1.7c-0.2,0.3-0.3,0.6-0.5,0.8
			c-0.2,0.3-0.2,0.4-0.1,0.2c0.4-0.2,0.9-0.3,1.4-0.2c-0.1-0.1-0.3-0.2-0.3-0.3c-0.3-0.5-0.8-0.9-1.2-1.3c-0.6-0.7-1.2-1.5-1.8-2.3
			c-1.5-2-2.8-4-4.1-6.1C99.4,0.1,94.2,3.2,96.1,6.5L96.1,6.5z"/>
	</g>
</g>
<g>
	<g>
		<path d="M126.9,5c0,7.3,0,14.7,0.1,22c0,1.8,0,3.7,1.4,5c1.4,1.4,3.5,1.4,5.3,1.5c3.7,0.2,7.4,0.2,11.1,0.1c3.9-0.1,3.9-6.1,0-6
			c-3.1,0.1-6.3,0.1-9.4,0c-0.7,0-1.5-0.1-2.2-0.1c-0.1,0-1.3-0.2-1.3-0.1c0.3-0.3,1,0.8,1.1,0.8c0,0.2,0.1,0.1,0-0.1
			c0-0.1,0-0.3,0-0.4c0-0.4,0-0.8,0-1.2c0-0.8,0-1.6,0-2.4c0-6.4,0-12.7-0.1-19.1C132.9,1.1,126.9,1.1,126.9,5L126.9,5z"/>
	</g>
</g>
</svg>
