<?xml version="1.0" encoding="utf-8"?>
<!-- Generator: Adobe Illustrator 23.0.6, SVG Export Plug-In . SVG Version: 6.00 Build 0)  -->
<svg version="1.1" id="Слой_1" xmlns="http://www.w3.org/2000/svg" xmlns:xlink="http://www.w3.org/1999/xlink" x="0px" y="0px"
	 viewBox="0 0 270.7 226.3" enable-background="new 0 0 270.7 226.3" xml:space="preserve">
<g>
	<path fill="#F7DF1E" d="M20.8,14.1c19.3-3.2,38.6-5.9,58-8.1c19.4-2.2,38.9-4,58.6-5c9.8-0.5,19.7-0.9,29.7-0.9
		c5,0,10,0.1,15.1,0.3c5.1,0.2,10.2,0.5,15.4,1.1c5.3,0.6,10.6,1.4,16.5,3.1c1.5,0.4,3,1,4.7,1.6c1.7,0.7,3.3,1.5,5.3,2.7
		c1.8,1.1,4.1,2.9,6.2,5.6c0.6,0.7,1.1,1.6,1.7,2.8c0.6,1.2,1.2,2.6,1.6,4.6c0.2,1,0.3,2.1,0.2,3.2c0,1-0.1,2-0.3,2.9
		c-0.2,0.9-0.5,1.8-0.8,2.6c-0.3,0.7-0.7,1.5-1,2.1c-1.5,2.6-2.9,3.9-4.1,5c-1.2,1.1-2.3,1.8-3.2,2.4c-1.9,1.2-3.5,2-5.1,2.6
		c-3,1.3-5.7,2.2-8.4,3c-5.3,1.6-10.3,2.8-15.3,3.8c-10,2.1-19.7,3.7-29.5,5.2c-9.8,1.5-19.5,2.8-29.2,4l-57.8,7
		c-9.6,1.2-19.1,2.5-28.4,3.9C46,70.3,41.4,71.1,37,72c-2.2,0.4-4.4,0.9-6.3,1.4c-2,0.5-3.9,1.1-4.9,1.5l-0.3,0.1
		c0,0-0.1,0.1-0.1,0.1c0,0,0,0,0,0l0.2-0.1l0.3-0.2c0.1-0.1,0.2-0.1,0.4-0.3c0.2-0.2,0.4-0.3,0.6-0.5c0.3-0.3,0.6-0.5,0.9-0.9
		c0.4-0.5,0.7-0.9,1.2-1.6c0.5-0.8,0.8-1.4,1.3-2.6c0.4-1,0.7-2.3,0.8-3.7c0.1-1.3,0-2.7-0.3-3.9c-0.2-1.2-0.7-2.3-1.1-3.1
		c-0.5-1-0.8-1.4-1.2-2.1c-0.3-0.5-0.7-0.9-1-1.2c-0.2-0.3-0.6-0.6-0.7-0.7c-0.2-0.2-0.4-0.3-0.5-0.4l-0.3-0.2
		c-0.3-0.2-0.3-0.2-0.1-0.1c0.2,0.1,0.5,0.2,0.9,0.4l1.2,0.4c3.2,1.3,6.8,2,10.6,2.5c7.6,1,16.1,0.4,24.9-0.9
		c8.8-1.3,17.9-3.3,27.1-5.6c9.2-2.3,18.6-4.7,28.2-7.1c19.1-4.8,39.1-9.2,60-10.8c10.4-0.8,21.1-0.9,31.8,0.1c2.7,0.3,5.4,0.6,8,1
		c2.5,0.4,5.1,0.8,7.7,1.2c2.6,0.5,5.3,1,8,1.6c2.7,0.6,5.5,1.4,8.5,2.4c1.5,0.5,3.1,1.1,4.8,1.8c1.7,0.8,3.5,1.7,5.8,3.1
		c0.3,0.2,0.5,0.3,0.8,0.6l0.9,0.7c0.3,0.3,0.6,0.4,0.9,0.8c0.3,0.3,0.7,0.6,1,1c0.3,0.3,0.7,0.7,1.1,1.1c0.4,0.4,0.7,0.9,1.1,1.4
		c0.3,0.4,0.8,1.1,1.1,1.7c0.4,0.7,0.7,1.1,1.1,2c0.4,0.8,0.7,1.6,0.9,2.4c0.3,0.8,0.5,1.8,0.6,2.7c0.2,1,0.3,1.9,0.2,2.9
		c0,1,0,1.9-0.2,2.8c-0.5,3.6-1.8,6.3-3,8.2c-1.2,1.9-2.4,3.1-3.4,4.2c-1.1,1.1-2,1.8-2.9,2.6c-1.8,1.4-3.4,2.4-5,3.3
		c-3.1,1.7-5.9,3-8.8,4.1c-1.4,0.6-2.9,1.1-4.6,1.6c-0.8,0.2-1.6,0.5-2.3,0.7l-2.2,0.6c-2.9,0.7-5.7,1.2-8.4,1.6
		c-5.4,0.8-10.6,1.3-15.7,1.7c-10.2,0.8-20.2,1.1-30.1,1.2c-9.9,0.2-19.7,0.2-29.5,0.2c-19.5,0-38.9-0.2-57.8,0.3
		c-4.7,0.1-9.4,0.3-14,0.6c-4.6,0.3-9.1,0.7-13.4,1.2c-2.1,0.3-4.2,0.6-6,1c-1.8,0.4-3.6,0.8-4.6,1.2c-0.2,0.1-0.4,0.2-0.5,0.2
		c0,0,0,0-0.1,0l0,0c0,0,0.1,0,0.1,0c0.1,0,0.2-0.1,0.2-0.2c0.1-0.1,0.4-0.3,0.6-0.4l0.3-0.3c0.2-0.1,0.3-0.3,0.5-0.5
		c0.3-0.4,0.5-0.6,1-1.2c0.2-0.3,0.4-0.6,0.5-0.9l0.5-1c0.4-0.8,0.6-1.6,0.8-2.5c0.2-0.8,0.3-1.7,0.3-2.6c0-0.7,0-1.4-0.2-2.1
		c-0.3-1.5-0.9-3.1-1.7-4.3c-0.8-1.2-1.5-1.9-2.1-2.4c-1.1-0.9-1.5-0.9-1.4-0.9c0.1,0,0.5,0.2,1.1,0.3c1.2,0.3,3,0.6,4.9,0.7
		c3.9,0.4,8.3,0.4,12.8,0.4c9-0.1,18.5-0.7,28-1.5c19-1.5,38.4-3.5,58-5.1c9.8-0.8,19.7-1.4,29.9-1.8c5.1-0.2,10.2-0.2,15.5-0.1
		c5.3,0.1,10.7,0.4,16.5,1.2c2.9,0.4,6,1,9.4,1.9c1.7,0.5,3.5,1.1,5.5,1.9c2,0.9,4.1,1.9,6.5,3.6c2.3,1.7,5,4.2,7.1,7.8
		c0.3,0.4,0.5,0.9,0.7,1.4c0.2,0.5,0.5,0.9,0.7,1.5c0.2,0.6,0.4,1.1,0.6,1.7c0.2,0.7,0.4,1.3,0.5,2c0.2,0.6,0.3,1.5,0.4,2.2
		c0.1,0.8,0.1,1.6,0.1,2.5c0,1.7-0.3,3.5-0.7,5.2c-0.2,0.8-0.5,1.7-0.9,2.5c-0.3,0.8-0.7,1.5-1.1,2.2c-0.8,1.3-1.7,2.6-2.5,3.5
		c-0.4,0.5-0.9,1-1.2,1.3c-0.4,0.4-0.8,0.8-1.2,1.1c-0.7,0.6-1.5,1.2-2.2,1.7c-2.8,1.9-4.9,2.7-6.9,3.5c-1.9,0.7-3.6,1.2-5.2,1.6
		c-1.6,0.4-3.1,0.7-4.6,1c-3,0.5-5.7,0.9-8.4,1.2c-5.4,0.6-10.5,0.9-15.6,1.1c-10.2,0.4-20.1,0.5-29.9,0.5c-9.8,0-19.6-0.1-29.3-0.2
		c-9.7-0.1-19.3-0.2-28.9-0.1c-9.5,0.1-19,0.2-28.1,0.8c-4.5,0.3-8.9,0.8-12.7,1.4c-1.9,0.3-3.6,0.7-4.6,1.1
		c-0.5,0.2-0.8,0.3-0.5,0.2c0.1-0.1,0.5-0.3,1-0.7c0.6-0.5,1.4-1.3,2.3-2.7c0.9-1.4,1.8-3.7,1.9-5.8c0.2-2.1-0.2-4-0.6-5l-0.3-0.7
		c-0.1-0.2-0.2-0.4-0.3-0.6c-0.1-0.1-0.1-0.3-0.2-0.4l-0.2-0.3c-0.2-0.3-0.3-0.4-0.3-0.5c-0.2-0.2,0,0.1,0.9,0.6
		c0.9,0.5,2.2,1,3.7,1.5c1.6,0.5,3.3,0.9,5.2,1.2c3.8,0.7,8.1,1.1,12.4,1.4c4.4,0.2,8.9,0.3,13.4,0.3c9.1-0.1,18.5-0.7,27.9-1.4
		c18.9-1.5,38-3.9,57.3-6.3c9.7-1.2,19.4-2.4,29.3-3.4c5-0.5,10-1,15.2-1.3c2.6-0.2,5.3-0.3,8.1-0.3c2.8,0,5.7,0,9.3,0.4l1.4,0.2
		c0.5,0.1,0.9,0.1,1.5,0.2c1.2,0.2,2.1,0.4,3.6,0.9c1.2,0.3,3,1,4.9,2.1c0.6,0.3,1.2,0.7,1.7,1.1c0.7,0.5,0.8,0.5,1.9,1.5
		c1,0.9,1.8,1.6,3.2,3.8c1,1.4,2.6,5.2,2.6,8.7c0,4.2-1.2,7.3-2.6,9.5c-1.3,2-2.5,3.2-3.5,4.1c-0.7,0.6-1.9,1.5-2.3,1.7
		c-0.5,0.3-1.3,0.8-1.7,1c-0.4,0.2-0.9,0.4-1.3,0.6l-1,0.4c-0.4,0.1-0.7,0.3-0.9,0.3l-0.8,0.3c-2.1,0.7-3.6,1-5.2,1.3
		c-3,0.6-5.6,1-8.3,1.4c-2.6,0.4-5.2,0.7-7.7,0.9c-10.1,1.1-19.8,1.9-29.6,2.6c-19.5,1.4-38.9,2.6-58.3,3.9
		c-19.3,1.3-38.6,2.6-57.7,4.4c-9.5,0.9-19,1.9-28.1,3.3c-4.5,0.7-9,1.5-13,2.4c-1.9,0.5-3.8,1-4.8,1.4l-0.3,0.1
		c0,0-0.1,0.1-0.1,0.1c0,0,0,0,0,0c0,0,0,0,0.1-0.1c0.1,0,0.1-0.1,0.2-0.1c0,0,0.2-0.2,0.3-0.2c0.2-0.1,0.7-0.6,1-1
		c0.3-0.3,0.6-0.7,0.9-1c0.2-0.3,0.7-1,1-1.6c0.3-0.5,0.7-1.5,1-2.3c0.2-0.8,0.5-1.9,0.6-2.9c0.1-1,0.1-2-0.1-3.1
		c-0.2-1.1-0.3-1.7-0.7-2.6c-0.4-0.9-0.5-1.2-0.9-1.8c-0.4-0.6-0.6-0.9-0.8-1.2c-0.6-0.7-0.8-1-1.2-1.3c-0.2-0.1-0.2-0.2-0.3-0.3
		c-0.1-0.1-0.2-0.2-0.3-0.2c0,0-0.1-0.1-0.1-0.1c0,0-0.1,0-0.1,0c0,0,0,0,0.1,0.1l0.2,0.1l0.4,0.2c0.1,0.1,0.4,0.2,0.6,0.3l2.5,1.1
		c0.8,0.4,1.8,0.6,2.7,1l1.4,0.5c0.5,0.2,1,0.3,1.5,0.4l3,0.8c1,0.3,2.1,0.5,3.1,0.7c1,0.2,2.1,0.5,3.1,0.7
		c8.5,1.6,17.6,2.5,26.8,2.9c18.5,0.8,37.4,0.1,56.4-1.4c9.5-0.8,19-1.7,28.4-2.9c4.7-0.6,9.5-1.2,14.2-1.8l7.1-1
		c2.3-0.3,4.7-0.7,6.9-1.1l-3.6,1.2l0,0l1.1-0.5l1-0.4l2-0.8c1.3-0.5,2.7-1,4-1.5c2.7-0.9,5.4-1.8,8.2-2.6
		c5.5-1.6,11.3-2.9,17.8-3.3c3.3-0.2,6.7-0.2,10.6,0.3c1.9,0.3,4,0.8,6.1,1.5c1.1,0.4,2.1,0.8,3.2,1.4c0.5,0.3,1.1,0.6,1.6,0.9
		c0.5,0.3,1.1,0.7,1.6,1.1c0.5,0.4,1.1,0.7,1.6,1.2c0.5,0.4,1,0.9,1.5,1.4c1,0.9,1.8,2,2.6,3.1c0.4,0.5,0.7,1.1,1.1,1.7
		c0.3,0.6,0.6,1.1,0.9,1.7c0.6,1.1,0.9,2.3,1.3,3.4l0.1,0.4c0.1,0.2-0.1-0.4,0.2,0.6c0.3,1.3,0.5,2.8,0.4,4.1
		c-0.1,1.5-0.4,2.5-0.7,3.3c-0.3,0.9-0.8,1.8-1.3,2.6c-1.5,2.1-2.9,3.1-3.4,3.4l-0.6,0.4c-0.2,0.1-0.4,0.2-0.5,0.3l-0.7,0.3
		l-0.3,0.2l-0.2,0.1l-0.4,0.2c-0.3,0.1-0.5,0.2-0.7,0.3c-0.5,0.2-0.8,0.2-1.1,0.3c-1.2,0.3-2,0.5-2.8,0.6c-1.6,0.3-3,0.4-4.4,0.6
		c-5.4,0.6-10.5,1.1-15.7,1.5l-15.3,1.3c-10.2,0.9-20.3,1.8-30.3,3c-10,1.2-20,2.5-29.9,4.3c-4.9,0.9-9.8,1.9-14.5,3
		c-4.7,1.2-9.4,2.5-13.7,4.2c-2.1,0.8-4.2,1.8-6,2.8c-1.8,1-3.3,2.1-4.1,3.1c-0.4,0.4-0.6,0.8-0.7,1c-0.1,0.2-0.1,0.3-0.1,0.6
		c0,0.6,0.7,2.1,1.9,3.6c1.2,1.5,2.8,3,4.6,4.5c1.8,1.4,3.7,2.8,5.7,4.1c4,2.6,8.4,5.1,12.8,7.4l0,0c2.7,1.4,3.7,4.7,2.3,7.4
		c-1.3,2.6-4.4,3.6-7,2.5c-4.8-2.1-9.6-4.3-14.4-7c-2.4-1.3-4.7-2.8-7-4.4c-2.3-1.6-4.6-3.5-6.8-5.8c-1.1-1.2-2.2-2.5-3.1-4
		c-1-1.6-1.9-3.4-2.3-5.6c-0.5-2.2-0.5-4.7,0.2-7c0.6-2.3,1.7-4.2,2.8-5.8c2.4-3.1,5-5.1,7.5-6.9c2.6-1.7,5.1-3,7.7-4.3
		c5.1-2.4,10.2-4.2,15.3-5.9c5.1-1.6,10.2-3.1,15.3-4.3c10.2-2.6,20.4-4.7,30.6-6.6c10.2-1.9,20.4-3.6,30.6-5.2l15.2-2.4
		c5-0.8,10.1-1.6,14.8-2.5c1.2-0.2,2.3-0.5,3.2-0.7c0.4-0.1,0.9-0.2,0.9-0.3c0,0,0,0-0.2,0l-0.3,0.1l-0.2,0.1l-0.4,0.2
		c-0.2,0.1-0.3,0.2-0.5,0.2l-0.3,0.2c-0.2,0.1-0.3,0.2-0.5,0.3c-0.4,0.3-1.7,1.1-3.1,3.1c-0.5,0.8-1,1.6-1.3,2.5
		c-0.3,0.8-0.6,1.7-0.7,3.2c-0.1,1.4,0,2.8,0.4,4c0.3,0.9,0.1,0.2,0.1,0.4l0,0c-0.1,0-0.1-0.2-0.1-0.1c0,0,0,0,0,0c0,0,0,0,0,0.1
		c0,0.1,0.1,0.1,0.1,0.2c0,0,0,0.1,0.1,0.1c0,0,0,0.1,0,0.1c0.1,0.1-0.5-0.1-1.8-0.2c-1.2-0.1-2.9,0-4.7,0.3
		c-3.7,0.5-7.9,1.7-12.1,3.3c-2.1,0.8-4.2,1.6-6.3,2.5c-1,0.5-2.1,0.9-3.1,1.4l-1.5,0.7l-0.7,0.4c-0.2,0.1-0.5,0.3-0.6,0.3l0,0
		l-1.6,0.8l-2.1,0.4c-2.6,0.5-5,0.9-7.5,1.3l-7.3,1.2c-4.9,0.8-9.8,1.5-14.7,2.2c-9.8,1.3-19.6,2.5-29.5,3.5
		c-19.8,1.9-39.7,3.1-60.1,2.4c-10.2-0.4-20.5-1.2-31.1-3c-1.3-0.2-2.7-0.5-4-0.8c-1.3-0.3-2.7-0.5-4-0.9l-4.1-1.1
		c-0.7-0.2-1.3-0.3-2-0.6l-2.1-0.7c-1.4-0.5-2.7-0.9-4.1-1.4l-4.2-1.7c-0.4-0.2-0.7-0.3-1.1-0.5l-1.3-0.6l-1.4-0.7
		c-0.4-0.2-1-0.6-1.5-0.9c-0.2-0.1-0.5-0.3-0.8-0.5l-0.9-0.6c-0.3-0.2-0.6-0.5-1-0.8c-0.3-0.3-0.6-0.5-1-0.9
		c-0.8-0.8-1.5-1.4-2.4-2.7c-0.4-0.5-0.8-1.1-1.3-2c-0.5-0.9-0.8-1.5-1.2-2.7c-0.4-1.1-0.7-2.1-0.9-3.5c-0.2-1.3-0.3-2.6-0.1-4
		c0.1-1.3,0.4-2.7,0.7-3.8c0.3-1.1,0.9-2.4,1.3-3.1c0.4-0.8,1.1-1.8,1.5-2.3c0.5-0.6,0.9-1.2,1.5-1.7c0.8-0.8,1.8-1.7,2.4-2.2
		c0.3-0.3,0.8-0.6,1.1-0.8l0.9-0.6c0.3-0.2,0.6-0.4,0.9-0.5l0.8-0.5c0.5-0.3,1-0.5,1.5-0.8l1.4-0.6c3.5-1.4,6.3-2.2,9.1-2.9
		c5.5-1.4,10.6-2.3,15.6-3.1c10.1-1.6,19.9-2.8,29.8-3.8c19.6-2,39.1-3.5,58.6-5c19.4-1.5,38.8-2.8,58-4.4
		c9.6-0.8,19.2-1.6,28.4-2.7c2.3-0.3,4.6-0.6,6.8-0.9c2.2-0.3,4.3-0.7,6.1-1.1c0.9-0.2,1.7-0.4,1.9-0.5c0,0,0,0,0,0c0,0,0,0-0.1,0
		c-0.1,0-0.1,0-0.2,0.1c-0.2,0.1-0.3,0.1-0.5,0.2c-0.1,0.1-0.6,0.3-0.9,0.5c-0.2,0.1-1.1,0.8-1.6,1.2c-0.8,0.7-1.8,1.6-2.9,3.4
		c-1.2,1.9-2.4,4.8-2.3,8.6c0,3.2,1.5,6.7,2.3,7.8c1.3,2,1.9,2.4,2.6,3.1c0.9,0.8,0.7,0.6,1.2,1c0.3,0.2,0.6,0.4,1,0.6
		c0.8,0.5,1.5,0.7,1.6,0.7c0.3,0.1,0.1,0,0,0l-0.7-0.1c-1.3-0.1-3.2-0.2-5.3-0.2c-2.1,0-4.2,0.1-6.5,0.3c-4.5,0.3-9.1,0.7-13.8,1.2
		c-9.4,1-19,2.2-28.6,3.4c-19.3,2.5-38.7,5-58.6,6.7c-9.9,0.8-20,1.5-30.3,1.7c-5.1,0.1-10.4,0-15.7-0.2c-5.3-0.3-10.8-0.8-16.6-1.8
		c-2.9-0.5-5.9-1.2-8.9-2.1c-3.1-1-6.4-2.1-9.8-3.9c-3.4-1.8-7.2-4.3-10.6-8.3c-0.4-0.4-0.8-1-1.3-1.5c-0.4-0.5-0.9-1.2-1.3-1.8
		c-0.2-0.3-0.4-0.7-0.7-1.1c-0.2-0.4-0.4-0.8-0.6-1.2c-0.2-0.5-0.4-0.9-0.7-1.4c-0.2-0.5-0.4-1-0.6-1.6c-0.8-2.2-1.4-5.3-1.1-8.6
		c0.2-3.3,1.5-6.8,3.1-9.2c1.5-2.4,3.2-4.1,4.7-5.4c1.5-1.2,2.8-2.1,4-2.7c2.4-1.3,4.4-2.1,6.2-2.7c3.6-1.2,6.6-1.8,9.5-2.4
		c5.8-1,11-1.5,16.2-1.9c10.4-0.7,20.3-0.9,30.2-0.9c9.9-0.1,19.7,0,29.4,0.1c9.7,0.1,19.4,0.2,29,0.2c9.6,0,19.1-0.1,28.4-0.5
		c4.6-0.2,9.2-0.5,13.4-1c2.1-0.2,4.2-0.5,6-0.9c0.9-0.2,1.8-0.4,2.5-0.5c0.7-0.2,1.4-0.4,1.7-0.5c0.3-0.1,0.4-0.2-0.4,0.3
		c-0.1,0.1-0.5,0.3-0.7,0.6c-0.2,0.1-0.4,0.3-0.6,0.5c-0.1,0.2-0.4,0.4-0.6,0.7c-0.4,0.5-1,1.2-1.4,2c-0.3,0.4-0.5,0.9-0.7,1.4
		c-0.2,0.5-0.4,1.1-0.6,1.6c-0.7,2.3-0.6,4.7-0.2,6.3c0.1,0.4,0.2,0.7,0.3,1.1c0.1,0.3,0.2,0.6,0.3,0.8l0.3,0.7
		c0.1,0.2,0.2,0.4,0.3,0.6c0.9,1.5,1.8,2.2,2.2,2.5c0.4,0.3,0.4,0.2,0.1,0.1c-0.3-0.1-0.8-0.3-1.4-0.5c-1.3-0.4-3-0.7-4.9-1
		c-3.8-0.5-8.1-0.8-12.5-0.9c-4.4-0.1-9,0-13.7,0.1c-9.3,0.3-18.8,1-28.3,1.7c-19.1,1.5-38.4,3.5-58.1,4.9
		c-9.9,0.7-19.8,1.4-30.2,1.5c-5.2,0-10.5,0-16.3-0.6c-2.9-0.3-5.9-0.7-9.5-1.5c-1.8-0.4-3.6-1-5.8-1.8c-2.1-0.9-4.7-2.1-7.7-4.5
		c-1.5-1.3-3.1-2.9-4.5-5.1c-1.4-2.2-2.6-5-3-7.6c-0.2-1.3-0.4-2.6-0.4-3.9c0-1.5,0.2-3,0.5-4.4c0.3-1.4,0.8-2.8,1.4-4.2
		c0.3-0.7,0.6-1.2,0.9-1.8c0.3-0.6,0.7-1.1,1-1.7c0.8-1.2,1.4-1.8,2.1-2.7c0.4-0.4,0.7-0.8,1.1-1.1c0.4-0.3,0.7-0.6,1-0.9
		c0.6-0.5,1.4-1.1,2-1.5c0.6-0.4,1.2-0.8,1.8-1.1c0.3-0.2,0.6-0.4,0.9-0.5l0.8-0.4l1.6-0.8c1-0.4,1.9-0.8,2.8-1.2
		c3.6-1.3,6.6-2,9.5-2.6c2.9-0.6,5.7-1,8.4-1.3c5.4-0.7,10.5-1.1,15.7-1.4c5.1-0.3,10.1-0.5,15.1-0.6c19.9-0.5,39.4-0.2,58.8-0.1
		c9.7,0,19.3,0.1,28.9-0.1c9.5-0.1,19-0.4,28.2-1c4.6-0.3,9.1-0.8,13.2-1.4c2.1-0.3,4.1-0.7,5.9-1.1l1.3-0.3l1.2-0.3
		c0.7-0.2,1.5-0.5,2.3-0.8c1.6-0.6,3.3-1.4,4.5-2c0.6-0.3,1-0.6,1.1-0.7c0,0,0,0-0.2,0.2c-0.2,0.2-0.5,0.5-1.1,1.4
		c-0.5,0.9-1.4,2.4-1.7,4.8c-0.1,0.6-0.1,1.2-0.1,1.9c0,0.7,0.1,1.3,0.2,2c0.1,0.6,0.3,1.3,0.4,1.9c0.2,0.5,0.4,1.1,0.6,1.6
		c0.3,0.6,0.4,0.8,0.6,1.2c0.2,0.3,0.5,0.7,0.7,1c0.2,0.2,0.3,0.4,0.5,0.6l0.4,0.5c0.2,0.2,0.5,0.5,0.6,0.6c0.1,0.1,0.1,0.1,0.2,0.2
		c0.1,0,0.1,0,0.1,0.1c0.2,0.1-0.1-0.1-0.6-0.3c-0.5-0.2-1.2-0.5-2-0.8c-1.6-0.6-3.5-1.1-5.5-1.6c-2-0.5-4.1-0.9-6.3-1.3
		c-2.2-0.4-4.3-0.8-6.7-1.1l-6.4-0.8c-8.6-0.9-17.4-0.9-26.4-0.3c-17.9,1.2-36.1,5.1-54.7,9.6c-9.3,2.2-18.7,4.7-28.4,7
		c-9.7,2.3-19.6,4.4-30.1,5.9c-10.5,1.4-21.5,2.2-33.2,0.7c-5.8-0.8-11.8-2.1-17.6-4.4c-1.5-0.6-2.8-1-4.7-1.9c-0.9-0.5-2-1-3.3-1.9
		c-0.3-0.2-0.7-0.5-1.1-0.7c-0.3-0.2-0.8-0.6-1.2-1c-0.4-0.3-1-0.9-1.4-1.3C4.5,76,4,75.4,3.4,74.7c-0.6-0.9-1.1-1.6-1.7-2.8
		c-0.5-1.1-1-2.5-1.4-3.9c-0.3-1.5-0.5-3.1-0.3-4.8c0.1-1.7,0.5-3.3,1-4.6c0.5-1.5,1-2.4,1.7-3.4c0.6-1,1.1-1.6,1.7-2.3
		c0.5-0.6,1-1,1.5-1.5c0.5-0.4,0.9-0.7,1.3-1.1c1.6-1.2,2.9-1.9,3.9-2.5c0.6-0.3,1-0.5,1.5-0.7c0.5-0.2,0.9-0.4,1.4-0.6
		c3.5-1.4,6.2-2.1,9-2.8c2.7-0.7,5.3-1.2,7.9-1.7c5.1-1,10.1-1.8,15-2.5c9.9-1.5,19.6-2.7,29.4-3.8c9.7-1.1,19.4-2.2,29.1-3.3
		l28.9-3.1c9.6-1.1,19.2-2.1,28.7-3.3c9.5-1.2,18.9-2.5,28.1-4.1c4.5-0.8,9-1.7,13.1-2.8c2-0.5,3.9-1.1,5.4-1.7
		c0.7-0.3,1.3-0.5,1.4-0.6c0,0,0,0-0.3,0.3c-0.3,0.3-0.8,0.7-1.7,2.2c-0.2,0.4-0.5,0.9-0.6,1.3c-0.2,0.5-0.4,1.1-0.5,1.7
		c-0.1,0.6-0.2,1.3-0.2,2c0,0.7,0,1.6,0.2,2.2c0.3,1.4,0.7,2.3,1,2.9c0.3,0.6,0.6,1,0.8,1.2c0.6,0.8,1,0.9,0.8,0.7
		c-0.3-0.3-1.7-1-3.3-1.6c-3.3-1.2-7.6-2.1-12-2.8c-8.8-1.5-18.2-2.2-27.6-2.8c-9.5-0.6-19-0.9-28.6-1.1c-38.4-0.7-77.2,0.3-116.1,1
		l0,0c-2.8,0-5.1-2.2-5.1-4.9C16.6,16.6,18.4,14.5,20.8,14.1z"/>
</g>
<g>
	<g>
		<path d="M49.7,51c3.5,8.4,7.1,16.7,10.9,25c2,4.3,4,8.5,5.9,12.8c0.3,0.7,0.6,1.4,1,2.1c0.1,0.3,0.3,0.7,0.4,1
			c-0.9-2-0.2-0.5,0-0.1c0.4,1.1,0.9,2.2,1.2,3.4c0.1,0.5,0.2,0.9,0.3,1.4c0.1,0.3,0.1,0.5,0.1,0.8c0.1,0.6-0.2-1.7-0.1-1.1
			c0,0.1,0,0.3,0,0.4c0.1,1,0.1,1.9,0,2.9c0,0.1,0,0.2,0,0.3c-0.1,0.9,0.2-1.6,0.1-0.9c-0.1,0.3-0.1,0.7-0.2,1
			c-0.2,0.8-0.4,1.6-0.6,2.4c-0.2,0.7-0.5,1.5-0.8,2.2c-0.2,0.7,0.6-1.3,0.3-0.6c-0.1,0.2-0.2,0.5-0.3,0.7c-0.2,0.4-0.4,0.8-0.6,1.2
			c-0.4,0.8-0.9,1.5-1.3,2.3c-0.2,0.3-0.5,0.7-0.7,1c-0.1,0.2-0.3,0.3-0.4,0.5c0.2-0.3,0.9-1.1,0.2-0.3c-0.6,0.7-1.2,1.4-1.8,2
			c-0.3,0.3-0.6,0.6-0.9,0.9c-0.2,0.1-0.3,0.3-0.5,0.4c-0.8,0.7,1.2-0.8,0.2-0.2c-0.7,0.5-1.4,1-2.2,1.4c-0.4,0.2-0.8,0.4-1.2,0.6
			c-0.9,0.4,0.4-0.2,0.5-0.2c-0.3,0.1-0.6,0.2-0.9,0.3c-0.9,0.3-1.8,0.5-2.7,0.7c-0.2,0-0.5,0.1-0.7,0.1c1.3-0.4,1-0.1,0.5-0.1
			c-0.6,0-1.1,0.1-1.7,0.1c-0.6,0-1.1,0-1.7-0.1c-0.2,0-0.5-0.1-0.7-0.1c0.4,0,1.4,0.2,0.4,0c-1.1-0.2-2.1-0.4-3.1-0.8
			c-0.2-0.1-0.4-0.1-0.6-0.2c-0.5-0.2-1.2-0.7,0.2,0.1c-0.4-0.3-0.9-0.4-1.4-0.7c-1-0.5-1.9-1.1-2.8-1.7c-0.2-0.1-0.4-0.3-0.6-0.4
			c1.2,0.6,0.6,0.5,0.1,0.1c-0.4-0.4-0.9-0.8-1.3-1.2c-0.4-0.4-0.8-0.8-1.1-1.2c-0.2-0.2-0.3-0.4-0.5-0.5c-0.9-1,0.4,0.6,0,0.1
			c-0.7-0.9-1.3-1.9-1.9-2.9c-0.3-0.5-0.6-1.1-0.8-1.7c-0.4-0.7,0.3,0.1,0.2,0.4c0.1-0.2-0.3-0.9-0.4-1.1c-1.1-2.9-4.1-5.2-7.4-4.2
			c-2.9,0.9-5.3,4.2-4.2,7.4c3.5,9.6,11.4,17.8,21.6,19.9c9.9,2.1,20-1.4,26.3-9.3c2.8-3.6,5-7.5,6.3-11.9c0.8-2.8,1.4-6,1.1-8.9
			c-0.7-7.1-4.4-13.6-7.4-20c-2.6-5.7-5.2-11.3-7.8-17c-1-2.4-2.1-4.8-3.1-7.1c-0.4-1-0.8-2-1.3-3c0.8,2,0,0.1-0.1-0.3
			c-0.2-0.5-0.4-0.9-0.6-1.4c-0.6-1.5-1.3-2.7-2.8-3.6c-1.3-0.8-3.2-1.1-4.6-0.6C51.1,44.6,48.4,47.9,49.7,51L49.7,51z"/>
	</g>
</g>
<g>
	<g>
		<path d="M112.9,34.7c-2.9-2.4-5.9-3.6-9.7-4c-2.8-0.3-5.7,0.3-8.2,1.3c-3,1.2-5.8,2.9-8,5.4c-2.3,2.7-3.9,5.6-5.2,8.9
			c-1.1,3-1.6,6.1-1.9,9.2c-0.3,2.5-0.4,5-0.1,7.5c0.7,6.4,3.4,12.8,10,15c4.1,1.4,8.1,0.1,11.9-1.5c0.7-0.3,1.4-0.6,2.1-0.9
			c0.3-0.1,1-0.5-0.2,0.1c0.4-0.2,0.9-0.3,1.3-0.5c1.5-0.6,3-1.1,4.6-1.6c1.4-0.4,2.8-0.8,4.2-1c0.4-0.1,0.9-0.2,1.4-0.2
			c-1.4,0.1-0.6,0.1-0.2,0c0.9-0.1,1.8-0.2,2.7-0.2c0.8,0,1.5,0,2.3,0.1c0.4,0,1,0,1.4,0.1c-0.1-0.1-1.4-0.2-0.2,0
			c1.3,0.2,2.6,0.6,3.8,1c0.1,0.1,1.3,0.5,0.3,0.1c-1-0.4,0.1,0.1,0.3,0.1c0.5,0.3,1.1,0.5,1.6,0.9c0.5,0.3,1,0.7,1.5,1
			c1,0.7-0.8-0.7-0.2-0.2c0.3,0.3,0.6,0.5,0.9,0.8c0.4,0.4,0.9,0.8,1.2,1.3c0.2,0.2,0.3,0.4,0.5,0.5c0.8,1-0.8-1.2-0.1-0.1
			c0.3,0.5,0.6,1,0.9,1.5c0.1,0.2,0.2,0.4,0.3,0.6c0.3,0.6,0.2,0.4-0.2-0.5c0.1,0.2,0.2,0.4,0.2,0.7c0.2,0.6,0.4,1.1,0.5,1.7
			c0,0.2,0.1,0.5,0.1,0.7c-0.4-1.6-0.1-0.7-0.1-0.2c0,0.6,0,1.2,0,1.8c0,0.2-0.1,0.5-0.1,0.7c0-1.8,0.1-0.6,0,0
			c-0.1,0.6-0.3,1.1-0.5,1.7c-0.1,0.3-0.3,0.6-0.3,0.8c0.1-1.1,0.4-0.9,0.1-0.3c-0.3,0.5-0.5,1.1-0.9,1.6c-0.3,0.5-0.9,1.1-1.1,1.6
			c0.2-0.2,0.3-0.4,0.5-0.6c-0.2,0.2-0.3,0.4-0.5,0.6c-0.2,0.3-0.5,0.5-0.7,0.8c-0.5,0.5-1,1-1.6,1.5c-0.2,0.2-0.5,0.4-0.7,0.6
			c-0.4,0.3-0.2,0.2,0.5-0.4c-0.2,0.1-0.4,0.3-0.6,0.4c-0.6,0.4-1.1,0.8-1.7,1.1c-0.6,0.3-1.2,0.7-1.8,0.9c-0.4,0.2-1.5,0.4,0.1,0
			c-0.3,0.1-0.7,0.3-1,0.4c-1.7,0.6-3.5,1-5.2,1.3c-1.1,0.2,0.1,0,0.2,0c-0.5,0.2-1.3,0.1-1.8,0.2c-0.8,0.1-1.7,0.1-2.5,0.1
			c-1.8,0-3.5,0-5.3-0.2c-0.9-0.1-1.8-0.2-2.8-0.3c-0.4,0-0.8-0.1-1.2-0.1c-0.2,0-0.5-0.1-0.7-0.1c0.8,0.1,0.9,0.1,0.2,0
			c-1.8-0.3-3.7-0.6-5.5-0.8c-1.6-0.3-3.1-0.3-4.6,0.6c-1.2,0.7-2.4,2.2-2.8,3.6c-0.7,2.9,0.9,6.8,4.2,7.4
			c12.6,2.1,27.4,4.2,38.5-3.8c5-3.6,9.1-8.4,10.8-14.4c1.6-5.8,0.6-12.4-3-17.3c-3.6-5-8.9-8.7-14.9-10.3c-6.7-1.8-13.9-1-20.4,1
			c-3.3,1-6.3,2.5-9.5,3.7c1.5-0.6-0.7,0.2-1.1,0.3c-0.2,0.1-1.1,0.4-1.3,0.3c0,0,1.6,0,0.3-0.1c-0.1,0-0.3,0-0.4,0
			c-0.7,0-0.6,0,0.3,0.1c0,0-0.6-0.2-0.6-0.2c-1.1-0.2,1.3,0.7,0.3,0.2c-0.2-0.1-0.5-0.3-0.7-0.5c1.1,0.5,0.9,0.8,0.5,0.4
			c-0.2-0.2-0.4-0.5-0.6-0.6c0.9,0.6,0.7,1,0.4,0.5c-0.2-0.3-0.3-0.5-0.5-0.8c-0.1-0.2-0.2-0.4-0.3-0.5c-0.6-1,0.5,1.4,0.1,0.3
			c-0.2-0.6-0.4-1.1-0.5-1.7c-0.1-0.5-0.2-1.1-0.3-1.6c-0.2-0.8,0.2,1.6,0.1,0.4c0-0.3-0.1-0.5-0.1-0.8c-0.1-1.2-0.1-2.4,0-3.5
			c0-0.8,0.1-1.6,0.2-2.4c0,0.1,0.1-0.8,0.1-0.8c-0.1,0.9-0.1,1.1,0,0.4c0-0.3,0.1-0.5,0.1-0.8c0.3-1.4,0.6-2.9,1.1-4.3
			c0.1-0.4,0.3-0.7,0.4-1.1c0.4-1.1-0.6,1.1,0,0c0.3-0.7,0.7-1.4,1.1-2.1c0.1-0.2,0.3-0.4,0.4-0.7c0.1-0.2,0.3-0.4,0.4-0.6
			c-0.5,0.6-0.6,0.8-0.3,0.4c0.4-0.5,0.9-1,1.4-1.5c0.2-0.2,0.6-0.4,0.8-0.7c-0.7,0.5-0.9,0.7-0.5,0.4c0.1-0.1,0.3-0.2,0.4-0.3
			c0.6-0.4,1.2-0.7,1.8-1c0.9-0.5-0.4,0.2-0.5,0.2c0.4,0,0.9-0.3,1.3-0.4c0.2-0.1,0.4-0.1,0.7-0.2c0.2-0.1,1.7-0.3,0.5-0.1
			c-1.1,0.1,0,0,0.2,0c0.3,0,0.7,0,1,0c0.3,0,0.7,0.1,1,0.1c-0.3,0-0.6-0.1-0.9-0.1c0.2,0,0.4,0.1,0.6,0.1c0.3,0.1,0.5,0.2,0.8,0.2
			c1.3,0.3-1-0.6-0.1-0.1c0.5,0.3,2.2,1.5,0.7,0.3c1.3,1,2.5,1.8,4.2,1.8c1.5,0,3.2-0.7,4.2-1.8C114.9,41,115.5,36.9,112.9,34.7
			L112.9,34.7z"/>
	</g>
</g>
<g>
	<g>
		<path d="M158.3,64.4c-0.5-0.7-0.5-0.2-0.1,1.6c-0.2,0.2-0.1,0.2,0.1-0.1c-0.2,0.1,0.5-0.2,0.5-0.3c0.3-0.1,1.8-0.4,2.5-0.6
			c2.2-0.5,4.4-0.9,6.6-1.2c4.3-0.7,8.6-1.1,13-1.3c1.6-0.1,3-1.3,3-3c0-1.6-1.4-3.1-3-3c-5.8,0.3-11.7,1-17.4,2
			c-2.6,0.5-5.5,0.8-7.9,2c-2.4,1.2-4.4,4.4-2.5,6.9c1,1.3,2.6,2,4.1,1.1C158.6,67.8,159.3,65.8,158.3,64.4L158.3,64.4z"/>
	</g>
</g>
<g>
	<g>
		<path d="M115.8,159.9c-3.4-6.3-6.8-12.6-10.1-19c-1.4-2.7-3-5.4-4-8.3c-0.8-2.3-1.5-5.1-0.6-7.3c0.1-0.2,0.2-0.5,0.4-0.7
			c0,0.1,0.6-0.9,0.3-0.5c0.2-0.2,0.3-0.4,0.5-0.5c0.1-0.1,0.6-0.5,0.2-0.2c1-0.8,1.3-0.8,2.6-1.1c0.8-0.2-0.5,0,0.4,0
			c0.3,0,0.5,0,0.8,0c0.3,0,0.5,0,0.8,0c-0.6-0.1,0.3,0.1,0.4,0.1c0.2,0,0.4,0.1,0.6,0.2c0,0,0.9,0.4,0.4,0.1
			c0.2,0.1,0.4,0.2,0.6,0.4c0.1,0.1,0.3,0.2,0.4,0.2c-0.2-0.2-0.2-0.2,0.1,0.1c1.4,1.3,1.9,3.1,1.7,5.1c-0.2,2.1-1.3,4.4-2.6,6.1
			c-1.9,2.5-4.6,4.2-7.2,5.9c-3,2-6,4-8.7,6.4c-1.6,1.5-0.8,4.5,1.3,5c15.8,3.9,31.8,6.4,48,7.6c1.6,0.1,3-1.5,3-3
			c0-1.7-1.4-2.9-3-3c-15.7-1.1-31.2-3.6-46.4-7.4c0.4,1.7,0.9,3.3,1.3,5c4.9-4.7,11.7-7.2,16-12.6c4.1-5.2,6.1-12.9,1.6-18.4
			c-3.9-4.7-11.6-4.8-16.1-0.9c-6,5.1-3.4,13.7-0.5,19.7c4,8.2,8.4,16.2,12.7,24.2C112.4,166.3,117.6,163.3,115.8,159.9L115.8,159.9
			z"/>
	</g>
</g>
<g>
	<g>
		<path d="M125.8,128.3c-2.2,6.4,0.6,13.6,6,17.4c2.8,2,6.8,2.9,10.1,1.7c4.1-1.5,5.5-5.4,6.5-9.3c1.2-4.6,1.9-9.3,2-14
			c0-1.6-1.4-3.1-3-3c-1.7,0.1-3,1.3-3,3c-0.1,3.4-0.4,6.6-1.1,9.8c-0.4,1.6-0.8,3.3-1.3,4.9c-0.4,1.2-0.6,2-1.5,2.7
			c0.3-0.3-0.2,0.1-0.3,0.2c-0.4,0.2,0.2,0-0.3,0.1c-0.2,0-0.4,0.1-0.6,0.1c0.1,0,0.4,0,0.1,0c-0.3,0-0.7,0-1,0
			c-0.1,0-0.6-0.1-0.1,0c-0.1,0-0.3-0.1-0.4-0.1c-0.3-0.1-0.6-0.1-0.9-0.2c-0.1,0-1-0.4-0.5-0.2c-0.3-0.1-0.6-0.3-0.8-0.4
			c-0.3-0.2-0.5-0.3-0.8-0.5c-0.5-0.3,0.2,0.2-0.2-0.2c-0.5-0.4-0.9-0.9-1.3-1.3c-0.4-0.4,0.1,0.2-0.2-0.2c-0.2-0.3-0.4-0.5-0.5-0.8
			c-0.1-0.2-0.3-0.5-0.4-0.7c-0.1-0.2-0.2-0.3-0.2-0.5c0-0.1-0.2-0.6-0.1-0.3c0.1,0.3,0-0.1,0-0.1c-0.1-0.2-0.1-0.3-0.2-0.5
			c-0.1-0.3-0.2-0.7-0.3-1c-0.1-0.3-0.1-0.6-0.2-0.9c-0.1-0.5,0,0.5,0,0c0-0.2,0-0.4,0-0.5c0-0.7,0-1.3,0.1-2
			c-0.1,0.6,0.1-0.3,0.1-0.5c0.1-0.3,0.2-0.7,0.3-1c0.5-1.5-0.6-3.3-2.1-3.7C127.8,125.8,126.3,126.7,125.8,128.3L125.8,128.3z"/>
	</g>
</g>
<g>
	<g>
		<path d="M155.8,144.9c4.9-6.3,9.3-13.3,12-20.8c1.6-4.4,2.6-9.3,1.9-14c-0.8-5-5.6-10.2-11.1-9.8c-3.4,0.3-4.9,2.7-5.3,5.8
			c-0.4,4,0.3,8.2,0.8,12.1c0.6,5,1.1,10.1,2.2,15c0.7,3.1,1.7,6.1,2.8,9c1.5,3.8,3,8,5.7,11.1c1.4,1.6,3.3,2.7,5.4,2.2
			c3.2-0.8,4.3-4.6,5-7.5c0.4-1.6-0.5-3.2-2.1-3.7c-1.5-0.4-3.3,0.5-3.7,2.1c-0.2,0.9-0.5,2.1-0.8,2.8c-0.1,0.2-0.2,0.4-0.3,0.6
			c-0.1,0.1-0.1,0.1-0.1,0.1c0,0-0.1,0.1-0.1,0.1c0.3-0.3,0.7-0.5,1.1-0.4c-0.5,0,0.7,0.2,0.3,0.1c0.3,0.1,0.5,0.4,0,0
			c-0.3-0.2,0.5,0.6,0.1,0.1c-0.1-0.1-0.2-0.2-0.3-0.3c-0.2-0.2-0.4-0.4-0.5-0.6c0.5,0.6-0.2-0.3-0.3-0.5c-0.8-1.3-1.5-2.6-2.2-4
			c-0.2-0.3-0.3-0.7-0.5-1c-0.1-0.2-0.1-0.3-0.2-0.5c0.2,0.5,0,0-0.1-0.2c-0.3-0.7-0.6-1.4-0.8-2.1c-2.3-6.2-3.6-12.5-4.4-18.9
			c-0.5-4.4-1.2-8.8-1.3-13.2c0-0.6,0-1.2,0-1.7c0-0.1,0.1-0.9,0-0.3c-0.1,0.6,0.1-0.2,0.1-0.3c0-0.1,0.1-0.3,0.1-0.4
			c0,0.1-0.4,0.7-0.1,0.3c0.3-0.5-0.4,0.5-0.2,0.3c0.2-0.2,0.6-0.5-0.3,0.2c0.1-0.1,0.4-0.2,0,0c0.1,0,0.6-0.1,0.1,0
			c0.5-0.1,0.3,0,0.1,0c1,0.3,1.6,0.5,2.5,1.1c1.3,1,2.1,2.7,2.3,4c0.5,3.8-0.4,7.2-1.7,10.8c-2.5,7-6.9,13.7-11.5,19.7
			c-1,1.3-0.2,3.4,1.1,4.1C153.3,146.8,154.8,146.1,155.8,144.9L155.8,144.9z"/>
	</g>
</g>
<g>
	<g>
		<path d="M176.6,136c6.7-1.2,13.9-4.3,18.9-9c2.5-2.4,3.7-5.8,2.7-9.2c-0.8-2.8-2.9-5.3-5.6-6.5c-6.7-2.9-14,1.3-16.9,7.4
			c-2.8,5.7-4.1,14.4,1.2,19.1c3,2.6,7.2,3.8,11.2,4.1c4.1,0.3,8-0.5,11.7-2.1c1.5-0.7,1.8-2.8,1.1-4.1c-0.9-1.5-2.6-1.7-4.1-1.1
			c-4.3,1.9-9.9,2-14.1-0.1c-2-1-3.1-2.3-3.4-4.3c-0.3-2.4,0.2-4.7,1-7c0.7-1.9,1.8-3.9,3.4-5.2c1.5-1.2,3.5-1.9,5.4-1.6
			c-0.3,0,1.1,0.3,0.8,0.2c0.2,0.1,0.5,0.2,0.7,0.4c0.1,0.1,0.6,0.4,0.3,0.2c0.2,0.1,0.3,0.3,0.5,0.4c0,0,0.6,0.8,0.3,0.4
			c0.1,0.2,0.2,0.3,0.3,0.5c0,0,0.4,0.8,0.2,0.4c0.1,0.2,0.2,0.5,0.2,0.7c0,0.1,0.1,0.8,0.1,0.3c0,0.2,0,0.4,0,0.6
			c0.1,0.7,0.2-0.3,0,0.4c-0.2,0.8-0.7,1.4-1.6,2.2c-4.3,3.9-10.3,6.2-15.9,7.2c-1.6,0.3-2.5,2.2-2.1,3.7
			C173.3,135.6,175,136.3,176.6,136L176.6,136z"/>
	</g>
</g>
<g>
	<g>
		<path d="M216.3,105.9c-3.5-3.8-9.6-3.5-13.4-0.3c-3.8,3.3-4.8,9.3-3.1,13.9c1,2.8,2.8,4.8,5.6,5.9c2.1,0.8,4.4,0.8,6.6,0.7
			c1.1-0.1,2.2-0.1,3.2-0.2c0.4,0,0.9,0,1.3,0c0.3,0,0-0.1,0,0.1c0.7,2.2,1,4.7,0.6,6.9c-0.2,1.1-0.6,2.2-1.2,3.2
			c-0.4,0.7-1,1.2-1.8,1.7c-0.6,0.3-1.7,0.6-2.1,0.7c-0.2,0-0.4,0-0.6,0c-0.7,0,0.2,0.1-0.4-0.1c0.1,0-0.8-0.3-0.5-0.2
			c0.4,0.2-0.8-0.5-0.4-0.2c-1.3-1-3-1.2-4.2,0c-1,1-1.3,3.2,0,4.2c4,3.2,9.4,2.6,13.2-0.7c4.2-3.6,4.6-9.7,3.7-14.7
			c-0.5-2.8-1.5-5.8-4.6-6.6c-2.3-0.6-4.7-0.1-7.1-0.1c-0.9,0-2.1,0-2.7-0.1c-0.4-0.1-1.1-0.3-1.2-0.3c-0.2-0.1-0.8-0.5-0.8-0.5
			c-1.4-1.3-1.6-3.5-1.4-5.3c0.2-1.9,1.2-3.8,2.9-4.6c1.3-0.6,3.1-0.5,4.1,0.7C214.7,113,218.9,108.7,216.3,105.9L216.3,105.9z"/>
	</g>
</g>
</svg>
