<?xml version="1.0" encoding="utf-8"?>
<!-- Generator: Adobe Illustrator 23.0.6, SVG Export Plug-In . SVG Version: 6.00 Build 0)  -->
<svg version="1.1" id="Слой_1" xmlns="http://www.w3.org/2000/svg" xmlns:xlink="http://www.w3.org/1999/xlink" x="0px" y="0px"
	 viewBox="0 0 214.1 186.5" enable-background="new 0 0 214.1 186.5" xml:space="preserve">
<g>
	<g>
		<path d="M38,19.4c-0.4,0.9-0.5,1.6-0.4,2.4l0.4,2.3l0.8,4.5l1.4,9c0.9,6,1.7,12.1,2.5,18.1c0.8,6,1.5,12.1,2,18.2
			c0.5,6.1,0.9,12.2,0.5,18.6c-0.1,1.4-1.3,2.5-2.8,2.4c-1.4-0.1-2.5-1.3-2.4-2.8c0,0,0,0,0,0l0-0.2c0.1-1.4,0.3-2.9,0.4-4.3
			c0-1.5,0.1-3,0.1-4.4l-0.1-4.5l-0.2-4.5c-0.4-6-0.9-12-1.5-18.1c-0.6-6-1.4-12-2.3-18l-1.3-9l-0.7-4.5c-0.3-1.5-0.1-3.1-1.5-4.3
			c-1.2-1.2-1.3-3.2-0.1-4.4c1.2-1.2,3.2-1.3,4.4-0.1C38.4,16.7,38.6,18.2,38,19.4z"/>
	</g>
	<path fill="none" stroke="#000000" stroke-width="5" stroke-linecap="round" stroke-miterlimit="10" d="M27.6,28.5
		c0,0,15.1-27.2,20.8-20.8S58.8,30.2,39.3,44"/>
	<g>
		<path d="M59.3,16.1c2.3,10.7,4.5,21.5,6.4,32.3c1,5.4,1.8,10.9,2.6,16.4c0.7,5.5,1.4,11,1.5,16.8c0,2.3-1.8,4.2-4.1,4.2
			c-2.3,0-4.2-1.8-4.2-4.1c0-0.1,0-0.3,0-0.4l0,0c0.4-5.1,0.3-10.6,0.1-16c-0.2-5.4-0.5-10.9-0.9-16.3c-0.8-10.9-1.9-21.8-3.1-32.7
			l0,0c-0.1-0.5,0.3-0.9,0.7-0.9C58.8,15.4,59.2,15.7,59.3,16.1z"/>
	</g>
	<g>
		<path d="M87.5,19.2c0.5,5.2,1,10.4,1.4,15.6c0.4,5.2,0.8,10.4,1.2,15.6c0.3,5.2,0.6,10.4,0.8,15.6c0.2,5.2,0.3,10.4,0.2,15.6
			c0,0.2-0.2,0.4-0.4,0.4c-0.2,0-0.4-0.2-0.4-0.4c-0.5-5.1-1.2-10.3-2-15.4c-0.8-5.1-1.7-10.2-2.6-15.3c-0.9-5.1-1.9-10.2-2.9-15.2
			c-1-5.1-2.1-10.1-3.2-15.2l0,0c-0.5-2.2,0.9-4.3,3.1-4.8s4.3,0.9,4.8,3.1C87.5,18.9,87.5,19.1,87.5,19.2z"/>
	</g>
	<path fill="none" stroke="#000000" stroke-width="5" stroke-linecap="round" stroke-miterlimit="10" d="M65.7,59.7
		c0,0,9.2-9.7,22.9-3.6"/>
	<g>
		<path d="M98.7,6.6c1.1,6.3,2.1,12.6,3,19c0.9,6.3,1.7,12.7,2.5,19c1.4,12.7,2.6,25.5,2.7,38.4c0,1.4-1.1,2.5-2.5,2.5
			c-1.4,0-2.5-1.1-2.5-2.5l0,0l0,0c0-6.3-0.3-12.6-0.7-18.9c-0.4-6.3-1-12.6-1.7-18.9c-0.7-6.3-1.5-12.6-2.3-18.9
			c-0.9-6.3-1.8-12.6-2.9-18.8l0,0c-0.2-1.2,0.6-2.4,1.8-2.6C97.3,4.5,98.5,5.3,98.7,6.6z"/>
	</g>
	<path fill="none" stroke="#000000" stroke-width="5" stroke-linecap="round" stroke-miterlimit="10" d="M90.7,19.9
		c0,0,20.1-28,25.1-12.9c5,15.1,0.7,30.8-17.9,42.3"/>
	<g>
		<path d="M13.8,162.2c-0.2-0.8-0.3-1.2-0.4-1.8c-0.1-0.5-0.2-1.1-0.3-1.6c-0.2-1.1-0.3-2.1-0.4-3.2c-0.2-2.1-0.3-4.2-0.3-6.3
			c0-4.2,0.2-8.3,0.6-12.3c0.5-4.1,1-8.1,1.8-12.1c0.4-2,0.8-4,1.3-6c0.4-2,0.9-4,1.6-6.1c0.2-0.5,0.4-1.1,0.6-1.7
			c0.3-0.6,0.5-1.2,1.2-2.1c0.1-0.2,0.5-0.5,0.8-0.8c0.1-0.1,0.4-0.3,0.7-0.4c0.3-0.1,0.5-0.2,1-0.3c0.4-0.1,0.9-0.1,1.3,0
			c0.4,0.1,0.7,0.2,1.1,0.4c0.3,0.2,0.4,0.3,0.7,0.5c0.1,0.1,0.2,0.2,0.3,0.3c0.1,0.1,0.1,0.1,0.2,0.2c0.5,0.6,0.7,1,0.9,1.3
			l0.2,0.5l0.2,0.5c0.4,1.2,0.6,2.3,0.8,3.3c0.2,1.1,0.3,2.1,0.5,3.1c0.5,4.1,0.8,8.1,1.1,12.1c0.5,8,0.7,16,0.8,24v0l-5-0.2
			c1.1-8.5,2.4-17,3.8-25.4c0.7-4.2,1.5-8.4,2.3-12.6c0.4-2.1,0.9-4.2,1.4-6.3c0.3-1,0.6-2.1,0.9-3.1c0.2-0.5,0.4-1,0.6-1.5
			c0.1-0.2,0.3-0.5,0.4-0.7c0.2-0.2,0.4-0.5,0.8-0.6c0.1,0,0.3,0.1,0.3,0.2c0,0.1-0.1,0.2-0.2,0.3l0,0c-0.1,0-0.3,0.2-0.4,0.4
			c-0.1,0.2-0.2,0.4-0.3,0.7c-0.2,0.5-0.3,1-0.5,1.5c-0.3,1-0.5,2.1-0.6,3.1c-0.4,2.1-0.6,4.2-0.9,6.3c-0.5,4.2-0.9,8.5-1.2,12.7
			c-0.7,8.5-1.1,17-1.5,25.5l-5-0.2l0,0c-0.3-7.9-0.8-15.8-1.5-23.7c-0.4-3.9-0.8-7.8-1.4-11.6c-0.2-0.9-0.3-1.9-0.5-2.8
			c-0.2-0.9-0.4-1.8-0.7-2.4l-0.1-0.2l-0.1-0.1c0-0.1-0.1-0.1,0.1,0.1c0,0,0,0,0.1,0.1c0,0,0.1,0.1,0.1,0.1c0.1,0.1,0.2,0.1,0.4,0.2
			c0.2,0.1,0.5,0.2,0.7,0.3c0.3,0,0.6,0.1,0.9,0c0.3-0.1,0.5-0.1,0.7-0.2c0.2-0.1,0.4-0.2,0.4-0.2c0.1-0.1,0.3-0.3,0.3-0.2
			c0.1-0.1-0.1,0.2-0.2,0.5c-0.1,0.3-0.3,0.7-0.4,1.1c-0.5,1.7-0.9,3.5-1.3,5.5c-0.4,1.9-0.8,3.8-1,5.8c-0.7,3.8-1.1,7.7-1.4,11.6
			c-0.3,3.9-0.4,7.7-0.2,11.5c0.1,1.9,0.2,3.8,0.4,5.6c0.1,0.9,0.2,1.8,0.4,2.7c0.1,0.4,0.2,0.9,0.3,1.3c0.1,0.4,0.2,0.9,0.3,1.1
			l0,0c0.7,2.1-0.5,4.3-2.5,4.9c-2.1,0.7-4.3-0.5-4.9-2.5C13.9,162.3,13.9,162.2,13.8,162.2z"/>
	</g>
	<path fill="none" stroke="#000000" stroke-width="5" stroke-linecap="round" stroke-miterlimit="10" d="M46.3,119.5
		c0,0-13.6,10-7.2,26.5s14.3-13.6,14.3-13.6S51.3,113.8,46.3,119.5z"/>
	<path fill="none" stroke="#000000" stroke-width="5" stroke-linecap="round" stroke-miterlimit="10" d="M62,97.3
		c0,0-5.7,34.4-3.6,42.3"/>
	<path fill="none" stroke="#000000" stroke-width="5" stroke-linecap="round" stroke-miterlimit="10" d="M40.5,107.3
		c0,0,17.9-8.6,30.1-10"/>
	<g>
		<path d="M1.4,180.7c5.9-4.2,11.9-8.1,18-12.1c6-3.9,12.2-7.7,18.4-11.4c6.2-3.7,12.5-7.2,18.9-10.5c6.5-3.3,13-6.4,20.1-8.5
			c0.8-0.2,1.6,0.2,1.8,1c0.2,0.8-0.2,1.6-0.9,1.8l0,0c-6.6,2.3-12.9,5.6-19.1,9.1c-6.2,3.5-12.3,7.2-18.2,11.1
			c-6,3.9-11.9,7.9-17.7,12c-5.8,4.1-11.6,8.3-17.3,12.6l0,0c-1.4,1.1-3.4,0.8-4.5-0.6c-1.1-1.4-0.8-3.4,0.6-4.5
			C1.3,180.8,1.3,180.7,1.4,180.7z"/>
	</g>
	<g>
		<path d="M101.5,107.2c0.6,12.7,1.1,25.4,1.3,38.2c0.1,6.4,0.2,12.7,0.1,19.1c-0.1,3.2-0.2,6.4-0.4,9.6c-0.1,1.6-0.2,3.2-0.5,4.9
			c-0.1,0.8-0.2,1.6-0.4,2.5c-0.1,0.4-0.2,0.9-0.4,1.3c-0.1,0.3-0.2,0.5-0.3,0.8c-0.1,0.1-0.1,0.3-0.2,0.4c-0.1,0.2-0.3,0.4-0.4,0.5
			c-0.7,0.7-1.8,0.7-2.5,0c-0.7-0.7-0.7-1.8,0-2.5c0,0,0,0-0.1,0c0,0,0-0.1,0-0.1c0-0.1,0.1-0.2,0.1-0.3c0.1-0.3,0.2-0.6,0.2-1
			c0.1-0.7,0.2-1.4,0.3-2.2c0.2-1.5,0.3-3.1,0.3-4.6c0.1-3.1,0.2-6.3,0.2-9.4c0-6.3-0.2-12.7-0.4-19c-0.5-12.7-1.2-25.4-2-38l0,0
			c-0.1-1.4,0.9-2.6,2.3-2.7C100.2,104.7,101.4,105.7,101.5,107.2C101.5,107.1,101.5,107.1,101.5,107.2z"/>
	</g>
	<g>
		<path d="M86.9,112.2c2-1.6,4.1-3,6.3-4.3c2.2-1.2,4.6-2.3,7.1-3c2.5-0.7,5.2-1.1,7.9-1c2.8,0.1,5.5,1,8,2.4
			c2.5,1.4,4.5,3.4,6.1,5.6c1.6,2.2,2.9,4.6,3.9,7.1c1,2.5,1.7,5.1,2.1,7.8c0.4,2.7,0.4,5.4,0.2,8.1c-0.2,2.7-0.8,5.3-1.5,7.9
			c-0.8,2.5-1.7,5-2.8,7.4c-2.3,4.7-5.2,9.1-8.5,13.1c-3.3,4-7,7.6-11.2,10.7c-4.2,3-8.7,5.6-13.7,7.1c-1.3,0.4-2.8-0.3-3.2-1.7
			c-0.3-1,0.1-2.1,0.9-2.8l0.1,0l5.7-4.3c1.9-1.4,3.7-2.9,5.4-4.4c3.5-3.1,7-6.2,10.1-9.7c3.1-3.5,5.8-7.3,7.9-11.3
			c1.1-2,2-4.1,2.7-6.2c0.7-2.1,1.3-4.3,1.6-6.5c0.3-2.2,0.4-4.4,0.2-6.6c-0.2-2.2-0.6-4.4-1.3-6.5c-1.5-4.2-3.7-8.3-7.1-10.6
			c-1.7-1.2-3.7-2-5.8-2.3c-2.1-0.3-4.4-0.2-6.7,0.2c-2.3,0.4-4.5,1.1-6.7,2.1c-2.2,0.9-4.4,2-6.3,3.3l0,0c-0.5,0.3-1.1,0.2-1.4-0.3
			C86.4,113.1,86.5,112.5,86.9,112.2z"/>
	</g>
	<g>
		<path d="M156.3,93.3c-3.9,5.4-8.4,10.1-13.3,14.5c-2.4,2.2-5,4.2-7.8,6.1c-0.7,0.5-1.5,0.9-2.2,1.3c-0.4,0.2-0.7,0.4-0.9,0.7
			c-0.4,0.5-0.6,1.9-0.6,3.3c0.1,1.4,0.4,3,0.7,4.6c0.3,1.6,0.7,3.1,1.2,4.7c0.9,3.1,1.8,6.3,2.6,9.5c1.6,6.4,2.9,13.1,3,19.9
			c0.1,3.4-0.1,6.8-0.5,10.1c-0.5,3.3-1.1,6.6-2.1,10.1c-0.3,0.9-0.6,1.8-1,2.8c-0.1,0.3-0.2,0.5-0.4,0.9c-0.1,0.2-0.2,0.4-0.4,0.6
			c-0.1,0.1-0.2,0.3-0.4,0.5c-0.2,0.2-0.4,0.5-1.1,1c-0.3,0.2-0.6,0.3-1,0.5c-0.9,0.2-1.4,0.3-2.6-0.1c-1.3-0.5-1.8-1.2-2.2-1.7
			c-0.5-0.8-0.4-0.8-0.5-1.3c-0.2-1.1-0.1-1.3-0.1-1.6c0.1-0.5,0.1-0.8,0.2-1c0.1-0.5,0.3-0.8,0.4-1.1c0.5-1.2,1-2,1.6-2.9
			c0.6-0.8,1.2-1.6,1.9-2.3c2.6-2.8,5.7-4.9,8.9-6.6c6.5-3.2,13.4-4.6,20.2-5c6.8-0.4,13.5,0.2,20,1.4c1.4,0.3,2.3,1.6,2,2.9
			c-0.2,1.2-1.3,2.1-2.5,2l0,0c-6.4-0.2-12.7-0.1-18.8,0.7c-6.1,0.8-12,2.3-17.1,5.1c-2.5,1.4-4.8,3.1-6.5,5c-0.4,0.5-0.8,1-1.2,1.5
			c-0.3,0.5-0.6,1-0.8,1.3c0,0.1-0.1,0.1,0,0.1c0,0,0-0.1,0.1-0.4c0,0,0-0.2,0-0.4c0,0,0-0.3,0-0.4c0-0.1,0-0.2-0.1-0.6
			c-0.1-0.4-0.1-0.4-0.5-1.2c-0.4-0.5-0.9-1.2-2.1-1.7c-1.2-0.4-1.7-0.3-2.5-0.1c-0.4,0.1-0.7,0.2-1,0.4c-0.7,0.4-0.8,0.6-0.9,0.8
			c-0.1,0.1-0.1,0.2-0.2,0.2c0,0.1-0.1,0.1,0,0.1l0.1-0.2c0.2-0.5,0.4-1.1,0.6-1.8c0.8-2.7,1.4-5.8,1.9-8.9c0.5-3,1-6.1,1.3-9.2
			c0.7-6.2,0.9-12.5,0.1-18.8c-0.4-3.2-1-6.3-1.8-9.4c-0.8-3.1-1.9-6.1-2.6-9.6c-0.2-0.9-0.3-1.8-0.3-2.9c0-1,0.2-2.2,0.7-3.3
			c0.5-1.2,1.5-2.2,2.4-2.8c0.6-0.5,1.2-0.9,1.8-1.4c2.5-1.9,5-3.9,7.5-5.8c5.1-3.8,10.3-7.7,16.1-11l0,0c0.3-0.1,0.6-0.1,0.7,0.2
			C156.4,93,156.4,93.2,156.3,93.3z"/>
	</g>
	<path fill="none" stroke="#000000" stroke-width="5" stroke-linecap="round" stroke-miterlimit="10" d="M151.6,134.5
		c0,0-12.2,1.4-17.2,7.9"/>
	<g>
		<path d="M157.3,154.1l9.1-61.5l2.1-14.1l2.9,14l12.5,61.3c0.5,2.3-1,4.6-3.3,5c-2.3,0.5-4.6-1-5-3.3c0-0.1,0-0.2,0-0.2l-9-61.9
			l4.9-0.1l-6.7,61.8c-0.2,2-2.1,3.5-4.1,3.3s-3.5-2.1-3.3-4.1C157.3,154.2,157.3,154.2,157.3,154.1z"/>
	</g>
	<g>
		<path d="M154,123c1.9-1.1,3.9-2,6-2.8c2-0.8,4.1-1.4,6.3-2c2.1-0.5,4.3-1,6.5-1.2c1.1-0.1,2.3-0.1,3.4,0c0.6,0,1.2,0.1,1.7,0.2
			c0.6,0.1,1.2,0.3,1.7,0.5c0.6,0.2,0.9,0.8,0.7,1.4c-0.1,0.3-0.3,0.5-0.6,0.6l-0.1,0.1c-0.5,0.2-1,0.4-1.5,0.6
			c-0.5,0.2-1,0.4-1.5,0.5c-1,0.4-2,0.7-3,1c-2,0.6-4,1.1-6.1,1.6c-2,0.5-4.1,1-6.2,1.4c-2.1,0.4-4.2,0.8-6.3,1l0,0
			c-0.9,0.1-1.7-0.6-1.8-1.5C153.1,123.9,153.4,123.3,154,123z"/>
	</g>
	<g>
		<path d="M187,85.8c1.3,3.8,2.3,7.5,3.3,11.2c0.9,3.8,1.8,7.6,2.4,11.4c1.3,7.7,2.2,15.4,2.4,23.3c0.1,3.9,0,7.8-0.2,11.8
			c-0.1,2-0.3,3.9-0.5,5.9l-0.2,1.5l-0.1,0.7l-0.1,0.7c-0.1,0.9-0.2,1.7-0.2,2.6c0,0.9,0,1.7,0,2.5c0,0.8,0.1,1.5,0.3,1.9
			c0,0.2,0.1,0.2-0.2-0.2c-0.1-0.1-0.2-0.2-0.4-0.3c-0.2-0.2-0.5-0.2-0.7-0.3c-0.2-0.1-0.5-0.1-0.7-0.1c-0.1,0-0.3,0-0.4,0
			c-0.3,0.1-0.2,0.1,0-0.1c0.2-0.1,0.4-0.3,0.7-0.5c1-1,2.1-2.3,3.1-3.8c1-1.4,1.9-3,2.8-4.5c3.5-6.3,6-13.3,7.6-20.4
			c0.7-3.6,1.2-7.1,1.4-10.8c0.2-3.7,0.1-7.3-0.3-10.9c-0.4-3.6-1.1-7.1-2.5-10.1c-0.7-1.5-1.5-2.9-2.5-4c-0.5-0.6-1-1-1.6-1.4
			c-0.6-0.4-1.2-0.7-1.9-1c-1.5-0.6-3.2-1-5-1.3c-1.8-0.3-3.5-0.6-5.3-0.7c-3.6-0.2-7.1,0.1-10.7,0.9l0,0c-1.3,0.3-2.7-0.6-3-1.9
			c-0.3-1.3,0.5-2.6,1.8-3c3.9-1.1,8-1.6,12.1-1.6c2,0,4.1,0.2,6.1,0.5c1.9,0.3,4,0.6,6.1,1.4c1.1,0.4,2.2,0.9,3.2,1.5
			c1,0.7,2,1.4,2.8,2.2c1.6,1.7,2.9,3.6,3.8,5.6c1.8,3.9,2.7,8,3.3,12c0.5,4,0.7,8,0.6,12c-0.1,4-0.5,8-1.3,12
			c-1.6,7.9-4.2,15.4-8.1,22.6c-1,1.8-2,3.5-3.2,5.2c-1.2,1.7-2.4,3.4-4.2,5c-0.5,0.4-0.9,0.8-1.6,1.2c-0.6,0.4-1.4,0.9-2.6,1.2
			c-0.4,0.1-0.7,0.1-1.1,0.1c-0.5,0-1-0.1-1.4-0.2c-0.5-0.1-0.9-0.4-1.3-0.6c-0.4-0.3-0.6-0.5-1-0.8c-0.3-0.3-0.4-0.5-0.6-0.8
			l-0.2-0.4c-0.1-0.1-0.1-0.2-0.2-0.3c-0.1-0.2-0.2-0.4-0.3-0.6l-0.2-0.6c-0.4-1.5-0.5-2.6-0.6-3.7c-0.1-1.1,0-2.2,0-3.2
			c0-1.1,0.1-2.1,0.3-3.1l0.3-2.8c0.2-1.8,0.5-3.7,0.5-5.5c0.3-3.7,0.3-7.4,0.4-11.1c0-7.5-0.6-14.9-1.5-22.4
			c-0.4-3.7-1-7.4-1.7-11.2c-0.6-3.7-1.4-7.4-2.3-11l0-0.1c-0.3-1.3,0.5-2.7,1.9-3C185.3,83.9,186.6,84.6,187,85.8z"/>
	</g>
</g>
<g>
	<g>
		<path fill="#777BB3" d="M40.2,21.7c-0.4,0.8-0.5,1.6-0.4,2.3l0.4,2.2l0.7,4.4l1.4,8.7c0.9,5.8,1.7,11.7,2.5,17.5
			c0.8,5.9,1.4,11.7,2,17.7c0.5,5.9,0.9,11.8,0.5,18.1c-0.1,1.4-1.3,2.5-2.8,2.4c-1.4-0.1-2.5-1.3-2.4-2.8c0,0,0,0,0,0l0-0.2
			c0.1-1.4,0.3-2.8,0.4-4.2c0-1.4,0.1-2.9,0.1-4.3l0-4.3l-0.2-4.4C42,69,41.5,63.1,40.9,57.3c-0.6-5.8-1.4-11.7-2.2-17.5l-1.3-8.7
			l-0.7-4.4c-0.3-1.4-0.1-3-1.5-4.2c-1.3-1.2-1.4-3.2-0.2-4.4c1.2-1.3,3.2-1.4,4.4-0.2C40.6,18.9,40.8,20.4,40.2,21.7z"/>
	</g>
	<path fill="none" stroke="#777BB3" stroke-width="5" stroke-linecap="round" stroke-miterlimit="10" d="M30.1,30.4
		c0,0,14.6-26.4,20.1-20.1s10,21.8-8.9,35.2"/>
	<g>
		<path fill="#777BB3" d="M60.8,18.5C63,28.9,65.1,39.3,67,49.8c0.9,5.3,1.8,10.5,2.5,15.9C70.2,71,70.9,76.3,71,82
			c0,2.3-1.8,4.2-4,4.2s-4.2-1.8-4.2-4c0-0.1,0-0.3,0-0.4l0,0c0.4-4.9,0.3-10.2,0.2-15.5c-0.2-5.2-0.5-10.5-0.9-15.8
			c-0.8-10.6-1.8-21.1-3-31.7l0,0c-0.1-0.5,0.3-0.9,0.7-0.9C60.3,17.8,60.7,18.1,60.8,18.5z"/>
	</g>
	<g>
		<path fill="#777BB3" d="M88.2,21.5c0.5,5,0.9,10.1,1.3,15.1c0.4,5,0.8,10,1.1,15.1c0.3,5,0.6,10.1,0.8,15.1
			c0.2,5,0.3,10.1,0.2,15.1c0,0.2-0.2,0.4-0.4,0.4c-0.2,0-0.4-0.2-0.4-0.4c-0.5-5-1.2-9.9-2-14.9c-0.8-4.9-1.7-9.9-2.6-14.8
			c-0.9-4.9-1.9-9.8-2.9-14.7c-1-4.9-2-9.8-3.1-14.7l0,0c-0.5-2.2,0.9-4.3,3.1-4.8c2.2-0.5,4.3,0.9,4.8,3.1
			C88.2,21.1,88.2,21.3,88.2,21.5z"/>
	</g>
	<path fill="none" stroke="#777BB3" stroke-width="5" stroke-linecap="round" stroke-miterlimit="10" d="M66.9,60.7
		c0,0,9-9.4,22.2-3.5"/>
	<g>
		<path fill="#777BB3" d="M99,9.2c1.1,6.1,2,12.2,2.9,18.4c0.9,6.1,1.7,12.3,2.4,18.4c1.4,12.3,2.5,24.7,2.6,37.2
			c0,1.4-1.1,2.5-2.5,2.5c-1.4,0-2.5-1.1-2.5-2.5l0,0v0c0-12.2-1-24.5-2.3-36.7c-0.7-6.1-1.4-12.2-2.3-18.3
			C96.5,22.1,95.6,16,94.5,10l0,0c-0.2-1.2,0.6-2.4,1.8-2.6C97.6,7.2,98.8,8,99,9.2z"/>
	</g>
	<path fill="none" stroke="#777BB3" stroke-width="5" stroke-linecap="round" stroke-miterlimit="10" d="M91.2,22.1
		c0,0,19.5-27.1,24.3-12.5s0.7,29.9-17.4,41"/>
	<g>
		<path fill="#777BB3" d="M16.6,160.1c-0.2-0.7-0.3-1.2-0.4-1.8c-0.1-0.5-0.2-1.1-0.3-1.6c-0.2-1-0.3-2.1-0.4-3.1
			c-0.2-2-0.3-4.1-0.3-6.1c0-4,0.2-8,0.6-12c0.5-3.9,1-7.9,1.8-11.7c0.3-1.9,0.8-3.9,1.2-5.8c0.4-1.9,0.9-3.9,1.6-5.9
			c0.2-0.5,0.4-1,0.6-1.6c0.3-0.6,0.5-1.1,1.2-2c0.1-0.2,0.5-0.5,0.8-0.8c0.1-0.1,0.4-0.3,0.7-0.4c0.3-0.1,0.5-0.2,1-0.3
			c0.4-0.1,0.9-0.1,1.3,0c0.4,0.1,0.7,0.2,1.1,0.4c0.3,0.2,0.4,0.3,0.7,0.5c0.1,0.1,0.2,0.2,0.3,0.3c0.1,0.1,0.1,0.1,0.2,0.2
			c0.5,0.6,0.7,0.9,0.9,1.3l0.2,0.5l0.2,0.5c0.4,1.2,0.6,2.2,0.8,3.3c0.2,1,0.3,2,0.5,3c0.5,4,0.8,7.8,1,11.7
			c0.4,7.8,0.7,15.5,0.7,23.3l0,0l-5-0.2c1.1-8.2,2.3-16.4,3.7-24.6c0.7-4.1,1.4-8.2,2.3-12.2c0.4-2,0.9-4.1,1.4-6.1
			c0.3-1,0.6-2,0.9-3c0.2-0.5,0.4-1,0.6-1.5c0.1-0.2,0.3-0.5,0.4-0.7c0.2-0.2,0.4-0.5,0.8-0.5c0.1,0,0.3,0.1,0.3,0.2
			c0,0.1-0.1,0.2-0.2,0.3l0,0c-0.1,0-0.2,0.2-0.4,0.4c-0.1,0.2-0.2,0.4-0.3,0.6c-0.2,0.5-0.3,1-0.4,1.4c-0.2,1-0.4,2-0.6,3
			c-0.3,2-0.6,4.1-0.8,6.1c-0.5,4.1-0.8,8.2-1.1,12.3c-0.6,8.2-1.1,16.5-1.4,24.7l-5-0.2l0,0c-0.3-7.7-0.8-15.3-1.4-23
			c-0.3-3.8-0.7-7.6-1.3-11.3c-0.2-0.9-0.3-1.8-0.5-2.7c-0.2-0.9-0.4-1.7-0.6-2.3l-0.1-0.2l-0.1-0.1c0-0.1-0.1-0.1,0.1,0.1
			c0,0,0,0,0.1,0.1c0,0,0.1,0.1,0.1,0.1c0.1,0.1,0.2,0.1,0.4,0.2c0.2,0.1,0.5,0.2,0.7,0.3c0.3,0.1,0.6,0.1,0.9,0
			c0.3-0.1,0.5-0.1,0.7-0.2c0.2-0.1,0.4-0.2,0.4-0.2c0.1-0.1,0.3-0.3,0.3-0.2c0.1-0.1-0.1,0.2-0.2,0.5c-0.1,0.3-0.3,0.7-0.4,1.1
			c-0.5,1.6-0.9,3.4-1.2,5.3c-0.4,1.9-0.7,3.7-1,5.6c-0.6,3.7-1,7.5-1.3,11.2c-0.3,3.7-0.4,7.5-0.2,11.1c0.1,1.8,0.2,3.7,0.4,5.5
			c0.1,0.9,0.2,1.8,0.4,2.6c0.1,0.4,0.2,0.9,0.3,1.3c0.1,0.4,0.2,0.9,0.3,1.1l0,0c0.7,2.1-0.5,4.3-2.5,4.9c-2.1,0.7-4.3-0.5-4.9-2.5
			C16.6,160.2,16.6,160.1,16.6,160.1z"/>
	</g>
	<path fill="none" stroke="#777BB3" stroke-width="5" stroke-linecap="round" stroke-miterlimit="10" d="M48.1,118.7
		c0,0-13.2,9.7-6.9,25.7s13.9-13.2,13.9-13.2S53,113.1,48.1,118.7z"/>
	<path fill="none" stroke="#777BB3" stroke-width="5" stroke-linecap="round" stroke-miterlimit="10" d="M63.4,97.1
		c0,0-5.6,33.3-3.5,41"/>
	<path fill="none" stroke="#777BB3" stroke-width="5" stroke-linecap="round" stroke-miterlimit="10" d="M42.6,106.9
		c0,0,17.4-8.3,29.2-9.7"/>
	<g>
		<path fill="#777BB3" d="M4.6,177.9c5.8-4,11.6-7.9,17.4-11.7c5.9-3.8,11.8-7.5,17.8-11.1c6-3.6,12.1-7,18.3-10.2
			c6.3-3.2,12.6-6.2,19.4-8.3c0.8-0.2,1.6,0.2,1.8,1c0.2,0.8-0.2,1.6-0.9,1.8l0,0c-6.4,2.2-12.5,5.5-18.5,8.8
			c-6,3.4-11.9,7-17.7,10.8c-5.8,3.8-11.5,7.7-17.2,11.7c-5.6,4-11.3,8.1-16.7,12.2l0,0c-1.4,1.1-3.4,0.8-4.5-0.6
			c-1.1-1.4-0.8-3.4,0.6-4.5C4.5,178,4.5,177.9,4.6,177.9z"/>
	</g>
	<g>
		<path fill="#777BB3" d="M101.7,106.7c0.6,12.3,1,24.7,1.2,37c0.1,6.2,0.2,12.4,0.1,18.5c-0.1,3.1-0.1,6.2-0.3,9.3
			c-0.1,1.6-0.2,3.1-0.4,4.7c-0.1,0.8-0.2,1.6-0.4,2.4c-0.1,0.4-0.2,0.9-0.4,1.3c-0.1,0.3-0.2,0.5-0.3,0.8c-0.1,0.1-0.1,0.3-0.2,0.4
			c-0.1,0.2-0.3,0.3-0.4,0.5c-0.7,0.7-1.8,0.7-2.5,0c-0.7-0.7-0.7-1.8,0-2.5c0,0,0,0-0.1,0.1c0,0,0-0.1,0-0.1c0,0,0.1-0.2,0.1-0.3
			c0.1-0.3,0.2-0.6,0.2-0.9c0.1-0.7,0.2-1.4,0.3-2.1c0.2-1.5,0.3-3,0.3-4.5c0.1-3,0.2-6.1,0.2-9.1c0-6.1-0.2-12.3-0.4-18.4
			c-0.5-12.3-1.1-24.6-2-36.8l0,0c-0.1-1.4,0.9-2.6,2.3-2.7C100.5,104.2,101.6,105.3,101.7,106.7
			C101.7,106.7,101.7,106.7,101.7,106.7z"/>
	</g>
	<g>
		<path fill="#777BB3" d="M87.5,111.6c1.9-1.6,3.9-2.9,6.1-4.1c2.2-1.2,4.5-2.2,6.9-2.9c2.4-0.7,5-1.1,7.7-0.9
			c2.7,0.1,5.4,1,7.8,2.4c2.4,1.4,4.4,3.3,6,5.5c1.6,2.2,2.8,4.5,3.8,6.9c1,2.4,1.6,5,2,7.6c0.4,2.6,0.4,5.3,0.2,7.9
			c-0.2,2.6-0.7,5.2-1.5,7.7c-0.7,2.5-1.6,4.9-2.8,7.2c-2.2,4.6-5.1,8.8-8.3,12.7c-3.2,3.9-6.8,7.4-10.9,10.4
			c-4,2.9-8.5,5.4-13.3,6.9c-1.3,0.4-2.8-0.3-3.2-1.7c-0.3-1,0.1-2.1,0.9-2.8l0.1,0l5.5-4.2c1.8-1.4,3.5-2.9,5.3-4.3
			c3.4-3,6.7-6,9.7-9.4c3-3.4,5.6-7,7.6-10.9c1-1.9,1.9-4,2.6-6c0.7-2.1,1.2-4.2,1.5-6.3c0.6-4.2,0.3-8.6-1.1-12.7
			c-1.4-4.1-3.6-8-6.9-10.3c-1.6-1.1-3.5-1.9-5.6-2.2c-2.1-0.3-4.3-0.2-6.4,0.2c-2.2,0.4-4.4,1.1-6.5,2c-2.1,0.9-4.2,1.9-6.1,3.2
			l0,0c-0.5,0.3-1.1,0.2-1.4-0.3C87,112.5,87.1,111.9,87.5,111.6z"/>
	</g>
	<g>
		<path fill="#777BB3" d="M154.8,93.3c-3.7,5.3-8.1,9.8-12.8,14.1c-2.4,2.1-4.9,4.1-7.6,5.9c-0.7,0.5-1.4,0.9-2.1,1.3
			c-0.4,0.2-0.6,0.4-0.8,0.6c-0.4,0.5-0.6,1.8-0.5,3.2c0.1,1.4,0.3,2.9,0.7,4.4c0.3,1.5,0.7,3,1.1,4.6c0.9,3,1.7,6.1,2.5,9.2
			c1.6,6.2,2.8,12.7,3,19.3c0.1,3.3-0.1,6.6-0.5,9.8c-0.4,3.2-1.1,6.4-2.1,9.8c-0.3,0.9-0.6,1.7-1,2.7c-0.1,0.3-0.2,0.5-0.4,0.8
			c-0.1,0.2-0.2,0.4-0.4,0.6c-0.1,0.1-0.2,0.3-0.4,0.5c-0.2,0.2-0.4,0.5-1.1,1c-0.3,0.2-0.6,0.3-1,0.5c-0.9,0.2-1.4,0.3-2.6-0.1
			c-1.3-0.5-1.8-1.2-2.2-1.7c-0.5-0.8-0.4-0.8-0.5-1.3c-0.2-1.1-0.1-1.3-0.1-1.6c0.1-0.5,0.1-0.7,0.2-1c0.1-0.4,0.3-0.8,0.4-1.1
			c0.5-1.1,1-2,1.6-2.8c0.6-0.8,1.2-1.5,1.8-2.2c2.6-2.8,5.6-4.8,8.7-6.4c6.3-3.1,13.1-4.4,19.6-4.8c6.6-0.4,13.1,0.2,19.4,1.4
			c1.4,0.3,2.3,1.6,2,2.9c-0.2,1.2-1.3,2.1-2.5,2l0,0c-6.2-0.2-12.3-0.1-18.2,0.7c-5.9,0.8-11.6,2.3-16.5,5
			c-2.4,1.3-4.6,2.9-6.3,4.8c-0.4,0.5-0.8,1-1.1,1.4c-0.3,0.5-0.6,1-0.7,1.3c0,0.1,0,0.1,0,0.1c0,0,0-0.1,0.1-0.4c0,0,0-0.2,0-0.4
			c0,0,0-0.3,0-0.4c0-0.1,0-0.2-0.1-0.6c-0.1-0.4-0.1-0.4-0.5-1.2c-0.4-0.5-0.9-1.2-2.1-1.7c-1.2-0.4-1.7-0.3-2.5-0.1
			c-0.4,0.1-0.7,0.2-1,0.4c-0.7,0.4-0.8,0.7-0.9,0.8c-0.1,0.1-0.1,0.2-0.2,0.2c0,0.1-0.1,0.1-0.1,0.1l0.1-0.2
			c0.2-0.4,0.4-1.1,0.6-1.7c0.8-2.6,1.3-5.6,1.9-8.6c0.5-2.9,1-5.9,1.3-8.9c0.7-6,0.9-12.1,0.2-18.2c-0.4-3.1-1-6.1-1.7-9.1
			c-0.7-3.1-1.8-6-2.5-9.3c-0.2-0.9-0.3-1.8-0.3-2.8c0-1,0.2-2.1,0.7-3.3c0.5-1.1,1.4-2.1,2.4-2.7c0.6-0.5,1.2-0.9,1.8-1.4
			c2.4-1.8,4.8-3.8,7.3-5.6c5-3.7,10-7.5,15.6-10.6l0,0c0.3-0.1,0.6-0.1,0.7,0.2C154.9,93,154.9,93.2,154.8,93.3z"/>
	</g>
	<path fill="none" stroke="#777BB3" stroke-width="5" stroke-linecap="round" stroke-miterlimit="10" d="M150.3,133.3
		c0,0-11.8,1.4-16.7,7.6"/>
	<g>
		<path fill="#777BB3" d="M155.6,152.2l8.8-59.6l2.1-14.1l2.9,14l12.2,59.4c0.5,2.3-1,4.6-3.3,5c-2.3,0.5-4.6-1-5-3.3
			c0-0.1,0-0.2,0-0.2l-8.7-60l4.9-0.1l-6.4,59.9c-0.2,2-2,3.5-4.1,3.3s-3.5-2-3.3-4.1C155.6,152.3,155.6,152.3,155.6,152.2z"/>
	</g>
	<g>
		<path fill="#777BB3" d="M152.5,122c1.9-1.1,3.8-1.9,5.8-2.7c2-0.7,4-1.4,6.1-1.9c2.1-0.5,4.2-1,6.3-1.1c1.1-0.1,2.2-0.1,3.3,0
			c0.6,0,1.1,0.1,1.7,0.2c0.6,0.1,1.1,0.3,1.7,0.5c0.6,0.2,0.9,0.8,0.7,1.4c-0.1,0.3-0.3,0.5-0.6,0.6l-0.1,0.1
			c-0.5,0.2-1,0.4-1.4,0.6c-0.5,0.2-1,0.4-1.4,0.5c-1,0.4-1.9,0.7-2.9,1c-1.9,0.6-3.9,1.1-5.9,1.6c-2,0.5-4,0.9-6,1.4
			c-2,0.4-4.1,0.8-6.2,1l0,0c-0.9,0.1-1.7-0.6-1.8-1.5C151.6,122.9,152,122.3,152.5,122z"/>
	</g>
	<g>
		<path fill="#777BB3" d="M184.6,86c1.3,3.7,2.3,7.2,3.2,10.9c0.9,3.7,1.7,7.3,2.3,11.1c1.3,7.4,2.1,15,2.3,22.6
			c0.1,3.8,0,7.6-0.2,11.4c-0.1,1.9-0.3,3.8-0.5,5.7l-0.1,1.4l-0.1,0.7l-0.1,0.6c-0.1,0.8-0.2,1.7-0.2,2.5c0,0.8,0,1.6,0,2.4
			c0,0.7,0.1,1.5,0.2,1.8c0,0.2,0.1,0.2-0.2-0.2c-0.1-0.1-0.2-0.2-0.4-0.3c-0.2-0.2-0.5-0.2-0.7-0.3c-0.2-0.1-0.5-0.1-0.7-0.1
			c-0.1,0-0.3,0-0.4,0c-0.3,0.1-0.2,0.1-0.1,0c0.2-0.1,0.4-0.3,0.6-0.5c1-0.9,2.1-2.2,3-3.6c1-1.4,1.9-2.9,2.7-4.4
			c3.4-6.1,5.9-12.9,7.3-19.7c0.7-3.5,1.2-6.9,1.3-10.4c0.2-3.5,0.1-7.1-0.3-10.6c-0.4-3.4-1.1-6.9-2.4-9.8
			c-0.7-1.5-1.5-2.8-2.4-3.8c-0.5-0.5-1-1-1.5-1.4c-0.6-0.4-1.1-0.7-1.9-1c-1.4-0.6-3.1-0.9-4.8-1.3c-1.7-0.3-3.4-0.6-5.1-0.7
			c-3.4-0.2-6.9,0.1-10.3,0.8l0,0c-1.3,0.3-2.7-0.6-3-1.9c-0.3-1.3,0.5-2.6,1.8-2.9c3.8-1,7.7-1.6,11.7-1.5c2,0,4,0.2,5.9,0.5
			c1.9,0.3,3.9,0.6,6,1.4c1,0.3,2.1,0.9,3.1,1.5c1,0.6,1.9,1.4,2.7,2.2c1.6,1.6,2.8,3.5,3.7,5.4c1.8,3.8,2.7,7.8,3.2,11.6
			c0.5,3.9,0.7,7.8,0.6,11.6c-0.1,3.9-0.5,7.8-1.2,11.6c-1.5,7.6-4.1,15-7.8,21.9c-0.9,1.7-2,3.4-3.1,5.1c-1.2,1.7-2.4,3.3-4.1,4.9
			c-0.4,0.4-0.9,0.8-1.5,1.2c-0.6,0.4-1.3,0.9-2.6,1.1c-0.4,0.1-0.7,0.1-1.1,0.1c-0.4,0-1-0.1-1.4-0.2c-0.5-0.1-0.9-0.4-1.3-0.6
			c-0.4-0.3-0.6-0.5-0.9-0.8c-0.3-0.3-0.4-0.5-0.6-0.8l-0.2-0.4c-0.1-0.1-0.1-0.2-0.2-0.3c-0.1-0.2-0.2-0.4-0.3-0.6l-0.2-0.6
			c-0.4-1.4-0.5-2.5-0.6-3.7c-0.1-1.1,0-2.1,0-3.2c0-1,0.1-2,0.2-3l0.3-2.8c0.2-1.8,0.4-3.6,0.5-5.4c0.3-3.6,0.3-7.2,0.3-10.8
			c0-7.2-0.6-14.5-1.5-21.7c-0.4-3.6-1-7.2-1.6-10.8c-0.6-3.6-1.4-7.2-2.2-10.7l0-0.1c-0.3-1.3,0.5-2.7,1.9-3
			C182.9,84.1,184.2,84.8,184.6,86z"/>
	</g>
</g>
</svg>
