<?xml version="1.0" encoding="utf-8"?>
<!-- Generator: Adobe Illustrator 23.0.6, SVG Export Plug-In . SVG Version: 6.00 Build 0)  -->
<svg version="1.1" id="Слой_1" xmlns="http://www.w3.org/2000/svg" xmlns:xlink="http://www.w3.org/1999/xlink" x="0px" y="0px"
	 viewBox="0 0 232.1 232.2" enable-background="new 0 0 232.1 232.2" xml:space="preserve">
<g>
	<g>
		<path fill="#53C1DE" d="M160,0.1c-6.3-0.7-12.5,1.1-18.1,3.9c-4.9,2.4-9.5,5.6-13.7,9.1c-4.5,3.8-8.6,8.1-12.4,12.5
			c-3.5,3.9-6.7,8.1-9.7,12.3c-12.5,17.6-23.5,36.4-32.7,56c-5.4,11.5-10.3,23.4-13.8,35.6c-3.6,12.5-5.8,25.5-6.2,38.5
			c-0.2,6.3,0.1,12.5,0.8,18.7c0.8,6.5,1.6,13.5,5.8,18.8c4.4,5.4,11.8,6.2,18.3,5.8c6-0.4,11.9-1.8,17.4-4c9.8-4,18.9-10,26.6-17.2
			c2.2-2,4-4.3,5.8-6.6c5.3-6.7,9.9-13.8,14.1-21.2c6.7-12,12.3-24.6,17.1-37.4c6.7-17.9,11.8-36.3,15.9-54.9
			c2.5-11.7,4.7-23.5,6.4-35.3c0.8-5.6,1.7-10.9,0.6-16.5c-1.2-6.2-5.2-11.6-10.7-14.6C168,1.5,164.1,0.6,160,0.1
			c-1.4-0.2-3.3,0.8-4.2,1.8c-1,1-1.8,2.7-1.8,4.2c0.1,1.6,0.6,3.2,1.8,4.2c1.2,1.1,2.6,1.6,4.2,1.8c0.2,0,0.4,0.1,0.6,0.1
			c-2.5-0.3-1.1-0.2-0.6-0.1c0.8,0.1,1.5,0.3,2.3,0.5c0.9,0.2,1.8,0.7,2.7,0.9c-0.1,0-1.4-0.7-0.6-0.2c0.2,0.1,0.5,0.2,0.7,0.3
			c0.5,0.3,1.1,0.6,1.6,0.9c0.2,0.2,0.5,0.3,0.7,0.5c0.7,0.4-1.2-1-0.3-0.2c0.5,0.4,0.9,0.8,1.3,1.2c0.2,0.2,0.3,0.4,0.5,0.6
			c0.8,0.9-0.5-0.9-0.1-0.1c0.4,0.6,0.8,1.3,1.1,1.9c0.6,1.2-0.3-1-0.1-0.2c0.1,0.3,0.2,0.6,0.3,0.9c0.2,0.6,0.3,1.2,0.5,1.8
			c0.1,0.2,0.1,0.5,0.1,0.7c0.2,1.3-0.1-1.2,0-0.3c0.1,0.6,0.1,1.3,0.1,1.9c0,1,0,2-0.1,3c0,0.4-0.1,0.8-0.1,1.3
			c0,0.2-0.1,0.5-0.1,0.8c0-0.3,0.2-1.7,0.1-0.7c-0.4,3.1-0.9,6.2-1.4,9.3c-0.9,5.9-1.9,11.7-3.1,17.5c-3.7,19.3-8.5,38.5-14.8,57.2
			c-1.3,3.8-2.7,7.6-4.1,11.4c-0.7,1.8-1.4,3.5-2.1,5.3c-0.3,0.8-0.7,1.6-1,2.4c-0.2,0.4-0.3,0.7-0.5,1.1c-0.1,0.2-0.2,0.4-0.3,0.6
			c-0.5,1.2,0.6-1.3,0.1-0.3c-2.5,5.9-5.2,11.6-8.1,17.3c-4.1,8-8.7,15.8-14,23.1c-0.5,0.6-0.9,1.3-1.4,1.9
			c-0.2,0.3-0.4,0.5-0.6,0.8c1.6-2.1,0.6-0.7,0.2-0.2c-0.7,0.9-1.5,1.8-2.2,2.7c-1,1.1-1.9,2.2-3,3.3c-0.2,0.2-0.4,0.4-0.6,0.6
			c-0.4,0.4-0.9,0.8-1.3,1.1c-1.1,0.9-2.1,1.8-3.2,2.7c-0.2,0.2-0.4,0.3-0.7,0.5c-0.8,0.7,0.1-0.1,0.2-0.2c-0.6,0.5-1.3,1-2,1.5
			c-4.5,3.3-9.3,6.1-14.3,8.4c-1,0.4,0.2,0,0.3-0.1c-0.3,0.2-0.6,0.3-1,0.4c-0.6,0.2-1.1,0.4-1.7,0.7c-1.4,0.5-2.8,1-4.3,1.4
			c-1.2,0.3-2.4,0.6-3.6,0.8c-0.7,0.1-1.3,0.2-2,0.3c-1.4,0.2,1.1-0.1,0.2,0c-0.5,0-0.9,0.1-1.4,0.1c-1.2,0.1-2.5,0.2-3.7,0.2
			c-0.7,0-1.4,0-2.1-0.1c-0.3,0-0.7-0.1-1-0.1c-0.5,0-0.3,0,0.6,0.1c-0.2,0-0.4-0.1-0.6-0.1c-0.6-0.1-1.2-0.3-1.8-0.5
			c-1.3-0.3,1.1,0.7-0.1,0c-0.2-0.1-0.5-0.3-0.7-0.4c-1.2-0.6,0.7,0.7,0.1,0.1c-0.2-0.2-0.5-0.4-0.7-0.6c0,0-0.4-0.5-0.5-0.5
			c0.6,0.7,0.7,0.9,0.3,0.3c-0.1-0.2-0.2-0.3-0.3-0.5c-0.2-0.4-0.4-1.2-0.8-1.5c0.1,0.2,0.2,0.5,0.3,0.7c-0.1-0.2-0.2-0.5-0.3-0.7
			c-0.1-0.2-0.2-0.5-0.2-0.7c-0.4-1.3-0.7-2.6-0.9-3.9c-0.3-1.4-0.5-2.8-0.7-4.3c-0.2-1.1,0,0.1,0,0.2c-0.1-0.4-0.1-0.9-0.2-1.4
			c-0.1-0.8-0.2-1.5-0.2-2.3c-0.6-6.1-0.7-12.2-0.4-18.3c0.2-3.1,0.4-6.1,0.8-9.1c0-0.4,0.1-0.8,0.1-1.1c0.2-1.3,0,0,0,0
			c0,0,0.3-2.2,0.3-2.3c0.2-1.5,0.5-3,0.8-4.5c2.1-11.5,5.7-22.7,9.9-33.6c0.3-0.8,0.6-1.5,0.9-2.3c0.3-0.8,0.6-1.6,1-2.4
			c0.1-0.1,0.1-0.2,0.2-0.4c0.3-0.7-0.5,1.2-0.4,1c0.1-0.3,0.2-0.5,0.3-0.8c0.3-0.6,0.5-1.2,0.8-1.8c7.3-16.6,16-32.6,25.6-48
			c3.3-5.3,6.8-10.5,10.4-15.6c0.5-0.7,0.9-1.3,1.4-2c0.3-0.4,0.6-0.8,0.9-1.2c0.3-0.4,1.8-2.1,0.5-0.7c1.7-2,3.2-4,4.9-5.9
			c3.7-4.3,7.7-8.5,12-12.3c0.5-0.4,1-0.8,1.5-1.2c0.1-0.1,1.1-0.9,0.3-0.3c-0.8,0.6,0.3-0.2,0.4-0.3c1-0.8,2.1-1.5,3.2-2.2
			c2-1.3,4-2.6,6.1-3.7c0.6-0.3,1.1-0.6,1.7-0.8c0.3-0.1,1.2-0.3,0.3-0.2c-0.9,0.1,0.1,0,0.3-0.1c1.1-0.4,2.2-0.8,3.3-1.1
			c0.6-0.2,1.3-0.3,1.9-0.4c1.3-0.3-1.1,0.1-0.2,0c0.3,0,0.7-0.1,1-0.1c1.4-0.1,2.8,0,4.2,0.1c3.1,0.3,6.1-3,6-6
			C165.8,2.6,163.3,0.5,160,0.1z"/>
	</g>
</g>
<g>
	<g>
		<path fill="#53C1DE" d="M48.1,16.6c-3.4,4.8-4.9,10.5-5.3,16.3c-0.4,5.4-0.1,10.9,0.6,16.3c1.2,10.2,4.2,20,8.4,29.3
			c1.8,4,3.9,7.8,6,11.7c2.7,5.2,5.5,10.5,8.3,15.6c5.6,10.3,11.5,20.5,18,30.2c12.3,18.7,26.8,35.8,44.7,49.5
			c8.1,6.3,17,11.7,26.4,15.8c5.5,2.4,11.6,5.4,17.8,5.2c3.9-0.1,7.3-1.5,10.3-4c2.3-1.9,4-4.5,5.4-7c5.6-9.9,7.5-21.4,7.2-32.7
			c-0.2-5.7-0.9-11.5-2-17.1c-0.1-0.5-0.2-1.1-0.3-1.6c-0.9-3.5-2.2-6.9-3.6-10.3c-3.5-8.3-7.6-16.2-12.3-23.8
			c-7.3-11.9-15.7-23.1-24.7-33.8c-12.3-14.7-25.9-28.3-40.1-41c-8.8-7.9-17.8-15.5-27.1-22.7c-3.9-3-8.1-5.8-13-6.8
			c-5.9-1.2-12-0.2-16.9,3.3C52.7,11.1,50.3,13.6,48.1,16.6c-1.9,2.5-0.5,6.8,2.2,8.2c3.1,1.7,6.2,0.6,8.2-2.2
			c0.1-0.1,0.2-0.3,0.3-0.4c0.4-0.6-1.2,1.5-0.5,0.6c0.5-0.6,0.9-1.1,1.4-1.6c0.6-0.6,1.2-1.2,1.8-1.7c0.1-0.1,0.3-0.2,0.5-0.4
			c0,0-1.3,0.9-0.5,0.4c0.4-0.3,0.9-0.6,1.3-0.9c0.5-0.3,1-0.6,1.5-0.8c0.2-0.1,0.4-0.2,0.6-0.3c-1.4,0.7-0.8,0.3-0.5,0.2
			c0.5-0.2,1-0.3,1.5-0.5c0.3-0.1,0.6-0.1,0.9-0.2c1.1-0.2-1.4,0,0,0c0.5,0,1.1,0,1.6,0c0.1,0,0.3,0,0.4,0c0.5,0.1,0.5,0,0,0
			c-0.1,0-0.3,0-0.4-0.1c0.3,0,0.5,0.1,0.8,0.1c0.5,0.1,1,0.2,1.5,0.4c0.5,0.1,1.3,0.6,1.7,0.6c-0.7,0.1-1.1-0.5-0.3-0.1
			c0.3,0.1,0.5,0.3,0.8,0.4c0.4,0.2,0.8,0.4,1.2,0.7c0.9,0.5,1.8,1.1,2.6,1.7c0.3,0.2,0.6,0.4,0.9,0.6c0.8,0.6-1.1-0.9-0.5-0.4
			c0.2,0.2,0.4,0.3,0.7,0.5c1.2,0.9,2.3,1.8,3.5,2.8c4.6,3.7,9.2,7.5,13.7,11.3c14.9,12.8,29.2,26.4,42.3,41
			c5.2,5.8,10.2,11.9,15,18c0,0-1-1.3-0.4-0.5c0.1,0.2,0.2,0.3,0.3,0.5c0.3,0.3,0.5,0.7,0.8,1c0.5,0.7,1.1,1.4,1.6,2.1
			c1,1.4,2,2.7,3,4.1c1.8,2.5,3.6,5,5.3,7.6c5.2,7.8,9.9,15.9,13.9,24.4c0.7,1.5,1.3,3,2,4.4c-1.1-2.6,0-0.1,0.2,0.6
			c0.2,0.6,0.5,1.2,0.7,1.8c0.6,1.7,1.2,3.4,1.8,5.1c0.2,0.6,0.4,1.3,0.5,1.9c0.5,2,0.8,4.1,1.1,6.2c0,0.3,0.1,0.6,0.1,0.8
			c-0.3-1.5-0.1-0.7,0-0.3c0.1,0.6,0.2,1.3,0.2,1.9c0.1,1.3,0.3,2.7,0.3,4c0.2,2.7,0.2,5.3,0.1,8c0,1.2-0.1,2.4-0.2,3.5
			c-0.1,0.6-0.1,1.2-0.2,1.9c-0.1,1.1,0.1-0.3,0.1-0.4c0.1,0.3-0.1,0.9-0.2,1.2c-0.4,2.6-1,5.1-1.8,7.6c-0.4,1.2-0.8,2.3-1.3,3.5
			c-0.2,0.4-0.5,0.7,0.1-0.3c-0.1,0.2-0.2,0.5-0.3,0.8c-0.3,0.6-0.6,1.2-0.9,1.9c-0.6,1.1-1.2,2.2-1.8,3.2c-0.2,0.3-0.4,0.6-0.6,0.8
			c0,0.1-0.1,0.1-0.1,0.2c-0.4,0.5-0.3,0.4,0.2-0.3c-0.1,0.4-1,1.2-1.3,1.5c-0.2,0.2-0.4,0.4-0.6,0.5c-0.8,0.8,0.3-0.3,0.3-0.2
			c0,0-0.7,0.5-0.8,0.5c-0.1,0-0.1,0.1-0.2,0.1c-0.6,0.3-0.5,0.2,0.3-0.1c-0.1,0.2-1.5,0.5-1.7,0.4c0.2,0,0.5-0.1,0.7-0.1
			c-0.2,0-0.4,0-0.6,0c-0.4,0-0.7,0-1.1,0c-0.2,0-1.4-0.3-0.5,0c1,0.3-0.4-0.1-0.5-0.1c-0.6-0.1-1.2-0.3-1.7-0.4
			c-1.4-0.4-2.7-0.9-4.1-1.4c-1.1-0.4-2.4-0.8-3.4-1.4c0.1,0.1,1.3,0.6,0.3,0.1c-0.2-0.1-0.5-0.2-0.7-0.3c-0.7-0.3-1.4-0.6-2-0.9
			c-4.5-2.1-8.9-4.5-13.2-7.1c-2.1-1.3-4.2-2.7-6.3-4.1c-1-0.7-2-1.4-3-2.1c-0.4-0.3-0.9-0.6-1.3-1c-0.1-0.1-1.1-0.9-0.4-0.3
			c0.8,0.6-0.4-0.3-0.5-0.4c-3.9-3.1-7.7-6.4-11.4-9.9c-3.6-3.5-7.1-7.1-10.5-10.9c-1.7-1.9-3.3-3.8-4.9-5.8
			c-0.8-0.9-1.5-1.9-2.3-2.9c-0.2-0.2-0.4-0.5-0.6-0.7c-0.9-1.2,0.5,0.7,0-0.1c-0.5-0.6-0.9-1.2-1.4-1.8
			c-13.7-18.2-24.6-38.3-35.2-58.4c-2-3.8-4.1-7.6-5.9-11.6c-0.4-0.9-0.8-1.8-1.2-2.7c0,0.1,0.6,1.4,0.2,0.4
			c-0.1-0.2-0.2-0.5-0.3-0.7c-0.2-0.6-0.5-1.2-0.7-1.8c-1-2.6-1.9-5.3-2.6-8c-0.5-1.7-0.9-3.4-1.3-5.1c-0.2-1-0.4-2-0.6-3
			c-0.1-0.7-0.2-1.3-0.3-2c0-0.3-0.1-0.5-0.1-0.8c-0.2-1.5,0.2,1.4,0-0.1c-0.6-5.2-0.9-10.5-0.6-15.7c0-0.6,0.1-1.2,0.1-1.8
			c0-0.2,0.1-1.1,0-0.2c-0.1,1.1,0-0.2,0.1-0.3c0.2-1.1,0.5-2.2,0.8-3.3c0.1-0.5,0.3-1,0.5-1.4c0.4-1.2-0.5,1-0.1,0.2
			c0.1-0.2,0.2-0.5,0.3-0.7c0.6-1.1,1.2-2.2,2-3.2c1.8-2.6,0.5-6.8-2.2-8.2C53.2,12.8,50.1,13.9,48.1,16.6z"/>
	</g>
</g>
<g>
	<g>
		<path fill="#53C1DE" d="M228.8,88.5c-2.9-5.9-7.7-10.3-13.1-13.9c-5.4-3.5-11.2-6.5-17.3-8.5c-5.6-1.9-11.4-3.2-17.2-4.2
			c-3.1-0.6-6.3-1-9.5-1.3c-2.5-0.2-5,0-7.5,0.1c-18.4,0.8-36.7,1.5-55.1,2.7c-7.3,0.5-14.7,1.2-21.9,2.4c-10,1.6-19.9,4-29.6,6.8
			c-9.7,2.8-19.3,6.1-28.6,10.2c-4.3,1.9-8.6,4-12.7,6.4c-3.8,2.3-7.9,4.8-11,8c-2.2,2.3-4,5.1-4.9,8.2c-1.2,4.4-0.2,8.7,1.6,12.7
			c2.5,5.4,6.5,10.4,10.8,14.5c9,8.5,20.3,14.1,31.9,18c4.7,1.6,9.7,2.4,14.5,3.1c13.6,2,27.2,2.5,40.9,1.6
			c20.8-1.2,41.5-5.2,61.4-11.2c12.8-3.9,25.3-8.6,37.5-14.1c6.2-2.8,12.6-5.5,18.5-8.9c5.1-2.9,10.4-7,12.8-12.5
			c1.7-3.8,2.1-7.6,1.5-11.6C231.4,94,230.1,91.3,228.8,88.5c-1.4-2.8-5.6-3.8-8.2-2.2c-2.9,1.9-3.6,5.2-2.2,8.2
			c0.3,0.5,0.5,1.1,0.8,1.6c0.2,0.5,0,0.6-0.2-0.5c0.1,0.3,0.3,0.7,0.4,1c0.2,0.6,0.4,1.2,0.6,1.8c0,0.1,0.3,1.1,0.2,1.2
			c0-0.3-0.1-0.5-0.1-0.8c0,0.3,0.1,0.6,0.1,0.8c0,0.6,0.2,1.6-0.1,2.2c0.5-1.3,0-0.4-0.1,0c-0.1,0.3-0.1,0.6-0.2,0.8
			c-0.1,0.2-0.3,0.6-0.3,0.8c0.1-0.3,0.2-0.5,0.3-0.8c-0.1,0.2-0.2,0.4-0.3,0.6c-0.3,0.6-0.7,1.2-1.1,1.8c-0.6,1,0.7-0.9,0.2-0.2
			c-0.2,0.2-0.4,0.4-0.6,0.7c-0.4,0.4-0.8,0.9-1.2,1.3c-0.5,0.4-1,0.9-1.5,1.3c-0.5,0.4-0.8,0.2,0.2-0.2c-0.3,0.1-0.7,0.5-1,0.7
			c-2.1,1.5-4.4,2.7-6.7,3.9c-6.3,3.2-12.7,6.1-19.2,8.9c-0.3,0.1-0.6,0.2-0.9,0.4c1.4-0.6,0,0-0.3,0.1c-0.7,0.3-1.4,0.6-2.1,0.9
			c-1.6,0.7-3.2,1.3-4.8,1.9c-2.9,1.1-5.9,2.2-8.8,3.3c-10.9,3.9-22,7.1-33.3,9.7c-5.1,1.1-10.1,2.1-15.3,3c-2.3,0.4-4.6,0.7-6.9,1
			c2.2-0.3,0,0-0.5,0.1c-0.6,0.1-1.2,0.1-1.7,0.2c-1.1,0.1-2.3,0.3-3.4,0.4c-14.3,1.5-28.8,1.8-43.2,0.3c-1.3-0.1-2.6-0.3-3.9-0.4
			c-0.3,0-0.6-0.1-0.8-0.1c-0.8-0.1,2,0.3,0.6,0.1c-0.6-0.1-1.1-0.2-1.7-0.2c-2-0.3-3.9-0.6-5.8-1c-2.3-0.4-4.5-0.9-6.7-1.6
			c-0.4-0.1-0.8-0.2-1.2-0.4c-1.3-0.4-2.7-0.9-4-1.4c-0.6-0.2-1.2-0.5-1.8-0.7c-0.3-0.1-0.6-0.2-0.9-0.4c-1.4-0.6,0.9,0.4-0.2-0.1
			c-2.6-1.1-5.2-2.4-7.7-3.7c-2.4-1.3-4.7-2.7-6.9-4.3c-0.2-0.1-1.8-1.4-1.9-1.4c0,0,1.2,0.9,0.3,0.2c-0.3-0.2-0.6-0.5-0.9-0.7
			c-1.1-0.9-2.1-1.8-3.1-2.8c-1-0.9-1.9-1.9-2.8-2.9c-0.5-0.5-0.9-1-1.4-1.6c0,0-0.4-0.6-0.5-0.6c0.5,0.7,0.6,0.8,0.2,0.3
			c-0.2-0.2-0.3-0.4-0.5-0.6c-0.7-1-1.4-2.1-2.1-3.2c-0.4-0.6-0.7-1.3-1.1-1.9c-0.2-0.3-0.3-0.7-0.5-1c-0.3-0.6-0.2-0.5,0.1,0.2
			c-0.1-0.3-0.2-0.5-0.3-0.8c-0.1-0.4-0.8-1.8-0.6-2.1c-0.1,0.1,0,1.3,0.1,0.3c0-0.1-0.1-1.3,0-1.3c0,0.3-0.1,0.5-0.1,0.8
			c0-0.2,0.1-0.5,0.1-0.7c0.1-0.2,0.1-0.5,0.2-0.7c0-0.1,0.1-0.2,0.1-0.3c0.2-0.6,0.2-0.4-0.2,0.5c0.2-0.2,0.3-0.6,0.5-0.9
			c0.2-0.3,0.3-0.6,0.5-0.8c0.1-0.2,0.8-1,0.1-0.2c-0.7,0.9,0,0,0.1-0.1c0.2-0.2,0.4-0.4,0.6-0.7c0.7-0.7,1.4-1.3,2.1-1.9
			c0.7-0.6-1.3,1-0.6,0.5c0.1-0.1,0.2-0.1,0.3-0.2c0.4-0.3,0.9-0.6,1.3-1c0.9-0.7,1.9-1.3,2.9-1.9c1.9-1.2,3.8-2.3,5.8-3.4
			c2-1.1,4.1-2.2,6.2-3.1c1.1-0.5,2.2-1,3.3-1.5c0.5-0.2,1-0.4,1.5-0.7c1.1-0.5-1.1,0.5-0.4,0.2c0.4-0.1,0.7-0.3,1.1-0.4
			c4.4-1.8,8.9-3.4,13.4-4.9c12.2-4,24.7-7.2,37.4-9.5c2.2-0.4,4.4-0.7,6.6-1c1-0.1-0.9,0.1-1,0.1c0.2,0,0.4,0,0.6-0.1
			c0.4,0,0.7-0.1,1.1-0.1c0.8-0.1,1.5-0.2,2.3-0.3c1.7-0.2,3.5-0.3,5.2-0.5c14-1.2,28.1-1.7,42.1-2.3c6.1-0.3,12.3-0.6,18.4-0.8
			c2.6-0.1,5.3-0.3,7.9-0.2c1.1,0.1,2.2,0.2,3.4,0.3c0.3,0,0.6,0.1,0.9,0.1c-1.8-0.1-0.5-0.1-0.1,0c0.8,0.1,1.6,0.2,2.4,0.4
			c5.7,1,11.4,2.3,16.8,4c1.4,0.5,2.8,1,4.2,1.5c0.3,0.1,0.5,0.2,0.8,0.3c-1.5-0.7-0.1,0,0.2,0.1c0.8,0.4,1.6,0.8,2.4,1.2
			c2.5,1.3,5,2.7,7.3,4.3c1,0.6,1.9,1.4,2.9,2c-1.5-1.1,0.1,0.1,0.5,0.4c0.6,0.5,1.1,1,1.6,1.5c0.4,0.4,0.9,0.9,1.3,1.4
			c0.2,0.2,0.4,0.5,0.6,0.7c0.6,0.6-0.9-1.2-0.1-0.1c0.8,1.2,1.6,2.5,2.3,3.8c1.4,2.8,5.6,3.8,8.2,2.2
			C229.6,94.9,230.3,91.6,228.8,88.5z"/>
	</g>
</g>
<g>
	<g>
		<path fill="#53C1DE" d="M207.3,121.4c2,0.8,2.7,1.7,3.1,3.7c0.4,2.2-0.3,5.1-0.6,7.5c-0.6,5.2,0.9,11.3,6.5,13
			c1.7,0.5,3.1-0.6,3.7-2.1c1.2-3.1,1-6.4,0.7-9.6c-0.2-3.1-0.6-6.3-0.5-9.4c0-1,0.2-2.1,0.6-2.9c0.5-1,1.6-1.6,2.4-2.5
			c1.3-1.4,1.8-3,2.1-4.9c0.1-0.5,0.1-1,0.2-1.5c0,0,0.1-0.6,0.2-0.5c0.3,0.1-1.6,0.4-0.8,0.4c-1-1-2-2-3-3c0,3.7-0.1,7.5,0.1,11.2
			c0.2,3.3,1.7,6.7,5.5,6.8c1.6,0.1,3-1.4,3-3c0-6.7-0.5-13.3-1.4-19.9c-0.2-1.6-2.3-2.5-3.7-2.1c-1.7,0.5-2.3,2.1-2.1,3.7
			c0.8,6.1,1.2,12.2,1.2,18.4c1-1,2-2,3-3c0.2,0,0.3,0.1,0.5,0.1c0.1,0,0.2,0.1,0.3,0.2c0.1,0.1,0.1,0.1,0,0c0,0,0,0,0-0.1
			c-0.1-0.2-0.1-0.4-0.2-0.6c-0.1-0.3,0,0.2-0.1-0.3c0-0.2,0-0.4,0-0.6c0-0.7,0-1.5,0-2.2c0-2.9,0-5.7-0.1-8.6c0-1.5-1.4-3.1-3-3
			c-2,0.1-3.5,1.1-4.5,2.9c-0.8,1.5-0.7,3.2-1.1,4.7c-0.3,1.1-1.7,1.8-2.5,2.7c-1.1,1.3-1.9,2.9-2.2,4.6c-0.7,3.4-0.2,6.9,0,10.3
			c0.2,3.3,0.9,6.9-0.4,10.2c1.2-0.7,2.5-1.4,3.7-2.1c-0.6-0.2-1-0.5-1.4-1.1c-0.4-0.7-0.7-1.6-0.8-2.3c-0.4-2.6,0.6-5.8,0.8-8.5
			c0.2-2.5-0.1-5.1-1.3-7.3c-1.3-2.6-3.7-3.9-6.3-5c-1.5-0.6-3.3,0.7-3.7,2.1C204.8,119.5,205.8,120.8,207.3,121.4L207.3,121.4z"/>
	</g>
</g>
<g>
	<g>
		<path fill="#53C1DE" d="M135.9,188c1.5,5,2,9.9,1.4,15.2c-0.1,1-0.4,2.3-0.6,3.4c-0.1,0.5-0.3,1-0.4,1.5c-0.3,1.5,0.3,2.8,1.6,3.6
			c2.9,2,6.5,0.2,8.1-2.5c1.5-2.6,2.8-6.1,1.7-9c-0.4-1.2-1.1-2.2-1.8-3.2c-0.3-0.5-0.7-0.9-1-1.4c-0.3-0.5-0.3-0.4-0.4-0.9
			c-0.3-1.6,0-3.2-0.9-4.7c-0.9-1.5-2.4-2.6-4.1-2.7c-3.9-0.2-4.7,3.9-4.8,6.9c-0.1,5.2,0.7,10.4,1.4,15.5c0.2,1.6,2.3,2.5,3.7,2.1
			c1.7-0.5,2.3-2.1,2.1-3.7c0-0.3-0.1-0.6-0.1-0.9c0-0.2,0-0.3-0.1-0.5c0,0.4,0,0.4,0,0c-0.1-0.7-0.2-1.4-0.3-2.1
			c-0.2-1.6-0.4-3.2-0.5-4.9c-0.1-1.6-0.2-3.1-0.2-4.7c0-0.7,0-1.3,0-2c0-0.1,0.1-0.7,0.1-0.7c-0.2,0.4-0.6,0.7-1.1,0.9
			c-0.6,0.2-1.1,0.1-1.4-0.3c0.2,0.2,0.3,0.3,0.1,0.1c-0.1-0.3-0.1-0.2,0,0.2c0-0.1,0,0.6,0,0.7c0,1.1,0.1,2.2,0.5,3.2
			c0.6,1.6,1.8,2.8,2.7,4.3c0.2,0.3,0.3,0.5,0.4,0.8c-0.2-0.5,0,0.5,0,0.4c0,0.7-0.3,1.5-0.6,2.2c-0.1,0.3-0.3,0.6-0.4,0.9
			c-0.1,0.2-0.2,0.4-0.3,0.6c-0.2,0.3-0.2,0.4-0.1,0.2c-0.3,0.3-0.3,0.3-0.1,0.1c0.3-0.1,0.3-0.1-0.1,0c0.3,0,0.7-0.1,0.9,0.2
			c0.3,1,0.5,1.9,0.8,2.9c2-7.6,1.9-15.8-0.4-23.3c-0.5-1.5-2.1-2.5-3.7-2.1C136.5,184.8,135.4,186.5,135.9,188L135.9,188z"/>
	</g>
</g>
<g>
	<g>
		<path fill="#53C1DE" d="M145.9,199.3c3.9,0,3.9-6,0-6C142.1,193.3,142.1,199.3,145.9,199.3L145.9,199.3z"/>
	</g>
</g>
<g>
	<g>
		<path fill="#53C1DE" d="M156.1,199.9c0,8.3,0,16.5,0,24.8c0,3.3,5.1,4.1,5.9,0.8c0.5-2.1,1-4.1,1.2-6.2c0.1-1.5-0.2-3.1-1.6-3.9
			c-3.3-1.9-5.6,2.5-6.7,4.9c-1.2,2.7-2.8,6.5-1.1,9.3c0.6,1.1,1.7,1.7,2.8,2c1.3,0.4,3.1,0.7,4.4,0.4c2.4-0.6,3.2-3,3.1-5.2
			c-0.1-3.2-0.7-6.5-1.2-9.7c-0.3-1.6-2.2-2.5-3.7-2.1c-1.7,0.5-2.4,2.1-2.1,3.7c0.2,0.9,0.3,1.9,0.4,2.8c0.2,1.4,0.3,2.1,0.5,3.8
			c0.1,0.6,0,1.3,0.1,1.9c0.1,0.5-0.2,0.2,0.1,0c1.9-1.5,2-0.9,0.7-1.1c-0.3,0-0.5-0.1-0.8-0.2c0.2,0.1,0.3,0.1,0.4,0.3
			c0.1,0.1,0.7,1.3,0.4,0.6c0.3,0.8,0.1,0.3,0.1-0.1c0-0.1,0-0.3,0-0.4c-0.1,0.4-0.1,0.5,0,0.3c0.1-0.6,0.3-1.2,0.4-1.7
			c0.1-0.3,0.2-0.6,0.3-1c0.1-0.2,0.1-0.3,0.2-0.5c-0.1,0.3-0.1,0.3,0,0c0.5-1,1-2,1.6-3c0.4-0.6-0.4,0.4-0.1,0.1
			c0-0.1,0.1-0.1,0.2-0.2c-1.2,1.1-2.6,0.9-4.3-0.7c-0.2-0.6-0.3-0.8-0.2-0.5c-0.1-0.6-0.1-0.8-0.1-0.5c-0.1,0.2,0,0.4,0,0.6
			c0,0.8,0.1-0.3,0,0.3c-0.1,0.4-0.1,0.8-0.2,1.2c-0.2,1.1-0.5,2.2-0.7,3.3c2,0.3,3.9,0.5,5.9,0.8c0-8.3,0-16.5,0-24.8
			C162.1,196,156.1,196,156.1,199.9L156.1,199.9z"/>
	</g>
</g>
<g>
	<g>
		<path fill="#53C1DE" d="M213.4,151.7c-0.2,1.9-0.1,3.8,0.4,5.7c0.1,0.5,0.4,0.9,0.8,1.3c0.3,0.3,0.6,0.5,1,0.6
			c0.9,0.4,1.8,0.3,2.7-0.2c0.8-0.4,1.4-1.1,1.9-1.8c0.2-0.3,0.3-0.6,0.4-0.9c0.1-0.3,0.3-0.6,0.3-0.9c0.2-1,0.2-1.7,0-2.7
			c-0.1-0.4-0.3-0.9-0.5-1.3c-0.2-0.4-0.5-0.7-0.8-1.1c-0.3-0.3-0.6-0.5-1-0.6c-0.4-0.2-0.7-0.3-1.2-0.3c-0.7,0-1.6,0.3-2.1,0.9
			c-0.5,0.6-0.9,1.3-0.9,2.1c0,0.3,0.1,0.5,0.1,0.8c0.1,0.5,0.4,0.9,0.8,1.3c0,0,0,0,0,0c-0.2-0.2-0.3-0.4-0.5-0.6
			c0.1,0.2,0.2,0.3,0.3,0.5c-0.1-0.2-0.2-0.5-0.3-0.7c0.1,0.2,0.1,0.4,0.2,0.6c0-0.3-0.1-0.5-0.1-0.8c0,0.2,0,0.5,0,0.7
			c0-0.3,0.1-0.5,0.1-0.8c0,0.3-0.1,0.5-0.2,0.8c0.1-0.2,0.2-0.5,0.3-0.7c-0.1,0.2-0.2,0.4-0.4,0.6c0.2-0.2,0.3-0.4,0.5-0.6
			c-0.1,0.2-0.3,0.3-0.4,0.4c0.2-0.2,0.4-0.3,0.6-0.5c-0.1,0.1-0.2,0.1-0.3,0.2c1.5,0.6,2.9,1.2,4.4,1.8c-0.1-0.5-0.2-1-0.3-1.5
			c0,0.3,0.1,0.5,0.1,0.8c-0.2-1.1-0.2-2.3,0-3.4c0-0.4-0.1-0.8-0.3-1.2c-0.1-0.4-0.3-0.7-0.6-1c-0.5-0.5-1.4-0.9-2.1-0.9
			c-0.8,0-1.6,0.3-2.1,0.9c-0.2,0.2-0.3,0.4-0.5,0.6C213.6,150.7,213.4,151.2,213.4,151.7L213.4,151.7z"/>
	</g>
</g>
<g>
	<g>
		<path fill="#53C1DE" d="M113,102.7c-0.2,1.6-0.3,3.3-0.5,4.9c-0.2,1.8-0.5,3.5,0,5.3c0.5,2.1,2.1,4,4.3,4.5
			c2.9,0.7,5.3-0.9,6.9-3.1c2.1-2.9,3.3-7.1,2.1-10.6c-1.4-4-5.4-7-9.7-6c-3.1,0.7-5.6,3.6-6.2,6.7c-0.7,3.9,1,7.5,4.4,9.6
			c2.7,1.6,6.3,2.1,9.3,1.1c4-1.3,7-5.2,5.7-9.5c-1.1-3.6-4.8-5.9-8.2-6.9c-3.5-1-7.4-0.7-10.6,1c-2.8,1.5-4.9,4.3-5.9,7.3
			c-1.1,3.6-0.2,7.3,2.1,10.1c4.5,5.5,12.5,5.4,18.8,4.3c4-0.7,6-3.7,7.4-7.1c1.3-3.2,2.4-6.8,1.3-10.2c-0.7-2.1-1.9-3.9-3.7-5.1
			c-1.5-1-3.3-1.4-5.1-1.8c-1.1-0.2,0.9,0.4-0.1-0.1c-0.4-0.3-0.4-0.3,0.1,0.1c-0.2-0.2-0.4-0.3-0.5-0.5c-0.8-0.7-1.6-1.4-2.5-1.9
			c-1.8-1-3.8-1.5-5.8-1.6c-8.1-0.3-14.2,7.9-11.7,15.6c2.9-0.8,5.8-1.6,8.7-2.4c-0.1-0.2-0.1-0.4-0.2-0.6c0.1,0.7,0.1,0.8,0.1,0.3
			c0-0.9-0.2,1,0,0.1c0.2-0.9-0.5,0.7,0,0c0.1-0.2,0.2-0.3,0.3-0.5c-0.4,0.5-0.5,0.6-0.1,0.2c0.1-0.1,0.5-0.6,0.7-0.6
			c-0.5,0.4-0.6,0.4-0.2,0.2c0.1-0.1,0.2-0.1,0.3-0.2c0.2-0.1,0.4-0.2,0.6-0.3c-0.5,0.2-0.6,0.2-0.1,0.1c0.3-0.1,0.7-0.2,1-0.3
			c0.4-0.1,0.7-0.1,1.1-0.2c0.5-0.1,0.5-0.1-0.1,0c0.2,0,0.4,0,0.5-0.1c0.8-0.1,1.6-0.2,2.4-0.2c1.9-0.2,3.7-0.3,5.6-0.5
			c1.8-0.2,3.4-1,4.1-2.8c0.7-1.6,0.4-3.7-0.9-4.9c-3.8-3.3-8.7-4.6-13.6-3.4c-2.3,0.6-3.9,3.3-3.1,5.5c0.8,2.4,3.1,3.8,5.5,3.1
			c0.2,0,1.4-0.2,0.7-0.2c-0.7,0,0.4,0,0.5,0c0.3,0,0.9-0.1,1.1,0.1c-0.2,0-0.4,0-0.5-0.1c0.2,0,0.4,0.1,0.6,0.1
			c0.3,0.1,0.6,0.2,0.9,0.3c0.9,0.3-0.6-0.4,0.1,0.1c0.3,0.2,0.6,0.3,0.9,0.5c0.2,0.1,0.4,0.2,0.5,0.4c-0.5-0.4-0.5-0.4-0.1-0.1
			c1.1-2.6,2.1-5.1,3.2-7.7c-2.3,0.2-4.5,0.4-6.8,0.6c-2.3,0.2-4.7,0.4-6.8,1.2c-2.5,1-4.5,2.4-6,4.7c-1.4,2.2-1.9,5-1.1,7.5
			c0.7,2.2,3.2,3.9,5.5,3.1c2.2-0.7,3.9-3.1,3.1-5.5c-0.1-0.2-0.1-0.4-0.2-0.6c0-0.1,0-0.2-0.1-0.3c-0.1-0.4-0.1-0.4,0,0
			c0,0.1,0,0.2,0,0.3c0-0.1,0-0.3,0-0.4c0-0.2,0-0.4,0-0.6c0-0.6-0.2,0.9-0.1,0.3c0.1-0.2,0.1-0.5,0.2-0.7c0-0.1,0.2-0.5,0.2-0.6
			c0.1,0.3-0.4,0.9,0,0.1c0.1-0.2,0.3-0.4,0.4-0.6c0.3-0.6-0.2,0.3-0.2,0.2c-0.1-0.2,0.8-0.6,0.8-0.9c0,0.1-0.9,0.6-0.2,0.2
			c0.2-0.1,0.4-0.2,0.5-0.3c0.7-0.4-0.1,0.1-0.2,0.1c0.1,0,0.7-0.2,0.9-0.3c0,0,0.6-0.2,0.6-0.1c0,0-1,0.1-0.3,0.1
			c0.2,0,0.4,0,0.6,0c0.9,0-0.3,0-0.3-0.1c0.1-0.1,1.2,0.3,1.3,0.3c0.6,0.1-0.7-0.4-0.2-0.1c0.3,0.2,0.5,0.3,0.8,0.5
			c0.5,0.3-0.6-0.5-0.1-0.1c0.2,0.2,0.4,0.3,0.5,0.5c0.6,0.5,1.2,1,1.9,1.5c1.1,0.7,2.3,1.2,3.6,1.4c0.4,0.1,0.9,0.2,1.3,0.3
			c0.1,0,0.5,0.1,0.6,0.2c-0.7-0.5-0.5-0.2-0.2,0c-0.8-0.6-0.5-0.3-0.2-0.1c0.7,0.6-0.2-0.2-0.2-0.2c-0.2,0.1,0.8,0.8,0.2,0.3
			c-0.1-0.4-0.1-0.3,0,0c0,0.1,0.1,0.2,0.1,0.3c0,0,0.1,0.6,0.1,0.6c-0.1,0-0.1-1.1-0.1-0.1c0,0.2,0,0.5,0,0.7c0,0.7,0.2-0.7,0-0.1
			c-0.4,1.1-0.6,2.2-1,3.3c-0.1,0.3-0.2,0.6-0.3,0.8c0.1-0.1,0.5-0.9,0.1-0.2c-0.2,0.4-0.4,0.7-0.6,1.1c-0.3,0.5-0.2-0.1,0.2-0.2
			c0,0-0.4,0.4-0.4,0.4c0,0,0.8-0.6,0.1-0.2c0.9-0.5,0.2-0.1-0.2-0.1c-0.9,0.2,0.2-0.1,0.2,0c0,0-0.6,0.1-0.7,0.1
			c-0.5,0.1-1,0.1-1.6,0.2c-1.2,0.1-2.5,0.2-3.7,0.1c-0.3,0-0.5,0-0.8-0.1c-0.7,0,0.7,0.2,0,0c-0.5-0.1-1-0.2-1.5-0.4
			c-0.1,0-0.5-0.2-0.6-0.2c0.1,0,0.9,0.5,0.2,0.1c-0.3-0.2-1-0.8-1.3-0.8c0.1,0,0.8,0.7,0.2,0.1c-0.1-0.1-0.3-0.3-0.4-0.4
			c-0.1-0.1-0.3-0.4-0.4-0.4c0.6,0.4,0.4,0.6,0.2,0.2c0,0-0.3-0.5-0.3-0.5c0.1-0.1,0.3,0.9,0.1,0.3c-0.1-0.2-0.1-0.5-0.2-0.7
			c-0.1-0.5,0,1,0,0.2c0-0.2,0-0.4,0-0.6c0-0.9-0.2,0.8,0,0.2c0.1-0.4,0.2-0.7,0.3-1.1c0.2-0.6-0.4,0.8-0.1,0.3
			c0.1-0.2,0.2-0.4,0.4-0.6c0.1-0.1,0.3-0.3,0.3-0.5c-0.1,0.4-0.5,0.6,0,0.1c0.2-0.2,0.4-0.3,0.5-0.5c0.5-0.5-0.2,0.3-0.2,0.2
			c0-0.1,1.1-0.5,1-0.6c0,0.1-1,0.3-0.1,0.1c0.2-0.1,0.4-0.1,0.6-0.2c0.1,0,0.5-0.2,0.7-0.1c-0.6,0.1-0.7,0.1-0.4,0.1
			c0.2,0,0.3,0,0.5,0c0.3,0,1-0.1,1.3,0.1c-0.5-0.3-0.6-0.1-0.2,0c0.2,0.1,0.4,0.1,0.7,0.2c0.3,0.1,0.5,0.2,0.8,0.2
			c0.1,0.1,0.8,0.3,0.3,0.1c-0.6-0.3,0.1,0.1,0.2,0.1c0.3,0.2,0.6,0.3,0.9,0.5c0.2,0.1,0.6,0.5,0.2,0.1c-0.4-0.5,0,0.1,0.1,0.2
			c0.5,0.3-0.4-0.7-0.1-0.2c0.2,0.3,0.3,0.9,0-0.1c-0.1-0.4-0.1-0.8,0-1.2c-0.1,0.3-0.3,0.6,0.2-0.3c-0.1,0.3-0.5,0.6,0.2-0.3
			c-0.5,0.6,0.8-0.4,0,0c-0.1,0.1-0.4,0.2-0.5,0.3c0.1-0.1,1-0.3,0.3-0.2c-0.1,0-0.5,0.1-0.5,0.1c0.1-0.2,1-0.1,0.3-0.1
			c-0.2,0-1.1-0.1-1.2,0c0.2-0.2,1.1,0.2,0.2,0c-0.2-0.1-0.5-0.1-0.7-0.2c-0.8-0.2,0.3,0.1,0.3,0.1c0,0-0.4-0.2-0.5-0.3
			c-0.8-0.4,0.5,0.5,0.1,0.1c-0.1-0.1-0.3-0.3-0.4-0.4c-0.5-0.3,0.5,0.7,0.2,0.3c-0.4-0.6,0.1-0.3,0,0.2c0,0-0.2-0.5-0.1-0.5
			c0.1,0.1,0.1,1.2,0.1,0.3c0-0.2,0-0.8,0,0c-0.1,0.8,0.1-0.1,0.1-0.3c0.1-0.5-0.5,0.8-0.1,0.4c0.1-0.1,0.3-0.4,0.3-0.5
			c-0.2,0.6-0.6,0.7-0.1,0.3c0.4-0.4-0.9,0.5-0.2,0.2c-1,0.5-0.7,0.3-0.4,0.2c0.8-0.2-1,0-0.2,0.1c-1,0-0.7-0.1-0.3,0
			c-0.6-0.3-0.7-0.3-0.4-0.1c0.3,0.2,0.2,0.1-0.3-0.3c0,0,0.5,0.4,0.4,0.4c-0.4-0.5-0.4-0.6-0.3-0.3c0.1,0.1,0.2,0.3,0.2,0.4
			c-0.1,0-0.3-1-0.1-0.2c0,0.1,0.1,0.2,0.1,0.3c0.1,0.5,0.1,0.4,0-0.2c0.1,0.1,0,0.8,0,0.7c0-0.2,0-0.3,0.1-0.5
			c0,0.2-0.1,0.4-0.1,0.5c-0.1,0.2-0.2,0.5-0.2,0.7c-0.1,0.3-0.1,0.2,0.1-0.2c-0.1,0.2-0.2,0.3-0.2,0.5c-0.2,0.4-0.5,1.1-0.8,1.4
			c1.4-1.1-1.3,0.6,0.7-0.6c1.4-0.8,3.4-0.4,4.2,1c0.5,0.8,0.3,0.8,0.2,0.4c0.3,1.2,0.1,0.5,0.1,0.1c0-2.6,0.5-5.3,0.8-7.9
			c0.2-2.3-2.2-4.6-4.5-4.5C114.9,98.3,113.3,100.2,113,102.7L113,102.7z"/>
	</g>
</g>
</svg>
