<?xml version="1.0" encoding="utf-8"?>
<!-- Generator: Adobe Illustrator 23.0.6, SVG Export Plug-In . SVG Version: 6.00 Build 0)  -->
<svg version="1.1" id="Слой_1" xmlns="http://www.w3.org/2000/svg" xmlns:xlink="http://www.w3.org/1999/xlink" x="0px" y="0px"
	 viewBox="0 0 228.3 209" enable-background="new 0 0 228.3 209" xml:space="preserve">
<g>
	<g>
		<path fill="#764ABC" d="M46,118.4c-9.8,0.3-19.8,3.1-27.9,8.8c-7.7,5.4-13.9,12.9-16.7,22C-1.3,158,0,167.1,4,175.1
			c3.1,6.3,8.1,11.9,13.5,16.4c3.6,3,7.4,5.9,11.5,8.2c9.2,5.2,19.8,7.6,30.3,7.3c8.5-0.2,17.1-1.9,25.3-4c2-0.5,3.9-1.2,5.8-1.9
			c12.2-4.6,23.3-11.4,33.5-19.6c7.1-5.7,13.5-12.1,19.3-19.1c2-2.4,3.9-4.8,5.7-7.3c1.5-2,3.2-4.1,4.4-6.3
			c3.2-5.8,4.3-13.6,0.6-19.5c-1.9-3.1-4.9-5.7-8.5-6.5c-3.5-0.8-7.2-0.3-10.3,1.5c-5,3-7.8,8.4-9.8,13.7c-1.5,3.8-1.7,8.1,0.2,11.8
			c1.9,3.6,5.4,5.6,9.4,6c6,0.5,11.5-3.8,14.7-8.4c1.9-2.6,3.3-6.2,3-9.4c-0.4-4.1-2.5-7.6-6.1-9.7c-6.2-3.8-14.7-1.5-18,5
			c-3.1,6.1-1.9,13.9,3.6,18.3c3.1,2.5,6.3,3.8,10.2,4.2c4.3,0.5,7.8-2.7,9.6-6.3c2.6-5.2,3-11.8-0.2-16.9c-3.5-5.4-10.1-8.1-16.3-6
			c-5.7,1.9-10.8,7.1-10.4,13.5c0.4,7.3,6.4,12.6,13,14.7c5.4,1.8,12.3,1.2,17-2.3c2.9-2.2,4.8-4.7,6.2-8.1c0.8-2.2,1.2-4.7,0.9-7.1
			c-0.4-3.6-1.5-6.6-3.9-9.3c-1.8-2.2-4.7-3.8-7.5-4.3c-7-1.2-13.7,1.7-17.7,7.6c-3.7,5.5-3.3,13.1,0,18.6c2.1,3.3,6.8,4.9,10.3,2.7
			c3.4-2.2,4.9-6.7,2.7-10.3c-0.3-0.6-0.6-1.1-0.9-1.8c0.3,0.6,0.5,1.2,0.8,1.8c-0.3-0.8-0.5-1.7-0.7-2.6c0.1,0.7,0.2,1.3,0.3,2
			c-0.1-0.9-0.1-1.7,0-2.6c-0.1,0.7-0.2,1.3-0.3,2c0.1-0.9,0.3-1.7,0.7-2.5c-0.3,0.6-0.5,1.2-0.8,1.8c0.2-0.5,0.5-1,0.8-1.5
			c0.8-1.2-0.4,0.3-0.4,0.5c0-0.1,0.5-0.5,0.6-0.6c0.2-0.2,0.9-0.8-0.1,0c-1.1,0.8-0.2,0.1,0.1,0c0.5-0.3,1-0.6,1.5-0.8
			c-0.6,0.3-1.2,0.5-1.8,0.8c0.9-0.3,1.7-0.6,2.6-0.7c-0.7,0.1-1.3,0.2-2,0.3c0.8-0.1,1.5-0.1,2.3,0c-0.7-0.1-1.3-0.2-2-0.3
			c0.5,0.1,1,0.2,1.5,0.4c-0.6-0.3-1.2-0.5-1.8-0.8c0.4,0.2,0.7,0.4,1.1,0.6c1,0.6-1.6-1.4-0.4-0.2c1.2,1.2-0.8-1.4-0.3-0.4
			c0.2,0.3,0.4,0.7,0.5,1c-0.3-0.6-0.5-1.2-0.8-1.8c0.3,0.7,0.5,1.5,0.6,2.3c-0.1-0.7-0.2-1.3-0.3-2c0.1,0.9,0.1,1.8,0,2.7
			c0.1-0.7,0.2-1.3,0.3-2c-0.1,0.9-0.4,1.8-0.7,2.6c0.3-0.6,0.5-1.2,0.8-1.8c-0.2,0.5-0.5,0.9-0.7,1.3c-0.5,1,1.1-1.2,0.5-0.7
			c-0.2,0.2-0.3,0.4-0.5,0.6c-0.1,0.1-0.3,0.3-0.4,0.4c1.1-1.2,1.2-0.8,0.5-0.4c-0.5,0.4-1.1,0.6-1.7,0.9c0.6-0.3,1.2-0.5,1.8-0.8
			c-0.9,0.3-1.8,0.6-2.7,0.7c0.7-0.1,1.3-0.2,2-0.3c-1.2,0.1-2.4,0.1-3.6,0c0.7,0.1,1.3,0.2,2,0.3c-1.2-0.2-2.4-0.5-3.5-0.9
			c0.6,0.3,1.2,0.5,1.8,0.8c-0.6-0.2-1.1-0.5-1.6-0.8c-0.3-0.2-0.6-0.4-0.9-0.6c-1-0.7,1.1,1,0.5,0.4c-0.2-0.2-0.5-0.4-0.7-0.6
			c-0.2-0.2-0.9-1.1-0.1-0.1c0.8,1,0.1,0.1,0-0.1c-0.2-0.3-0.3-0.6-0.5-1c0.3,0.6,0.5,1.2,0.8,1.8c-0.2-0.4-0.3-0.9-0.4-1.3
			c0.1,0.7,0.2,1.3,0.3,2c-0.1-0.5-0.1-0.9,0-1.4c-0.1,0.7-0.2,1.3-0.3,2c0.1-0.4,0.2-0.9,0.4-1.3c-0.3,0.6-0.5,1.2-0.8,1.8
			c0.2-0.4,0.4-0.7,0.6-1.1c0.2-0.5-1.1,1.2-0.7,0.9c0.2-0.1,0.4-0.4,0.5-0.5c0.6-0.7-0.8,0.6-0.9,0.6c0.1,0,0.3-0.2,0.5-0.3
			c0.4-0.3,0.8-0.5,1.3-0.7c-0.6,0.3-1.2,0.5-1.8,0.8c0.6-0.2,1.3-0.4,1.9-0.5c-0.7,0.1-1.3,0.2-2,0.3c0.7-0.1,1.3-0.1,2,0
			c-0.7-0.1-1.3-0.2-2-0.3c0.6,0.1,1.1,0.2,1.6,0.4c-0.6-0.3-1.2-0.5-1.8-0.8c0.3,0.2,0.7,0.4,1,0.6c-1.1-0.9-1.4-1.1-0.8-0.6
			c0.1,0.1,0.2,0.2,0.3,0.3c1.1,1-0.9-1.5-0.4-0.5c0.2,0.3,0.4,0.7,0.6,1c-0.3-0.6-0.5-1.2-0.8-1.8c0.3,0.7,0.5,1.5,0.6,2.3
			c-0.1-0.7-0.2-1.3-0.3-2c0.1,0.9,0.1,1.8,0,2.7c0.1-0.7,0.2-1.3,0.3-2c-0.1,0.9-0.4,1.8-0.7,2.7c0.3-0.6,0.5-1.2,0.8-1.8
			c-0.3,0.6-0.6,1.1-0.9,1.6c-0.6,1,1.3-1.4,0.4-0.6c-0.2,0.2-0.4,0.4-0.7,0.6c1.8-0.7,3.5-1.5,5.3-2.2c-0.4,0-0.7-0.1-1.1-0.1
			c0.7,0.1,1.3,0.2,2,0.3c-1-0.2-1.9-0.4-2.8-0.8c0.6,0.3,1.2,0.5,1.8,0.8c-0.4-0.2-0.9-0.4-1.3-0.7c-0.1-0.1-0.5-0.4-0.6-0.4
			c0.2,0,1.5,1.3,0.6,0.4c-0.2-0.2-0.3-0.3-0.5-0.5c-0.6-0.5,0.9,1.4,0.5,0.7c-0.3-0.5-0.5-0.9-0.8-1.4c0.3,0.6,0.5,1.2,0.8,1.8
			c-0.2-0.6-0.4-1.2-0.5-1.9c0.1,0.7,0.2,1.3,0.3,2c-0.1-0.7-0.1-1.3,0-1.9c-0.1,0.7-0.2,1.3-0.3,2c0.1-0.6,0.3-1.3,0.5-1.9
			c-0.3,0.6-0.5,1.2-0.8,1.8c0.1-0.3,0.3-0.6,0.4-0.9c0.3-0.4,0.2-0.4-0.2,0.2c-0.5,0.6-0.5,0.7-0.2,0.3c0.1-0.1,0.1-0.1,0.2-0.2
			c0.6-0.5,0.3-0.3-0.8,0.6c0.3-0.1,0.6-0.3,0.8-0.5c-0.6,0.3-1.2,0.5-1.8,0.8c0.4-0.1,0.8-0.2,1.2-0.3c-0.7,0.1-1.3,0.2-2,0.3
			c0.5-0.1,1-0.1,1.5,0c-0.7-0.1-1.3-0.2-2-0.3c0.5,0.1,1,0.2,1.5,0.4c-0.6-0.3-1.2-0.5-1.8-0.8c0.3,0.1,0.5,0.3,0.8,0.4
			c0.4,0.3,0.3,0.2-0.3-0.2c-0.6-0.5-0.7-0.5-0.3-0.2c0.1,0.1,0.1,0.1,0.2,0.2c0.5,0.6,0.3,0.3-0.6-0.8c0.1,0.3,0.3,0.5,0.4,0.8
			c-0.3-0.6-0.5-1.2-0.8-1.8c0.1,0.3,0.2,0.5,0.2,0.8c-0.1-0.7-0.2-1.3-0.3-2c0.1,0.5,0,0.9,0,1.4c0.1-0.7,0.2-1.3,0.3-2
			c-0.1,0.6-0.3,1.1-0.5,1.6c0.3-0.6,0.5-1.2,0.8-1.8c-0.3,0.8-0.8,1.5-1.2,2.2c-0.8,1.3,1.2-1.3,0.3-0.4c-0.2,0.2-0.4,0.5-0.7,0.7
			c-0.2,0.2-0.5,0.4-0.7,0.7c-1,0.9,1.5-1,0.5-0.4c-0.6,0.4-1.3,0.8-1.9,1.1c0.6-0.3,1.2-0.5,1.8-0.8c-0.6,0.3-1.3,0.5-2,0.6
			c0.7-0.1,1.3-0.2,2-0.3c-0.4,0.1-0.9,0.1-1.3,0c0.7,0.1,1.3,0.2,2,0.3c-0.3-0.1-0.6-0.1-1-0.3c0.6,0.3,1.2,0.5,1.8,0.8
			c-1.4-0.7,1.2,1.3,0.5,0.5c-0.5-0.5-0.3-0.2,0.6,0.9c-0.1-0.2-0.2-0.4-0.3-0.6c0.3,0.6,0.5,1.2,0.8,1.8c-0.2-0.4-0.3-0.7-0.3-1.1
			c0.1,0.7,0.2,1.3,0.3,2c-0.1-0.5-0.1-1.1,0-1.6c-0.1,0.7-0.2,1.3-0.3,2c0.2-1.5,0.7-2.9,1.3-4.3c-0.3,0.6-0.5,1.2-0.8,1.8
			c0.7-1.7,1.5-3.3,2.6-4.8c0.9-1.3-1.1,1.2-0.2,0.3c0.3-0.3,0.6-0.7,0.9-1c1.3-1.2-1.3,0.8-0.3,0.2c0.4-0.2,0.7-0.4,1.1-0.6
			c-0.6,0.3-1.2,0.5-1.8,0.8c0.6-0.2,1.1-0.4,1.8-0.5c-0.7,0.1-1.3,0.2-2,0.3c0.4,0,0.8,0,1.3,0c-0.7-0.1-1.3-0.2-2-0.3
			c0.6,0.1,1.1,0.2,1.7,0.4c-0.6-0.3-1.2-0.5-1.8-0.8c0.2,0.1,0.4,0.2,0.6,0.3c0.6,0.4,0.4,0.2-0.7-0.6c0.2,0.2,0.5,0.5,0.7,0.7
			c0.4,0.4,0.3,0.3-0.1-0.2c-0.4-0.6-0.5-0.6-0.2-0.2c0.2,0.4,0.5,0.8,0.7,1.3c-0.3-0.6-0.5-1.2-0.8-1.8c0.3,0.7,0.5,1.3,0.6,2.1
			c-0.1-0.7-0.2-1.3-0.3-2c0.1,1.1,0.1,2.2,0,3.2c0.1-0.7,0.2-1.3,0.3-2c-0.2,1.3-0.5,2.6-1,3.8c0.3-0.6,0.5-1.2,0.8-1.8
			c-1.3,2.9-3.4,5.5-5.3,8c-0.3,0.4-0.5,0.7-0.8,1c-0.7,1,0.3-0.4,0.4-0.5c-0.5,0.7-1.1,1.4-1.6,2c-1,1.2-2,2.5-3.1,3.7
			c-3.8,4.4-7.9,8.6-12.3,12.5c-1.9,1.7-3.8,3.3-5.8,4.9c-0.3,0.2-0.5,0.4-0.8,0.6c-1.1,0.8,1.5-1.2,0.5-0.4c-0.4,0.3-0.9,0.6-1.3,1
			c-1,0.7-2,1.5-3,2.2c-3.4,2.4-7,4.6-10.6,6.6c-3.2,1.8-6.5,3.4-9.8,4.8c0.6-0.3,1.2-0.5,1.8-0.8c-4.1,1.7-8.3,3-12.6,4
			c-3.8,0.9-7.7,1.7-11.6,2.2c0.7-0.1,1.3-0.2,2-0.3c-5.7,0.7-11.5,0.9-17.2,0.2c0.7,0.1,1.3,0.2,2,0.3c-4.3-0.6-8.4-1.7-12.4-3.4
			c0.6,0.3,1.2,0.5,1.8,0.8c-3.7-1.6-7.1-3.7-10.4-6c-0.4-0.3-0.9-0.6-1.3-0.9c-0.3-0.2-1.3-1,0,0c1.3,1,0.2,0.1-0.1-0.1
			c-1-0.8-2-1.7-3-2.5c-2.2-1.9-4.2-4-6-6.3c-0.1-0.1-0.2-0.2-0.3-0.3c-0.8-1,1.2,1.6,0.5,0.6c-0.2-0.3-0.5-0.7-0.7-1
			c-0.5-0.7-1-1.4-1.4-2.1c-0.9-1.5-1.7-3.1-2.4-4.7c0.3,0.6,0.5,1.2,0.8,1.8c-1-2.3-1.7-4.8-2-7.3c0.1,0.7,0.2,1.3,0.3,2
			c-0.3-2.2-0.3-4.5,0-6.7c-0.1,0.7-0.2,1.3-0.3,2c0.3-2.5,1-4.9,2-7.2c-0.3,0.6-0.5,1.2-0.8,1.8c0.9-2,1.9-3.9,3.2-5.7
			c0.2-0.2,0.3-0.4,0.5-0.7c0.7-0.9-1,1.3-0.5,0.6c0.3-0.4,0.7-0.8,1-1.3c0.8-0.9,1.6-1.7,2.4-2.5c0.8-0.8,1.7-1.5,2.5-2.2
			c0.9-0.7-1.3,1-0.6,0.4c0.2-0.2,0.5-0.3,0.7-0.5c0.5-0.3,0.9-0.7,1.4-1c2.1-1.3,4.3-2.5,6.5-3.5c-0.6,0.3-1.2,0.5-1.8,0.8
			c3.7-1.5,7.5-2.6,11.4-3.1c-0.7,0.1-1.3,0.2-2,0.3c1.7-0.2,3.4-0.4,5-0.4c3.9-0.1,7.7-3.4,7.5-7.5C53.3,122,50.2,118.3,46,118.4
			L46,118.4z"/>
	</g>
</g>
<g>
	<g>
		<path fill="#764ABC" d="M153.8,66.1c10.4-17,11.4-41.4-3.5-56.2C137.9-2.4,119-1.8,103.6,3.9c-4.9,1.8-9.8,4-14.2,6.9
			c-7.8,5.3-14.1,12.4-18.8,20.7c-3.7,6.6-6.5,13.8-9.1,20.9C61,54.2,60.5,56.1,60,58c-3,13.1-3.5,27-1.9,40.3
			c1.2,10.5,3.5,20.8,6.9,30.8c1.9,5.6,3.8,11.5,8.1,15.8c4.8,4.8,11.8,7,18.3,4.3c7-2.9,9.4-10.8,7.3-17.7
			c-0.8-2.6-2.1-5.2-3.6-7.5c-1.8-2.7-3.7-5.3-6.5-7c-3.5-2.1-7.9-2.2-11.5-0.3c-2.8,1.5-4.5,4.1-5.5,6.9
			c-1.7,4.7-0.7,10.2,1.4,14.6c1.6,3.3,4.3,6.1,7.9,7.3c3.3,1.1,6.9,0.5,9.9-1.1c6.4-3.5,8.7-12.2,4.5-18.3c-2.1-3-4.9-5.3-8.5-6.4
			c-3.8-1.1-7.7-0.4-11.2,1.2c-3,1.4-6.2,4.1-7.5,7.2c-1.5,3.5,0.1,8,2.2,10.9c3.9,5.5,10.4,8.7,17.2,7.2c5.3-1.2,9.6-5.9,10.4-11.2
			c0.4-2.7,0.5-5.3-0.5-7.9c-1.1-2.9-3-5.6-5.8-7.1c-6.7-3.6-14.5-1-20,3.7c-5,4.3-7.3,11-6.3,17.4c0.9,6,5.8,10.7,11.3,12.8
			c2.7,1,6,1.1,8.8,0.3c3.4-1,6.2-3.2,8.2-6.2c3.5-5.2,3.6-12.4,0.6-17.8c-3.1-5.5-9.1-8.6-15.2-8.8c-3.9-0.1-7.7,3.5-7.5,7.5
			c0.2,4.2,3.3,7.4,7.5,7.5c0.4,0,0.7,0,1.1,0.1c-0.7-0.1-1.3-0.2-2-0.3c0.9,0.1,1.9,0.4,2.7,0.7c-0.6-0.3-1.2-0.5-1.8-0.8
			c0.5,0.2,1,0.5,1.5,0.8c0.7,0.4,0.8,0.9-0.4-0.4c0.2,0.2,0.4,0.4,0.6,0.6c0.1,0.1,0.4,0.5,0.6,0.6c-0.2-0.1-1.2-1.6-0.5-0.6
			c0.3,0.5,0.6,1.1,0.9,1.6c-0.3-0.6-0.5-1.2-0.8-1.8c0.3,0.8,0.5,1.5,0.6,2.3c-0.1-0.7-0.2-1.3-0.3-2c0.1,0.8,0.1,1.6,0,2.4
			c0.1-0.7,0.2-1.3,0.3-2c-0.1,0.9-0.4,1.8-0.7,2.6c0.3-0.6,0.5-1.2,0.8-1.8c-0.2,0.4-0.4,0.8-0.6,1.2c-0.9,1.5,1-1,0.2-0.2
			c-0.1,0.2-0.3,0.3-0.5,0.5c-0.6,0.5-0.3,0.3,0.8-0.6c-0.4,0.2-0.7,0.4-1.1,0.6c0.6-0.3,1.2-0.5,1.8-0.8c-0.6,0.2-1.2,0.4-1.9,0.5
			c0.7-0.1,1.3-0.2,2-0.3c-0.6,0.1-1.3,0.1-1.9,0c0.7,0.1,1.3,0.2,2,0.3c-0.7-0.1-1.4-0.3-2.1-0.6c0.6,0.3,1.2,0.5,1.8,0.8
			c-0.5-0.2-1-0.5-1.4-0.8c-0.7-0.5-0.7-0.9,0.5,0.4c-0.2-0.2-0.4-0.4-0.6-0.6c-0.2-0.2-0.4-0.4-0.6-0.6c-0.8-0.8,0.9,1.3,0.5,0.6
			c-0.3-0.5-0.6-1-0.9-1.6c0.3,0.6,0.5,1.2,0.8,1.8c-0.3-0.7-0.5-1.4-0.6-2.2c0.1,0.7,0.2,1.3,0.3,2c-0.1-0.9-0.1-1.7,0-2.5
			c-0.1,0.7-0.2,1.3-0.3,2c0.1-1,0.4-1.9,0.8-2.8c-0.3,0.6-0.5,1.2-0.8,1.8c0.3-0.7,0.7-1.4,1.1-2.1c0.9-1.4-1.1,1.2-0.2,0.2
			c0.3-0.3,0.5-0.6,0.8-0.8c0.3-0.3,0.5-0.5,0.8-0.8c1-0.9-1.4,0.9-0.3,0.3c0.7-0.5,1.5-0.9,2.3-1.3c-0.6,0.3-1.2,0.5-1.8,0.8
			c1-0.4,2.1-0.7,3.2-0.9c-0.7,0.1-1.3,0.2-2,0.3c0.7-0.1,1.4-0.1,2.1,0c-0.7-0.1-1.3-0.2-2-0.3c0.6,0.1,1.1,0.2,1.6,0.4
			c-0.6-0.3-1.2-0.5-1.8-0.8c0.3,0.1,0.7,0.4,0.9,0.5c-0.2,0-1.7-1.4-0.8-0.5c0.7,0.6-0.1,0.7-0.6-0.8c0.1,0.3,0.3,0.6,0.5,0.9
			c-0.3-0.6-0.5-1.2-0.8-1.8c0.3,0.6,0.4,1.3,0.5,1.9c-0.1-0.7-0.2-1.3-0.3-2c0.1,0.7,0.1,1.4,0,2.1c0.1-0.7,0.2-1.3,0.3-2
			c-0.1,0.7-0.3,1.4-0.5,2c0.3-0.6,0.5-1.2,0.8-1.8c-0.1,0.3-0.3,0.6-0.5,0.9c-0.1,0.2-0.2,0.3-0.3,0.4c-0.5,0.9,1.2-1.4,0.6-0.8
			c-0.3,0.3-1.3,1.1-0.1,0.2c1.2-0.9,0-0.1-0.4,0.1c0.6-0.3,1.2-0.5,1.8-0.8c-0.6,0.2-1.2,0.4-1.8,0.5c0.7-0.1,1.3-0.2,2-0.3
			c-0.6,0.1-1.3,0.1-1.9,0c0.7,0.1,1.3,0.2,2,0.3c-0.8-0.1-1.5-0.3-2.2-0.6c0.6,0.3,1.2,0.5,1.8,0.8c-0.5-0.2-1-0.5-1.5-0.8
			c-0.7-0.5-0.7-0.9,0.4,0.4c-0.2-0.2-0.4-0.4-0.6-0.6c-0.2-0.2-0.4-0.4-0.6-0.6c-0.8-0.9,0.9,1.3,0.5,0.6c-0.3-0.5-0.6-1-0.9-1.6
			c0.3,0.6,0.5,1.2,0.8,1.8c-0.3-0.7-0.5-1.5-0.6-2.2c-0.3,1.9-0.5,3.9-0.8,5.8c-1.4,1.8-0.6,0.7-0.2,0.3c0.2-0.2,1.5-1.3,0.4-0.4
			c-1.1,0.8,0.1,0,0.4-0.2c0.4-0.2,0.8-0.4,1.2-0.6c-0.6,0.3-1.2,0.5-1.8,0.8c0.7-0.3,1.4-0.5,2.2-0.6c-0.7,0.1-1.3,0.2-2,0.3
			c0.8-0.1,1.5-0.1,2.3,0c-0.7-0.1-1.3-0.2-2-0.3c0.6,0.1,1.1,0.2,1.7,0.4c-0.6-0.3-1.2-0.5-1.8-0.8c0.4,0.2,0.8,0.4,1.2,0.6
			c1.1,0.6-1.3-1.3-0.4-0.3c0.6,0.7,0.4,0.9-0.3-0.5c0.2,0.4,0.5,0.8,0.7,1.2c-0.3-0.6-0.5-1.2-0.8-1.8c0.2,0.5,0.4,1,0.5,1.6
			c-0.1-0.7-0.2-1.3-0.3-2c0,0.5,0.1,0.9,0,1.4c0.1-0.7,0.2-1.3,0.3-2c-0.1,0.4-0.2,0.8-0.3,1.2c0.3-0.6,0.5-1.2,0.8-1.8
			c-0.1,0.3-0.3,0.5-0.4,0.8c-0.5,1.1,1.4-1.5,0.3-0.5c-1,1,1.2-0.7,0.6-0.4c-0.3,0.1-0.6,0.3-0.9,0.5c0.6-0.3,1.2-0.5,1.8-0.8
			c-0.5,0.2-0.9,0.3-1.4,0.4c0.7-0.1,1.3-0.2,2-0.3c-0.4,0-0.8,0-1.2,0c0.7,0.1,1.3,0.2,2,0.3c-0.4-0.1-0.7-0.2-1.1-0.3
			c0.6,0.3,1.2,0.5,1.8,0.8c-1.5-0.7,1,1.1,0.1,0.2c-0.9-0.9,0.9,1.5,0.2,0.3c-0.4-0.7-0.8-1.4-1.1-2.1c0.3,0.6,0.5,1.2,0.8,1.8
			c-0.4-1-0.7-2-0.8-3c0.1,0.7,0.2,1.3,0.3,2c-0.2-1.1-0.2-2.3,0-3.4c-0.1,0.7-0.2,1.3-0.3,2c0.1-0.7,0.3-1.4,0.5-2
			c-0.3,0.6-0.5,1.2-0.8,1.8c0.1-0.2,0.2-0.4,0.3-0.7c0.6-1.2-0.9,0.9-0.6,0.7c0.3-0.2,1-0.9-0.2,0.1c-1.2,0.9-0.4,0.3,0,0.2
			c-0.6,0.3-1.2,0.5-1.8,0.8c0.3-0.1,0.6-0.2,0.9-0.2c-0.7,0.1-1.3,0.2-2,0.3c0.4,0,0.7,0,1.1,0c-0.7-0.1-1.3-0.2-2-0.3
			c0.4,0.1,0.7,0.2,1,0.3c-0.6-0.3-1.2-0.5-1.8-0.8c0.2,0.1,0.4,0.2,0.6,0.3c0.6,0.4,0.4,0.2-0.6-0.5c0.2,0.3,0.6,0.5,0.8,0.8
			c0.2,0.2,0.3,0.4,0.5,0.6c-0.7-1-0.9-1.2-0.6-0.8c0.3,0.4,0.5,0.7,0.8,1.1c1,1.5,1.9,3.1,2.6,4.7c-0.3-0.6-0.5-1.2-0.8-1.8
			c0.5,1.2,0.8,2.3,1,3.6c-0.1-0.7-0.2-1.3-0.3-2c0.1,0.7,0.1,1.4,0,2.1c0.1-0.7,0.2-1.3,0.3-2c-0.1,0.6-0.2,1.1-0.4,1.6
			c0.3-0.6,0.5-1.2,0.8-1.8c-0.1,0.3-0.3,0.6-0.5,0.9c-0.6,1,1-1.1,0.4-0.6c-0.8,0.6-0.3-0.1,0.6-0.4c-0.3,0.1-0.6,0.3-0.9,0.5
			c0.6-0.3,1.2-0.5,1.8-0.8c-0.6,0.3-1.2,0.4-1.9,0.5c0.7-0.1,1.3-0.2,2-0.3c-0.7,0.1-1.4,0.1-2,0c0.7,0.1,1.3,0.2,2,0.3
			c-0.8-0.1-1.6-0.3-2.3-0.6c0.6,0.3,1.2,0.5,1.8,0.8c-0.8-0.3-1.4-0.8-2.1-1.2c-0.5-0.3-0.2-0.2,0.7,0.6c-0.2-0.2-0.4-0.3-0.6-0.5
			c-0.3-0.3-0.6-0.5-0.8-0.8c-0.5-0.6-0.6-1.2,0.2,0.3c-0.2-0.3-0.4-0.6-0.6-0.9c-0.4-0.7-0.8-1.5-1.2-2.2c0.3,0.6,0.5,1.2,0.8,1.8
			c-4.6-11-7.7-22.6-9.3-34.3c0.1,0.7,0.2,1.3,0.3,2C72,89.8,71.9,79,73.3,68.3c-0.1,0.7-0.2,1.3-0.3,2c0.7-4.9,1.6-9.9,3.3-14.6
			c1.1-3.1,2.3-6.2,3.6-9.2c-0.3,0.6-0.5,1.2-0.8,1.8c1.2-2.9,2.6-5.8,4.1-8.5c0.8-1.5,1.7-2.9,2.6-4.3c0.4-0.7,0.9-1.3,1.3-2
			c0.2-0.3,0.5-0.6,0.7-1c0.1-0.2,0.3-0.4,0.4-0.5c-0.1,0.1-1.2,1.5-0.5,0.7c2.2-2.8,4.7-5.4,7.5-7.6c0.1-0.1,0.3-0.2,0.4-0.3
			c0.7-0.6-1.4,1-0.6,0.5c0.4-0.3,0.7-0.5,1.1-0.8c0.8-0.6,1.6-1.1,2.4-1.6c1.2-0.7,2.3-1.4,3.6-2c1.4-0.7,2.8-1.3,4.2-1.9
			c-0.6,0.3-1.2,0.5-1.8,0.8c5.1-2.1,10.5-3.7,16-4.5c-0.7,0.1-1.3,0.2-2,0.3c3.6-0.5,7.2-0.6,10.8-0.1c-0.7-0.1-1.3-0.2-2-0.3
			c2.6,0.4,5.2,1,7.7,2c-0.6-0.3-1.2-0.5-1.8-0.8c1.5,0.7,3,1.4,4.3,2.3c0.4,0.3,0.7,0.5,1.1,0.8c-2.1-1.4-0.6-0.5-0.2-0.1
			c0.7,0.6,1.3,1.2,1.9,1.8c0.6,0.6,1.1,1.3,1.7,1.9c-1.7-1.9-0.5-0.7-0.2-0.2c0.2,0.3,0.4,0.6,0.7,1c1,1.5,1.8,3.1,2.5,4.7
			c-0.3-0.6-0.5-1.2-0.8-1.8c1.2,2.9,2,6,2.5,9.2c-0.1-0.7-0.2-1.3-0.3-2c0.5,3.6,0.4,7.2,0,10.8c0.1-0.7,0.2-1.3,0.3-2
			c-0.6,3.9-1.6,7.8-3.2,11.4c0.3-0.6,0.5-1.2,0.8-1.8c-0.9,2.2-2,4.3-3.3,6.3c-2,3.4-0.8,8.4,2.7,10.3
			C147.2,70.8,151.6,69.7,153.8,66.1L153.8,66.1z"/>
	</g>
</g>
<g>
	<g>
		<path fill="#764ABC" d="M150.4,186.3c3,4.3,6.4,8.3,10.4,11.5c4.3,3.4,8.7,6.1,13.8,8.1c8.3,3.4,18.1,4.1,26.6,1.4
			c8.4-2.7,15.3-8.4,19.7-16c3.5-5.9,5.5-12.7,6.4-19.5c0.7-4.7,1.1-9.4,0.8-14.2c-0.4-9.2-3.1-18-7.7-26
			c-4.4-7.6-10.3-14.2-16.5-20.3c-1.7-1.7-3.4-3.4-5.3-4.9c-9.2-7.4-19.5-12.9-30.5-17.3c-8-3.2-16.3-5.5-24.7-7
			c-5.5-1-11-1.7-16.5-2.1c-2.6-0.2-5.2-0.4-7.8-0.4c-3.6,0.1-7,1-10.2,2.6c-6.2,3.2-10.7,10.9-8.3,17.9c2.2,6.6,8.4,9.7,15,9.9
			c2.6,0.1,5.3-0.3,7.8-0.8c3.1-0.6,6.1-1.7,8.5-3.9c3.1-2.7,4.4-7.2,3.4-11.2c-0.9-3.3-3.3-5.9-6.1-7.7c-5.3-3.4-13.4-4.2-18.9-0.9
			c-6.9,4.1-7.2,13.9-2.1,19.5c5.2,5.7,14.5,4.7,19.7-0.4c2.9-2.8,4.3-6.8,4.4-10.7c0.1-3.7-1.1-8.3-3.7-11c-2.8-3-8.4-2.9-12-2
			c-2.9,0.7-5.7,2.3-7.9,4.4c-4.7,4.5-6.3,12.2-2.5,17.8c3.5,5.3,9.8,8.3,16.1,6.8c7.1-1.7,10.7-9.6,10.1-16.3
			c-0.6-6.6-3.7-12.5-9.3-16.2c-5.3-3.4-12.5-3.3-17.8,0c-5.6,3.5-9.2,10.4-7,17c2.3,6.8,9,11.8,16.2,11.7c6.4,0,12.7-3.9,15.5-9.7
			c0.9-1.8,1.3-3.7,0.8-5.8c-0.5-1.7-1.8-3.6-3.4-4.5c-3.4-1.8-8.4-1.1-10.3,2.7c-0.2,0.5-0.5,1-0.8,1.5c-0.4,0.8,1.2-1.4,0.4-0.5
			c-0.2,0.2-0.4,0.4-0.6,0.7c-0.2,0.2-0.4,0.3-0.5,0.5c-0.6,0.6,1.5-1,0.5-0.4c-0.5,0.3-1,0.6-1.5,0.8c0.6-0.3,1.2-0.5,1.8-0.8
			c-0.9,0.4-1.7,0.6-2.7,0.7c0.7-0.1,1.3-0.2,2-0.3c-0.8,0.1-1.6,0.1-2.4,0c0.7,0.1,1.3,0.2,2,0.3c-0.7-0.1-1.4-0.3-2.1-0.6
			c0.6,0.3,1.2,0.5,1.8,0.8c-0.5-0.2-1-0.5-1.5-0.7c-0.2-0.1-0.6-0.3-0.8-0.5c0.2,0.2,1.5,1.2,0.5,0.4c-0.2-0.2-0.3-0.3-0.5-0.5
			c-0.9-1,0.4,0.3,0.4,0.6c0-0.3-0.7-1.2-0.8-1.5c0.3,0.6,0.5,1.2,0.8,1.8c-0.2-0.5-0.4-1.1-0.5-1.6c0.1,0.7,0.2,1.3,0.3,2
			c-0.1-0.7-0.1-1.3,0-1.9c-0.1,0.7-0.2,1.3-0.3,2c0.1-0.6,0.3-1.2,0.5-1.7c-0.3,0.6-0.5,1.2-0.8,1.8c0.1-0.2,0.8-1.2,0.7-1.3
			c0.1,0.2-1.4,1.6-0.5,0.7c0.2-0.2,0.4-0.4,0.5-0.5c0.2-0.1,0.3-0.3,0.5-0.4c-1.5,1.5-1.2,0.9-0.6,0.5c0.5-0.3,1-0.6,1.5-0.8
			c-0.6,0.3-1.2,0.5-1.8,0.8c0.8-0.3,1.6-0.5,2.4-0.7c-0.7,0.1-1.3,0.2-2,0.3c0.8-0.1,1.7-0.1,2.5,0c-0.7-0.1-1.3-0.2-2-0.3
			c0.8,0.1,1.5,0.3,2.2,0.6c-0.6-0.3-1.2-0.5-1.8-0.8c0.6,0.3,1.2,0.7,1.8,1c-1.7-1-1-0.8-0.4-0.3c0.3,0.2,0.5,0.5,0.7,0.7
			c0.5,0.5,0.7,1.4-0.3-0.4c0.2,0.3,0.4,0.6,0.6,0.9c0.4,0.6,0.7,1.2,1,1.9c-0.3-0.6-0.5-1.2-0.8-1.8c0.5,1.2,0.8,2.5,1,3.7
			c-0.1-0.7-0.2-1.3-0.3-2c0.1,1.1,0.1,2.2,0,3.3c0.1-0.7,0.2-1.3,0.3-2c-0.1,0.9-0.3,1.8-0.7,2.7c0.3-0.6,0.5-1.2,0.8-1.8
			c-0.2,0.4-0.3,0.7-0.5,1c-0.7,1.2,1.1-1.4,0.2-0.3c-0.7,0.8,1.7-1,0.6-0.5c-0.2,0.1-0.5,0.3-0.7,0.4c0.6-0.3,1.2-0.5,1.8-0.8
			c-0.4,0.2-0.8,0.3-1.3,0.3c0.7-0.1,1.3-0.2,2-0.3c-0.5,0.1-1.1,0.1-1.6,0c0.7,0.1,1.3,0.2,2,0.3c-0.6-0.1-1.2-0.3-1.9-0.5
			c0.6,0.3,1.2,0.5,1.8,0.8c-0.4-0.2-0.8-0.4-1.2-0.6c-0.3-0.2-1-0.8,0.1,0.1c1.1,0.9,0.3,0.2,0.1,0c-0.1-0.1-0.3-0.3-0.4-0.4
			c-0.8-0.7,0.9,1.3,0.6,0.8c-0.2-0.5-0.5-0.9-0.7-1.3c0.3,0.6,0.5,1.2,0.8,1.8c-0.2-0.4-0.3-0.9-0.4-1.3c0.1,0.7,0.2,1.3,0.3,2
			c-0.1-0.6-0.1-1.2,0-1.8c-0.1,0.7-0.2,1.3-0.3,2c0.1-0.6,0.3-1.2,0.5-1.8c-0.3,0.6-0.5,1.2-0.8,1.8c0.1-0.1,0.8-1.3,0.7-1.3
			c0.1,0.1-1.4,1.6-0.5,0.7c0.2-0.2,0.4-0.4,0.5-0.6c0.2-0.1,0.3-0.3,0.5-0.4c-1.4,1.5-1.2,0.9-0.6,0.5c0.5-0.3,1-0.6,1.6-0.8
			c-0.6,0.3-1.2,0.5-1.8,0.8c0.8-0.3,1.6-0.6,2.5-0.7c-0.7,0.1-1.3,0.2-2,0.3c0.9-0.1,1.7-0.1,2.5,0c-0.7-0.1-1.3-0.2-2-0.3
			c0.4,0.1,0.8,0.1,1.2,0.3c-1.5-1.1-3-2.3-4.5-3.4c0.2,0.4,0.4,0.7,0.5,1.1c-0.3-0.6-0.5-1.2-0.8-1.8c0.4,1,0.7,2,0.9,3.1
			c-0.1-0.7-0.2-1.3-0.3-2c0.1,0.8,0.1,1.6,0,2.4c0.1-0.7,0.2-1.3,0.3-2c-0.1,0.8-0.3,1.5-0.6,2.3c0.3-0.6,0.5-1.2,0.8-1.8
			c-0.1,0.2-0.5,1.3-0.7,1.3c0.3-0.1,1.3-1.6,0.3-0.5c-0.4,0.4-0.3,0.3,0.3-0.1c0.6-0.4,0.7-0.5,0.2-0.2c-0.4,0.2-0.8,0.5-1.2,0.6
			c0.6-0.3,1.2-0.5,1.8-0.8c-0.6,0.3-1.2,0.4-1.9,0.5c0.7-0.1,1.3-0.2,2-0.3c-0.6,0.1-1.1,0.1-1.6,0c0.7,0.1,1.3,0.2,2,0.3
			c-0.5-0.1-1.1-0.2-1.6-0.4c0.6,0.3,1.2,0.5,1.8,0.8c0,0-0.9-0.4-0.8-0.5c0.1-0.1,1.6,1.5,0.7,0.5c-0.4-0.5,1,1.7,0.6,0.7
			c-0.1-0.3-0.3-0.5-0.4-0.8c0.3,0.6,0.5,1.2,0.8,1.8c-0.2-0.5-0.3-0.9-0.4-1.4c0.1,0.7,0.2,1.3,0.3,2c-0.1-0.6-0.1-1.2,0-1.7
			c-0.1,0.7-0.2,1.3-0.3,2c0.1-0.4,0.2-0.7,0.3-1.1c-0.3,0.6-0.5,1.2-0.8,1.8c0.1-0.2,0.2-0.3,0.2-0.5c0.4-1-1.2,1.3-0.6,0.7
			c0.2-0.2,0.8-0.7-0.2,0.1c-1.1,0.9-0.1,0.2,0.2,0c-0.6,0.3-1.2,0.5-1.8,0.8c0.7-0.3,1.3-0.4,2.1-0.5c-0.7,0.1-1.3,0.2-2,0.3
			c1.2-0.1,2.3-0.2,3.5,0c-0.7-0.1-1.3-0.2-2-0.3c1.1,0.2,2.2,0.5,3.2,0.9c-0.6-0.3-1.2-0.5-1.8-0.8c0.4,0.2,0.9,0.4,1.3,0.6
			c0.2,0.1,0.4,0.2,0.5,0.3c0.6,0.4,0.7,0.9-0.7-0.5c0.1,0.2,0.6,0.7,0.8,0.8c-0.2-0.1-1.1-1.8-0.6-0.8c0.1,0.2,0.2,0.4,0.3,0.6
			c-0.3-0.6-0.5-1.2-0.8-1.8c0.1,0.2,0.2,0.5,0.2,0.7c-0.1-0.7-0.2-1.3-0.3-2c0,0.3,0,0.7,0,1c0.1-0.7,0.2-1.3,0.3-2
			c-0.1,0.4-0.2,0.7-0.3,1.1c0.3-0.6,0.5-1.2,0.8-1.8c-0.2,0.3-0.7,1.1,0.1,0.1c1-1.3-0.1-0.1-0.1,0c0.1-0.2,1.5-1,0.7-0.6
			c-0.3,0.2-0.6,0.3-0.9,0.5c0.6-0.3,1.2-0.5,1.8-0.8c-1.6,0.6-3.3,0.9-5,1.2c0.7-0.1,1.3-0.2,2-0.3c-1.9,0.3-3.9,0.4-5.8,0.1
			c0.7,0.1,1.3,0.2,2,0.3c-0.9-0.1-1.8-0.3-2.6-0.7c0.6,0.3,1.2,0.5,1.8,0.8c-0.4-0.2-0.7-0.3-1-0.5c-1.3-0.8,0.8,0.8,0.5,0.4
			c-0.1-0.1-0.2-0.2-0.3-0.3c-0.5-0.5-0.3-0.3,0.6,0.9c-0.2-0.4-0.4-0.7-0.6-1c0.3,0.6,0.5,1.2,0.8,1.8c-0.2-0.4-0.3-0.9-0.4-1.3
			c0.1,0.7,0.2,1.3,0.3,2c-0.1-0.6-0.1-1.1,0-1.7c-0.1,0.7-0.2,1.3-0.3,2c0.1-0.7,0.3-1.4,0.5-2c-0.3,0.6-0.5,1.2-0.8,1.8
			c0.2-0.5,0.5-0.9,0.8-1.4c0.4-0.7-1.3,1.4-0.4,0.5c0.2-0.2,0.4-0.4,0.6-0.6c0.5-0.6-1.4,1-0.7,0.5c0.3-0.2,0.6-0.4,0.9-0.6
			c0.6-0.4,1.2-0.7,1.9-0.9c-0.6,0.3-1.2,0.5-1.8,0.8c1.1-0.4,2.2-0.7,3.4-0.9c-0.7,0.1-1.3,0.2-2,0.3c2.9-0.4,5.9-0.1,8.8,0.1
			c3,0.2,6,0.5,8.9,0.9c-0.7-0.1-1.3-0.2-2-0.3c11.6,1.6,22.9,4.5,33.7,9.1c-0.6-0.3-1.2-0.5-1.8-0.8c8,3.4,15.7,7.6,22.7,12.8
			c0.3,0.2,0.5,0.4,0.8,0.6c0.7,0.5-1.9-1.5-1.1-0.8c0.1,0.1,0.3,0.2,0.4,0.3c0.4,0.3,0.8,0.6,1.2,1c0.5,0.4,1,0.8,1.5,1.3
			c2.9,2.7,5.7,5.5,8.4,8.4c1.2,1.3,2.4,2.7,3.6,4.1c0.3,0.3,0.6,0.7,0.8,1c0.1,0.2,0.3,0.4,0.4,0.5c0-0.1-1.1-1.5-0.5-0.7
			c0.6,0.8,1.2,1.6,1.7,2.4c2.3,3.3,4.2,6.7,5.8,10.4c-0.3-0.6-0.5-1.2-0.8-1.8c1.6,3.9,2.7,8,3.3,12.2c-0.1-0.7-0.2-1.3-0.3-2
			c0.7,5.4,0.5,10.9-0.2,16.3c0.1-0.7,0.2-1.3,0.3-2c-0.6,4.6-1.7,9.1-3.5,13.3c0.3-0.6,0.5-1.2,0.8-1.8c-0.7,1.6-1.5,3.2-2.4,4.7
			c-0.5,0.8-1,1.5-1.5,2.2c-0.1,0.2-0.3,0.4-0.4,0.5c-0.4,0.6,1.3-1.7,0.6-0.8c-0.3,0.3-0.6,0.7-0.9,1c-0.6,0.7-1.2,1.3-1.9,2
			c-0.3,0.3-0.7,0.6-1,0.9c-1.2,1,1.4-1,0.3-0.2c-1.6,1.2-3.4,2.2-5.2,2.9c0.6-0.3,1.2-0.5,1.8-0.8c-2.3,0.9-4.7,1.6-7.1,1.9
			c0.7-0.1,1.3-0.2,2-0.3c-2.9,0.4-5.9,0.4-8.8,0c0.7,0.1,1.3,0.2,2,0.3c-3.3-0.5-6.5-1.4-9.5-2.6c0.6,0.3,1.2,0.5,1.8,0.8
			c-1.8-0.8-3.5-1.6-5.2-2.7c-0.9-0.5-1.7-1.1-2.5-1.6c-0.4-0.3-0.8-0.6-1.2-0.8c-0.7-0.5,1.4,1.1,0.7,0.5c-0.2-0.2-0.5-0.4-0.7-0.6
			c-1.6-1.3-3-2.7-4.4-4.2c-0.7-0.8-1.4-1.6-2.1-2.4c0,0-0.5-0.6-0.5-0.6c0,0,1.2,1.6,0.4,0.4c-0.3-0.5-0.7-0.9-1-1.4
			c-1.1-1.6-2.5-2.9-4.5-3.4c-1.8-0.5-4.2-0.3-5.8,0.8C149.9,178.1,148,182.8,150.4,186.3L150.4,186.3z"/>
	</g>
</g>
</svg>
