<?xml version="1.0" encoding="utf-8"?>
<!-- Generator: Adobe Illustrator 23.0.6, SVG Export Plug-In . SVG Version: 6.00 Build 0)  -->
<svg version="1.1" id="Слой_1" xmlns="http://www.w3.org/2000/svg" xmlns:xlink="http://www.w3.org/1999/xlink" x="0px" y="0px"
	 viewBox="0 0 222.4 178.5" enable-background="new 0 0 222.4 178.5" xml:space="preserve">
<path fill="#CF649A" d="M179.1,98.1c-0.1,0-0.3,0.1-0.4,0.2c-5.4,3-11.3-1-11.3-6.9c-0.5-3,0.5-5.8,2.1-8.2c1.3-1.9,2.7-3.5,4.1-4.9
	c1-1.1,0.9-2.8-0.2-3.8c-10.2-8.1-26-1.1-28.1,13c0,0.1,0,0.2-0.1,0.3c-0.6,2-1.2,4.1-1.8,6.1c-0.6,2-1.1,3.9-1.7,5.8
	c-0.8,2.6-4.5,2.4-5-0.3c0,0,0-0.1,0-0.1c-0.4-2.5-0.5-5.1-0.4-7.5c0-0.1,0-0.2,0-0.3c1.1-6.3-1-12.2-7.9-12.2
	c-5,0-7.9,3.9-10.3,8.2c0,0.1-0.1,0.1-0.1,0.2c-1.1,2.4-2.1,5.3-3,8.4c-2.9,9.6-5.1,21.3-9.6,29.7c-1.4,2.6-5.3,1.2-4.8-1.7
	c1.3-7.9,5.4-15.5,3.9-23.7c-0.5-1.3-1.3-1.7-2.3-1.6c-1.6,0.2-3.1-1-2.9-2.7c0.3-3.3-0.1-6.8-3-9.1c-3.7-3.3-8.9-2.3-11.7-1.7
	c-2.3,0.5-4.4,1.3-6.2,2.3c-1.8,1-3.3,2.2-4.6,3.4c-0.1,0.1-0.2,0.2-0.3,0.3c-6,7.2-12,17-19.9,17c-19,1-30.9-22.9-32-41.9
	c0-0.1,0-0.2,0-0.2c0.1-11.9,8-20.9,18.2-26.6c2.4-1.4,4.9-2.5,7.2-3.5c4.7-1.9,8.9-3.1,11.5-3.8c2.8-0.8,5.9-1.4,9.1-2
	c3.2-0.5,6.4-0.9,9.7-1.2c0.1,0,0.1,0,0.2,0c10.1,0.1,23-2.8,30,6.1c1.7,2.2,2.4,4.3,2.4,6.3c-0.3,12.2-23.6,20.9-26.2,21.9
	c-5,1.8-7.5,2.7-11.2,2.8c-8.9,0.2-15.1-4.5-18.7-1.2c-0.3,0.3-0.9,1.1-1.3,2.2c-2,6,12,10,19.7,10.6c2,0.1,4.2,0.1,6.7,0
	c0,0,3.9-0.2,7.7-0.8c5.5-0.9,61.4-17.4,60-42.8c-1-17.8-33.5-30.2-54.2-33.3C64.8-3.1,31.1,5,12.4,29.4c-6.6,8.6-13.9,18-12.1,29.1
	c3.3,21.2,19.9,41.6,36.6,52.9c1.7,1.2,1.4,3.8-0.6,4.5c-10.2,3.5-19.9,9.8-26.6,18.1c-0.1,0.1-0.1,0.1-0.1,0.2
	c-1.7,2.4-3.1,5-4,7.6c-2.7,8-1.4,16.9,6.8,25.4c0.1,0.1,0.2,0.2,0.2,0.2c9,7.9,21.9,5.9,31.9,1.9c13.3-6,18.7-20,16.9-33.7
	c-0.4-3.4-1.3-6.8-2.7-10.1c-0.9-3-2.1-4.8-3.5-6.7c-0.9-1.3-0.5-3.1,1-3.8c1.7-0.8,3.5-1.6,5.3-2.4c1.9-0.9,4.1,0.9,3.5,3
	c-0.1,0.2-0.1,0.5-0.2,0.7c0,0.1,0,0.1-0.1,0.2c-0.5,2-0.8,4.1-1,6.2c-0.8,8.5,0.7,17,6.6,23.8c1.8,1.7,4,1.8,5.4,1.8
	c2.4,0,4.2-1,5.6-2.6c2-2.1,3.5-4.4,4.8-6.8c1.1-2.2,4.5-1.6,4.8,0.9c0.4,3.2,1.5,5.4,4.7,4.4c18.3-5.5,20.7-26.9,27.9-43.5
	c0.9-2.1,3.8-2,4.7,0c5.4,12.4-0.9,26.9-9.9,37.5c-1,1.2-0.7,3,0.6,3.8c7.4,4.9,19.1,3.3,22.7-3.9c5.8-13.3,3.3-29.4,9.9-42
	c0.8-1.6,1.8-3.2,3-4.6c1.1-1.4,3.3-1.2,4.2,0.3c0.8,1.3,1.4,2.6,1.7,4c3.1,11.3-8.5,23.7-6.8,35.3c2,11,17,6,22.4-2
	c1.5-1.7,2.7-3.6,3.6-5.6c2.3-4.9,2.5-10.1-1.2-14.7c-1.1-1.4-0.5-3.5,1.3-4c0.5-0.2,1.1-0.3,1.6-0.6c0.2-0.1,0.5-0.2,0.7-0.2
	c2.1-0.3,4.2-0.3,6.2,0.1c4.1,0.8,7.4,3,7.4,7c0.3,2.9,0.1,5.6-0.5,8.1c-0.5,2.5-1.4,4.8-2.5,7c0,0.1-0.1,0.2-0.1,0.3
	c-1.9,2.9-3.9,5.6-6.2,7.9c0,0-3.5,3.7-7.3,6.5c-10.7,8-27.4,12.2-27.4,12.2c-20.4,5.1-34.1,3.9-34.2,5.7c-0.1,1.5,8.1,3.4,15.2,4.3
	c4.4,0.6,19.9,2.2,42-4c0,0,30.9-8.7,43.9-24.9c0.1-0.1,0.2-0.3,0.2-0.3c4.9-6.9,4.9-14.8,1.9-22.7c0-0.1-0.1-0.2-0.1-0.3
	c-6-12.9-21-16.9-34.2-14.8C182.6,97,180,97.8,179.1,98.1z M40.1,148c-6.4,7.1-15.5,9.7-19.4,7.5c-4.2-2.4-2.5-12.8,5.4-20.3
	c4.8-4.6,11.1-8.8,15.2-11.4c0.9-0.6,2.3-1.4,4-2.4c0.3-0.2,0.4-0.3,0.4-0.3c0.3-0.2,0.7-0.4,1-0.6C49.7,131.2,46.9,140.6,40.1,148
	L40.1,148z M83.4,116.4c-4.5,11.3-4.6,18.5-6,18.4c-1.6-0.1-2.9-10-1-19.4c0.9-4.5,2.3-11.5,8.2-16.5c2.6-2.2,7.1-4.8,8.4-3.6
	C94.7,96.8,88.5,103.3,83.4,116.4z M126.1,134.6c-1,0.5-1.8,0.8-2.2,0.6c-0.3-0.2,0.4-0.8,0.4-0.8s4.9-5.2,6.8-7.6
	c1.1-1.4,2.4-3,3.8-4.9v0.5C134.9,128.6,128.8,132.9,126.1,134.6L126.1,134.6z M156.1,127.7c-0.7-0.5-0.6-2.1,1.8-7.2
	c0.9-2,3-5.4,6.7-8.6c0.4,1.3,0.7,2.6,0.7,3.8C165.1,123.6,159.5,126.5,156.1,127.7z"/>
<g>
	<path fill="#CF649A" d="M219,121.5c2.5,7.5-2.7,15-5.1,22.6c-2.8,9-1.4,18.8-1.6,28.3c0,2.3-1.5,5.4-3.5,4.4
		c-1.3-0.6-1.3-2.5-1.2-4c0.4-4.4,0.1-8.8-1-13c-0.5-2.1-1.3-4.4-3.1-5.7c-1.8-1.3-4.8-1-5.7,1c-0.4,0.9-0.3,1.9-0.6,2.8
		c-0.3,0.9-1.2,1.8-2.1,1.5c-0.8-0.3-1.1-1.4-1.8-1.7c-2.1-0.9-2.3,4.4-4.6,4.3c-1.5-2.2-4.2-4.7-6.5-3.4c-1,0.6-1.6,1.8-2.7,2.2
		c-0.8,0.3-1.7,0.1-2.6-0.1c-3.7-0.8-7.3-1.7-11-2.5c-0.6-0.1-1.2-0.3-1.6-0.6c-1.8-1.4-0.3-4.3,1.4-5.8c6.9-6.2,16.2-8.7,25-11.9
		c8.7-3.2,17.8-7.6,22.2-15.7c0.7-1.3,1.3-2.6,2.4-3.5c1.1-0.9,3-1.1,3.9,0"/>
	<g>
		<path fill="#CF649A" d="M217.5,121.9c2.4,7.4-2.8,14.8-5,21.6c-2.5,8-1.9,16.4-1.7,24.7c0,1.7,0.3,3.7-0.1,5.4
			c-0.1,0.5-0.8,2.7-1.5,1.6c-0.3-0.5-0.2-1.4-0.1-2c0.1-1,0.2-2.1,0.2-3.1c0-2.1-0.1-4.2-0.4-6.3c-0.5-3.4-1.1-7.4-3.5-10
			c-2-2.1-5.6-2.8-7.8-0.7c-0.6,0.6-1.1,1.3-1.3,2.1c-0.2,0.5-0.2,1.1-0.3,1.6c0,0.2-0.2,1.1-0.3,1.2c0,0,0.1,0.1-0.1-0.1
			c-0.2-0.2-0.3-0.4-0.4-0.6c-0.2-0.3-0.5-0.5-0.8-0.7c-0.6-0.4-1.3-0.5-2-0.4c-1.1,0.3-1.8,1.3-2.3,2.2c-0.3,0.5-0.9,2.1-1.3,2.1
			c0.4,0.2,0.9,0.5,1.3,0.7c-1.6-2.2-4.2-5-7.2-4.4c-1.4,0.3-2.2,1.2-3.2,2.2c-1.2,1.1-3.7,0-5.1-0.3c-1.8-0.4-3.5-0.8-5.3-1.2
			c-1-0.2-1.9-0.4-2.9-0.7c-0.6-0.1-1.2-0.2-1.4-0.9c-0.2-1.1,1.1-2.4,1.8-3c1.2-1.1,2.6-2.1,4-3c10.6-6.7,23.7-8.1,34.2-15.2
			c2.7-1.8,5.2-4,7.2-6.6c1-1.3,1.8-2.7,2.6-4.2c0.5-0.9,2.1-3.5,3.4-2.2c1.4,1.4,3.5-0.7,2.1-2.1c-1.1-1.2-2.8-1.4-4.3-0.9
			c-1.7,0.6-2.7,1.9-3.6,3.4c-1.7,3-3.5,5.7-6.2,8c-5.3,4.6-12.1,7.1-18.6,9.4c-7,2.5-14.3,4.8-20.3,9.2c-2.4,1.8-5.7,4.4-5.1,7.8
			c0.3,1.6,1.5,2.6,3,3c2,0.6,4.2,1,6.2,1.4c2.2,0.5,4.3,1.2,6.5,1.4c1.9,0.2,3.1-0.6,4.4-1.9c0.6-0.6,1.1-1,1.9-0.8
			c0.8,0.2,1.5,0.9,2.1,1.4c0.5,0.5,0.9,1.3,1.5,1.8c0.6,0.6,1.5,0.5,2.2,0.2c1-0.4,1.7-1.3,2.2-2.2c0.2-0.4,0.4-0.9,0.7-1.3
			c0.1-0.2,0.3-0.4,0.3-0.5c0.1-0.2,0.1-0.1,0.1-0.1c0,0-0.4,0-0.4,0c0,0.1,0-0.9,0.1,0.1c0,0.2,0.5,0.7,0.6,0.8
			c0.5,0.6,1.2,1,2.1,1c1.8,0,3-1.6,3.3-3.2c0.3-1.5,0.2-2.9,2.1-2.9c1.5,0,2.6,1.1,3.2,2.4c0.8,1.6,1.2,3.5,1.5,5.3
			c0.4,2.1,0.6,4.2,0.6,6.4c0,2.8-1.4,7.8,2,9.3c3.1,1.4,5.1-2.1,5.5-4.6c0.3-1.9,0.1-3.9,0.1-5.8c0-2.1-0.1-4.2-0.2-6.3
			c-0.1-4.2-0.1-8.4,0.7-12.6c1.4-7.7,6.4-14.4,6.8-22.2c0.1-1.8-0.1-3.7-0.7-5.4C219.8,119.3,216.9,120.1,217.5,121.9L217.5,121.9z
			"/>
	</g>
</g>
</svg>
