<?xml version="1.0" encoding="utf-8"?>
<!-- Generator: Adobe Illustrator 23.0.6, SVG Export Plug-In . SVG Version: 6.00 Build 0)  -->
<svg version="1.1" id="Слой_1" xmlns="http://www.w3.org/2000/svg" xmlns:xlink="http://www.w3.org/1999/xlink" x="0px" y="0px"
	 viewBox="0 0 261.38 210.52" enable-background="new 0 0 261.38 210.52" xml:space="preserve">
<g>
	<path fill="#4DBA87" d="M28.19,71.51c2.35,2.36,4.57,4.56,7.65,7.91c5.06,5.49,9.86,11.22,14.43,17.12
		c-1.49-1.92-2.97-3.85-4.46-5.77c12.31,15.94,22.94,33.1,32.79,50.65c4.95,8.83,9.72,17.76,14.41,26.73
		c2.34,4.47,4.67,8.95,7,13.44c1.06,2.04,2.06,4.15,3.28,6.1c1.8,2.86,3.97,5.58,6.16,8.12c0.31,0.36,0.63,0.7,0.97,1.02
		c0.17,0.16,0.34,0.3,0.52,0.45c1.88,1.6,4.25,3.5,6.31,4.86c0.37,0.25,0.75,0.46,1.15,0.66c1.98,0.98,5.01,2.27,7.11,3
		c0.26,0.09,0.52,0.19,0.78,0.25c6.24,1.58,11.57,1.53,17.81,0.08c0.5-0.12,0.97-0.27,1.45-0.45c2.25-0.86,5.01-1.95,7.16-3.03
		c0.23-0.12,0.46-0.23,0.68-0.37c1.48-0.87,2.88-2.11,4.18-3.12c1.43-1.11,2.92-2.16,4.25-3.4c3.56-3.31,6.82-7.01,10.06-10.62
		c8.07-9,15.57-18.54,22.7-28.31c11.53-15.79,21.47-32.73,29.65-50.49c9.19-19.94,16.85-40.57,21.87-61.96
		c0.47-1.99,0.75-3.59,1.57-7.08c5.36-22.82,9.31-27.37,7.32-31.6c-1.9-4.03-9.21-7.74-34.8-4.48c-5.14,0.02-9.94,1.31-14.38,3.89
		c-1.92,1.49-3.85,2.97-5.77,4.46c-3.53,3.56-5.98,7.75-7.33,12.58c-3,14.34-7.08,28.44-12.21,42.15c-1.45,3.88-2.99,7.73-4.6,11.55
		c0.96-2.27,1.92-4.54,2.87-6.81c-7.68,18.13-17.15,35.49-28.27,51.74c-3.16,4.62-6.46,9.14-9.87,13.57
		c1.49-1.92,2.97-3.85,4.46-5.77c-3.85,4.97-7.84,9.82-12,14.54c-2.06,2.33-4.15,4.63-6.28,6.89c-2.13,2.26-4.23,4.67-6.66,6.61
		c1.92-1.49,3.85-2.97,5.77-4.46c-0.74,0.55-1.49,1.03-2.33,1.41c2.27-0.96,4.54-1.92,6.81-2.87c-0.6,0.24-1.19,0.41-1.82,0.51
		c2.53-0.34,5.05-0.68,7.58-1.02c-0.49,0.05-0.96,0.05-1.46,0.01c2.53,0.34,5.05,0.68,7.58,1.02c-0.56-0.08-1.08-0.21-1.6-0.41
		c2.27,0.96,4.54,1.92,6.81,2.87c-0.62-0.27-1.18-0.59-1.72-0.99c1.92,1.49,3.85,2.97,5.77,4.46c-0.83-0.65-1.55-1.41-2.21-2.23
		c1.49,1.92,2.97,3.85,4.46,5.77c-1.55-2.03-2.67-4.32-3.85-6.57c-1.24-2.4-2.49-4.79-3.73-7.19c-2.6-4.99-5.2-9.98-7.84-14.95
		c-5.24-9.89-10.61-19.71-16.26-29.37C109.8,81.67,95.92,61.47,79.83,43.2c-2.78-3.15-6.78-7.99-12.85-13.47
		c-8.51-7.69-15.5-14-24.98-17c-12.04-3.81-33.28-3.93-40,9c-5.63,10.84,2.28,24.44,3.45,26.38C15.3,58.47,22.93,66.23,28.19,71.51z
		"/>
</g>
<g>
	<path fill="#435466" d="M73.13,69.41c0.89,1.33,2.88,4.32,5.55,8.24c4.62,6.77,6.51,9.35,11.2,16.08
		c7.37,10.59,14.74,21.18,22.12,31.77c0.37,0.53,0.74,1.05,1.13,1.57c0,0,2.65,3.6,5.17,6.53c12.16,14.12,22.72,14.13,22.72,14.13
		c9.75,0,17.46-8.42,23.38-14.9c2.61-2.86,4.29-5.26,4.83-6.04c16.62-24.04,26.17-48.98,26.17-48.98
		c18.66-48.7,38.29-68.38,31.07-75.74c-2.69-2.74-9.56-1.5-23.3,0.97c-18.32,3.3-27.48,4.95-34.96,9.71
		c-12.2,7.77-20.65,27.59-37.57,67.22c-1.23,2.89-2.66,5.83-4.61,10.06c-1.32,2.87-2.46,5.93-4.4,8.46c1.44-1.87,2.88-3.73,4.33-5.6
		c-0.51,0.63-1.06,1.2-1.69,1.72c1.87-1.44,3.73-2.88,5.6-4.33c-0.43,0.32-0.87,0.59-1.35,0.82c2.2-0.93,4.41-1.86,6.61-2.79
		c-0.38,0.15-0.75,0.25-1.16,0.32c2.45-0.33,4.9-0.66,7.36-0.99c-0.31,0.03-0.59,0.03-0.91,0c2.45,0.33,4.9,0.66,7.36,0.99
		c-0.33-0.05-0.62-0.12-0.93-0.23c2.2,0.93,4.41,1.86,6.61,2.79c-0.45-0.19-0.83-0.41-1.22-0.7c1.87,1.44,3.73,2.88,5.6,4.33
		c-0.46-0.39-0.86-0.82-1.24-1.29c1.44,1.87,2.88,3.73,4.33,5.6c-2.16-2.8-4.09-5.81-6.11-8.71c-2.07-2.98-4.15-5.96-6.22-8.94
		c-4.19-6.02-8.39-12.05-12.58-18.07c-4.15-5.96-8.29-11.91-12.44-17.87c-4.66-6.7-9.45-13.37-14.79-19.54
		c-3.22-3.73-5-5.44-6.87-6.89c-6.33-4.9-13.18-6.36-43.43-7.32c-14.52-0.46-15.64-0.21-16.51,0.97
		C39.08,16.71,43.53,25.04,73.13,69.41z"/>
</g>
<g>
	<path fill="#435466" d="M180,50.73c-10.56,8.87,5.16,40.78,6.84,56.27c0.1,0.94,0.41,4.27,1.51,4.39c1.42,0.15,2.21-1.6,2.45-3.01
		c0.55-3.28,0.59-6.65,0.1-9.95c-0.26-1.79-0.68-3.6-0.38-5.39s1.54-3.57,3.33-3.81c1.37,0.8,0.07,3.13,0.96,4.44
		c0.64,0.95,2.18,0.83,3.01,0.05c0.83-0.78,1.13-1.96,1.35-3.09c1.51-7.89,0.81-16.01,0.11-24.01c-0.65-7.44-1.02-9.12-2.4-11.42
		c-0.61-1.02-3.65-6.09-8.9-6.76C185.2,48.09,182.06,49,180,50.73z"/>
</g>
<g>
	<path fill="#4DBA87" d="M47.5,125.23c-2.29,0.31-4.41,4.64-2.87,6.65c0.8,1.05,2.61,1.47,3.85,0.84c1.42-0.72,1.58-2.55,1.73-4.21
		c0.08-0.89,0.14-1.64-0.34-2.3C49.33,125.46,48.3,125.12,47.5,125.23z"/>
	<g>
		<path fill="#4DBA87" d="M47.1,123.78c-1.65,0.25-3,1.79-3.69,3.21c-0.8,1.64-1.16,3.6-0.3,5.28c0.96,1.89,3.66,2.73,5.59,1.97
			c1.18-0.46,1.94-1.31,2.41-2.46c0.37-0.9,0.47-1.89,0.56-2.85c0.13-1.33,0.17-2.61-0.69-3.72c-0.78-1.01-2.2-1.64-3.48-1.49
			c-0.78,0.09-1.54,0.63-1.5,1.5c0.03,0.74,0.66,1.59,1.5,1.5c0.16-0.02,0.32-0.01,0.48-0.01c0.33,0-0.32-0.1,0,0.01
			c0.07,0.02,0.14,0.03,0.2,0.05c0.03,0.01,0.07,0.02,0.1,0.03c0.15,0.06,0.13,0.05-0.07-0.03c0.02-0.01,0.19,0.1,0.19,0.1
			c0.03,0.02,0.06,0.04,0.09,0.06c0.13,0.09,0.12,0.08-0.05-0.05c0.04,0.01,0.23,0.2,0.23,0.22c-0.03-0.05-0.07-0.09-0.1-0.14
			c0.03,0.05,0.07,0.09,0.09,0.14c0.15,0.26-0.04,0.05,0.01-0.01c0,0,0.05,0.18,0.06,0.2c0.12,0.32,0-0.32,0.01,0.03
			c0.02,0.41-0.01,0.82-0.05,1.23c-0.02,0.18-0.03,0.36-0.05,0.53c-0.01,0.09-0.02,0.18-0.03,0.27c0,0.03-0.05,0.38-0.01,0.12
			c0.04-0.26-0.02,0.09-0.02,0.12c-0.01,0.09-0.03,0.17-0.05,0.26c-0.04,0.19-0.08,0.37-0.13,0.56c-0.01,0.04-0.11,0.47-0.16,0.47
			c0.02-0.06,0.05-0.12,0.07-0.18c-0.03,0.06-0.06,0.12-0.09,0.17c-0.03,0.06-0.06,0.11-0.09,0.17c-0.02,0.04-0.21,0.26-0.04,0.08
			c0.18-0.19-0.04,0.04-0.07,0.06c-0.05,0.06-0.12,0.1-0.17,0.16c-0.09,0.07-0.05,0.04,0.11-0.09c-0.05,0.04-0.11,0.07-0.17,0.1
			c0.01,0-0.17,0.1-0.18,0.09c0.06-0.03,0.12-0.05,0.17-0.08c-0.06,0.02-0.13,0.04-0.19,0.06c-0.06,0.02-0.13,0.03-0.2,0.05
			c-0.33,0.1,0.34,0,0,0c-0.17,0-0.34,0-0.52,0c-0.24,0,0.09,0.02,0.09,0.02c-0.03,0.03-0.31-0.06-0.35-0.08
			c-0.08-0.02-0.16-0.05-0.25-0.08c-0.29-0.08,0.08,0.04,0.07,0.04c-0.1,0.02-0.35-0.19-0.44-0.24c-0.29-0.16,0.22,0.23-0.01,0
			c-0.05-0.05-0.1-0.09-0.14-0.13c-0.14-0.15-0.1-0.25,0,0.03c-0.02-0.07-0.09-0.13-0.12-0.19c-0.03-0.05-0.05-0.12-0.09-0.17
			c-0.1-0.16,0.13,0.38,0.05,0.11c-0.04-0.13-0.08-0.25-0.1-0.38c-0.08-0.4,0.02,0.34-0.01-0.08c-0.01-0.17-0.01-0.33,0.01-0.5
			c0-0.05,0.02-0.12,0.02-0.17c0.04,0.35-0.04,0.23,0,0.05c0.02-0.13,0.05-0.26,0.09-0.39c0.04-0.15,0.08-0.29,0.13-0.43
			c0.02-0.07,0.05-0.14,0.08-0.21c0.1-0.27,0.09-0.06-0.01,0.02c0.1-0.09,0.17-0.36,0.24-0.49c0.09-0.16,0.18-0.31,0.28-0.46
			c0.03-0.05,0.07-0.1,0.1-0.15c0.24-0.34-0.14,0.15,0.03-0.05c0.1-0.11,0.19-0.22,0.29-0.32c0.11-0.12,0.26-0.21,0.37-0.33
			c-0.24,0.27-0.18,0.13-0.05,0.05c0.06-0.04,0.13-0.08,0.2-0.12c0.05-0.03,0.11-0.06,0.17-0.09c0.29-0.16-0.31,0.08-0.05,0.02
			c0.14-0.03,0.27-0.08,0.41-0.1c0.78-0.12,1.28-1.14,1.05-1.85C48.67,123.98,47.94,123.65,47.1,123.78z"/>
	</g>
</g>
<g>
	<g>
		<path fill="#4DBA87" d="M29.55,106.06c1.93,0,1.93-3,0-3C27.62,103.06,27.62,106.06,29.55,106.06L29.55,106.06z"/>
	</g>
</g>
<g>
	<path fill="#4DBA87" d="M259.79,22.83c0.5-1.64-1.16-4.04-2.65-3.43c-0.78,0.32-1.52,1.46-1.55,2.45c-0.03,1.13,0.88,1.64,1.7,2.11
		c0.44,0.25,0.82,0.45,1.3,0.27C259.14,24.03,259.62,23.4,259.79,22.83z"/>
	<g>
		<path fill="#4DBA87" d="M261.24,23.23c0.35-1.22,0.03-2.67-0.71-3.69c-0.39-0.54-0.85-1.05-1.45-1.36
			c-0.68-0.34-1.43-0.48-2.18-0.28c-1.6,0.45-2.62,2.17-2.78,3.74c-0.09,0.88,0.23,1.69,0.77,2.36c0.38,0.47,0.91,0.82,1.43,1.12
			c0.37,0.22,0.76,0.44,1.18,0.56c0.67,0.21,1.38,0.1,1.98-0.22C260.34,25.02,260.94,24.14,261.24,23.23
			c0.24-0.75-0.28-1.67-1.05-1.85c-0.82-0.19-1.59,0.25-1.85,1.05c-0.02,0.07-0.05,0.13-0.07,0.2c0.05-0.12,0.1-0.24,0.15-0.36
			c-0.09,0.21-0.2,0.4-0.34,0.58c0.08-0.1,0.16-0.2,0.23-0.3c-0.13,0.16-0.26,0.3-0.42,0.42c0.1-0.08,0.2-0.16,0.3-0.23
			c-0.1,0.07-0.2,0.13-0.3,0.18c0.12-0.05,0.24-0.1,0.36-0.15c-0.1,0.04-0.2,0.07-0.31,0.09c0.13-0.02,0.27-0.04,0.4-0.05
			c-0.08,0.01-0.15,0.01-0.23,0c0.13,0.02,0.27,0.04,0.4,0.05c-0.13-0.02-0.25-0.05-0.37-0.1c0.12,0.05,0.24,0.1,0.36,0.15
			c-0.46-0.2-0.91-0.48-1.31-0.77c0.1,0.08,0.2,0.16,0.3,0.23c-0.18-0.14-0.35-0.29-0.49-0.47c0.08,0.1,0.16,0.2,0.23,0.3
			c-0.09-0.12-0.16-0.24-0.22-0.37c0.05,0.12,0.1,0.24,0.15,0.36c-0.06-0.14-0.1-0.29-0.12-0.44c0.02,0.13,0.04,0.27,0.05,0.4
			c-0.02-0.17-0.02-0.33,0-0.5c-0.02,0.13-0.04,0.27-0.05,0.4c0.04-0.27,0.11-0.52,0.21-0.77c-0.05,0.12-0.1,0.24-0.15,0.36
			c0.12-0.27,0.27-0.53,0.45-0.77c-0.08,0.1-0.16,0.2-0.23,0.3c0.15-0.18,0.31-0.34,0.49-0.49c-0.1,0.08-0.2,0.16-0.3,0.23
			c0.12-0.09,0.24-0.16,0.37-0.22c-0.12,0.05-0.24,0.1-0.36,0.15c0.1-0.04,0.19-0.06,0.3-0.08c-0.13,0.02-0.27,0.04-0.4,0.05
			c0.13-0.02,0.26-0.02,0.39,0c-0.13-0.02-0.27-0.04-0.4-0.05c0.13,0.02,0.26,0.06,0.39,0.11c-0.12-0.05-0.24-0.1-0.36-0.15
			c0.16,0.07,0.31,0.17,0.46,0.28c-0.1-0.08-0.2-0.16-0.3-0.23c0.18,0.15,0.34,0.31,0.48,0.49c-0.08-0.1-0.16-0.2-0.23-0.3
			c0.19,0.24,0.34,0.5,0.46,0.78c-0.05-0.12-0.1-0.24-0.15-0.36c0.12,0.28,0.2,0.57,0.24,0.87c-0.02-0.13-0.04-0.27-0.05-0.4
			c0.02,0.21,0.03,0.43,0,0.64c0.02-0.13,0.04-0.27,0.05-0.4c-0.02,0.11-0.04,0.22-0.07,0.33c-0.22,0.75,0.26,1.67,1.05,1.85
			C260.19,24.46,261,24.04,261.24,23.23z"/>
	</g>
</g>
<g>
	<path fill="#4DBA87" d="M50.5,143.73c0,0.05,0,0.79,0,1.13c0,0.18,0,0.25,0,0.14c0-0.12,0-0.43,0-0.72c0-0.15,0-0.28,0-0.39
		C50.5,143.77,50.5,143.71,50.5,143.73z"/>
	<g>
		<path fill="#4DBA87" d="M49,143.73c-0.01,0.19,0,0.38,0,0.57c0,0.14,0,0.27,0,0.41c0,0.11-0.01,0.23,0,0.35
			c-0.01,0.21,0.04,0.4,0.13,0.58c0.06,0.19,0.16,0.35,0.31,0.48c0.1,0.08,0.2,0.16,0.3,0.23c0.17,0.11,0.36,0.17,0.56,0.18
			c0.13,0.04,0.27,0.04,0.4,0c0.2-0.01,0.39-0.07,0.56-0.18c0.1-0.08,0.2-0.16,0.3-0.23c0.19-0.19,0.31-0.41,0.39-0.66
			c0,0,0.05-0.4,0.05-0.4c0,0,0-0.01,0-0.01c0-0.02,0-0.04,0-0.06c0-0.05,0-0.09,0-0.14c0-0.14,0-0.28,0-0.41c0-0.14,0-0.29,0-0.43
			c0-0.07,0-0.13,0-0.2c0-0.16-0.02-0.27-0.05-0.47c-0.05-0.12-0.1-0.24-0.15-0.36c-0.09-0.17-0.22-0.32-0.39-0.42
			c-0.09-0.09-0.2-0.16-0.33-0.19c-0.18-0.09-0.37-0.14-0.58-0.13c-0.13,0.02-0.27,0.04-0.4,0.05c-0.12,0.05-0.24,0.1-0.36,0.15
			c-0.17,0.09-0.32,0.22-0.42,0.39c-0.13,0.14-0.22,0.31-0.27,0.51C49.05,143.35,49,143.71,49,143.73c-0.01,0.21,0.04,0.4,0.13,0.58
			c0.06,0.19,0.16,0.35,0.31,0.48c0.14,0.15,0.3,0.25,0.48,0.31c0.18,0.09,0.37,0.14,0.58,0.13c0.13-0.02,0.27-0.04,0.4-0.05
			c0.25-0.07,0.47-0.2,0.66-0.39c0.08-0.1,0.16-0.2,0.23-0.3c0.14-0.23,0.2-0.49,0.2-0.76c0,0,0,0,0,0
			c-0.02,0.13-0.04,0.27-0.05,0.4c0,0,0,0,0,0c-0.96,0-1.93,0-2.89,0c0,0,0,0,0,0C49.04,144,49.02,143.86,49,143.73
			c0.01,0.23,0,0.46,0,0.7c0,0.21,0.01,0.42,0,0.63c0.02-0.13,0.04-0.27,0.05-0.4c0,0,0,0,0,0c0.98,0.13,1.96,0.27,2.95,0.4
			c-0.01-0.11,0-0.23,0-0.34c0-0.14,0-0.27,0-0.41c0-0.19,0-0.38,0-0.57c0.01-0.21-0.04-0.4-0.13-0.58
			c-0.06-0.19-0.16-0.35-0.31-0.48c-0.14-0.15-0.3-0.25-0.48-0.31c-0.18-0.09-0.37-0.14-0.58-0.13c-0.13,0.02-0.27,0.04-0.4,0.05
			c-0.25,0.07-0.47,0.2-0.66,0.39c-0.08,0.1-0.16,0.2-0.23,0.3C49.07,143.21,49,143.46,49,143.73z"/>
	</g>
</g>
<g>
	<path fill="#4DBA87" d="M34.11,94.73c-0.74,0.05-1.42,0.79-0.92,1.13c0.26,0.18,0.84,0.25,1.24,0.14c0.46-0.12,0.51-0.43,0.56-0.72
		c0.03-0.15,0.04-0.28-0.11-0.39C34.7,94.77,34.37,94.71,34.11,94.73z"/>
	<g>
		<path fill="#4DBA87" d="M34.11,93.23c-0.23,0.02-0.46,0.04-0.68,0.11c-0.05,0.01-0.09,0.03-0.14,0.05
			c-0.16,0.07-0.33,0.13-0.48,0.21c-0.2,0.1-0.37,0.25-0.54,0.39c-0.16,0.13-0.28,0.31-0.41,0.48c-0.02,0.03-0.05,0.06-0.07,0.1
			c-0.08,0.14-0.14,0.3-0.19,0.45c-0.01,0.03-0.02,0.06-0.02,0.1c-0.02,0.14-0.05,0.29-0.06,0.43c0,0.02,0,0.04,0,0.06
			c0,0.08,0.04,0.33,0.05,0.41c0,0.01,0,0.02,0.01,0.03c0,0.02,0.01,0.03,0.01,0.05c0.04,0.12,0.1,0.27,0.16,0.39
			c0.01,0.02,0.02,0.03,0.03,0.05c0.07,0.11,0.17,0.24,0.26,0.33c0.01,0.01,0.03,0.03,0.04,0.04c0.1,0.09,0.22,0.18,0.33,0.26
			c0.02,0.01,0.04,0.03,0.06,0.04c0.14,0.08,0.3,0.14,0.45,0.2c0.05,0.02,0.09,0.04,0.14,0.05c0.22,0.06,0.46,0.08,0.69,0.11
			c0.12,0.01,0.24,0.02,0.35,0.01c0.18-0.01,0.36-0.04,0.53-0.07c0.05-0.01,0.11-0.02,0.16-0.03c0.11-0.03,0.22-0.08,0.32-0.12
			c0.1-0.04,0.21-0.08,0.31-0.14c0.3-0.21,0.49-0.38,0.69-0.69c0.02-0.03,0.04-0.07,0.06-0.11c0.07-0.15,0.14-0.3,0.19-0.46
			c0.02-0.07,0.04-0.15,0.05-0.23c0.03-0.18,0.06-0.35,0.07-0.53c0-0.03,0-0.05,0-0.07c-0.01-0.09-0.04-0.32-0.05-0.41
			c0-0.01-0.01-0.03-0.01-0.04c-0.02-0.06-0.09-0.22-0.08-0.2c-0.02-0.04-0.05-0.15-0.09-0.21c-0.01-0.01-0.01-0.02-0.02-0.03
			c-0.06-0.1-0.17-0.24-0.25-0.32c-0.06-0.06-0.15-0.12-0.21-0.17c-0.07-0.05-0.13-0.11-0.21-0.15c-0.13-0.07-0.28-0.13-0.42-0.18
			c-0.03-0.01-0.06-0.02-0.08-0.03c-0.06-0.02-0.12-0.04-0.19-0.05C34.63,93.26,34.37,93.22,34.11,93.23
			c-0.21-0.01-0.4,0.04-0.58,0.13c-0.19,0.06-0.35,0.16-0.48,0.31c-0.15,0.14-0.25,0.3-0.31,0.48c-0.09,0.18-0.14,0.37-0.13,0.58
			c0.02,0.39,0.14,0.79,0.44,1.06c0.28,0.26,0.66,0.46,1.06,0.44c0.1-0.01,0.2,0,0.3,0.01c-0.13-0.02-0.27-0.04-0.4-0.05
			c0.12,0.02,0.23,0.04,0.34,0.09c-0.12-0.05-0.24-0.1-0.36-0.15c0.04,0.02,0.08,0.04,0.12,0.07c-0.1-0.08-0.2-0.16-0.3-0.23
			c0.03,0.02,0.05,0.05,0.08,0.07c-0.08-0.1-0.16-0.2-0.23-0.3c0.01,0.02,0.02,0.04,0.03,0.06c-0.05-0.12-0.1-0.24-0.15-0.36
			c0.01,0.02,0.01,0.04,0.02,0.06c-0.02-0.13-0.04-0.27-0.05-0.4c0,0.04,0,0.09,0,0.13c0.02-0.13,0.04-0.27,0.05-0.4
			c-0.02,0.14-0.04,0.28-0.1,0.41c0.05-0.12,0.1-0.24,0.15-0.36c-0.02,0.05-0.05,0.09-0.08,0.13c0.08-0.1,0.16-0.2,0.23-0.3
			c-0.03,0.04-0.06,0.07-0.1,0.1c0.1-0.08,0.2-0.16,0.3-0.23c-0.05,0.04-0.1,0.07-0.16,0.1c0.12-0.05,0.24-0.1,0.36-0.15
			c-0.1,0.04-0.2,0.06-0.31,0.08c0.13-0.02,0.27-0.04,0.4-0.05c-0.18,0.02-0.36,0.02-0.54,0c0.13,0.02,0.27,0.04,0.4,0.05
			c-0.13-0.02-0.26-0.05-0.38-0.1c0.12,0.05,0.24,0.1,0.36,0.15c-0.06-0.02-0.11-0.05-0.16-0.09c0.1,0.08,0.2,0.16,0.3,0.23
			c-0.03-0.02-0.06-0.05-0.08-0.08c0.08,0.1,0.16,0.2,0.23,0.3c-0.02-0.03-0.04-0.05-0.05-0.09c0.05,0.12,0.1,0.24,0.15,0.36
			c-0.01-0.03-0.02-0.05-0.02-0.08c0.02,0.13,0.04,0.27,0.05,0.4c0-0.03,0-0.06,0-0.1c-0.02,0.13-0.04,0.27-0.05,0.4
			c0.01-0.05,0.02-0.09,0.04-0.13c-0.05,0.12-0.1,0.24-0.15,0.36c0.03-0.06,0.06-0.11,0.1-0.16c-0.08,0.1-0.16,0.2-0.23,0.3
			c0.06-0.07,0.13-0.14,0.2-0.2c-0.1,0.08-0.2,0.16-0.3,0.23c0.1-0.07,0.2-0.13,0.31-0.18c-0.12,0.05-0.24,0.1-0.36,0.15
			c0.12-0.05,0.24-0.08,0.36-0.1c-0.13,0.02-0.27,0.04-0.4,0.05c0.03,0,0.05-0.01,0.08-0.01c0.21,0.01,0.4-0.04,0.58-0.13
			c0.19-0.06,0.35-0.16,0.48-0.31c0.15-0.14,0.25-0.3,0.31-0.48c0.09-0.18,0.14-0.37,0.13-0.58c-0.02-0.39-0.14-0.79-0.44-1.06
			C34.89,93.41,34.5,93.2,34.11,93.23z"/>
	</g>
</g>
<g>
	<path fill="#4DBA87" d="M42.5,103.23c-0.01,2.02-0.32,9.46,4.46,13.78c2.99,2.7,6.95,3.26,9.9,3.29
		c-1.29,7.52,8.37,12.78,9.24,20.36c0.47,4.05-1.71,8.03-1.47,12.1s5.64,7.99,8.13,4.75c0.86-1.12,0.93-2.65,1.49-3.94
		c0.57-1.29,2.22-2.39,3.33-1.52c-0.57,9.44,13.48,13.97,14.59,23.36c0.32,2.68-0.47,5.64,0.93,7.96c1.21,2.01,3.65,2.83,5.89,3.51
		c6.7,2.02,13.41,4.05,20.11,6.07c2.98-5.48,2.3-12.32-0.05-18.09c-2.35-5.77-6.18-10.79-9.57-16.03
		c-6.44-9.95-11.32-20.8-16.76-31.33c-9.43-18.26-20.56-35.59-31.66-52.88c-1.47-2.28-2.51-3.2-3.7-4.59
		C39.1,48.8,13.15,37.86,9.5,42.23C4.56,48.15,42.59,79.96,42.5,103.23z"/>
	<g>
		<path fill="#4DBA87" d="M41,103.23c-0.02,3.93,0.34,7.92,2.25,11.43c2.74,5.05,8.12,7.04,13.61,7.13
			c-0.48-0.63-0.96-1.27-1.45-1.9c-1.17,7.67,6.05,12.05,8.57,18.49c1.74,4.44-0.69,8.79-0.86,13.28c-0.13,3.62,2.17,7.25,5.73,8.31
			c1.81,0.54,3.75,0.06,4.96-1.41c0.75-0.91,1.08-2.01,1.4-3.13c0.14-0.51,0.73-2.65,1.61-2.09c-0.25-0.43-0.5-0.86-0.74-1.3
			c-0.34,7.46,6.85,11.95,11.21,16.93c1.07,1.22,2.06,2.56,2.71,4.06c0.82,1.9,0.76,3.84,0.74,5.87c-0.02,2.43,0.36,4.89,2.22,6.64
			c1.68,1.58,3.95,2.27,6.11,2.92c6.55,1.98,13.1,3.95,19.64,5.93c0.61,0.18,1.39-0.12,1.69-0.69c5.78-10.98-0.89-22.61-7.02-31.73
			c-7-10.41-12.41-21.57-18.07-32.73c-5.76-11.35-12.17-22.35-18.86-33.17c-3.35-5.42-6.77-10.8-10.21-16.17
			c-1.66-2.59-3.21-5.3-5.07-7.74c-1.47-1.93-3.17-3.73-4.8-5.51c-6.89-7.5-14.96-14.03-23.73-19.21
			c-3.45-2.04-7.03-3.86-10.75-5.35c-2.67-1.06-5.45-1.97-8.33-2.25c-1.75-0.17-3.85-0.06-5.12,1.33C7.26,42.45,7.45,44.33,8,45.85
			c0.79,2.18,2.09,4.17,3.4,6.07c1.85,2.68,3.85,5.25,5.85,7.82c4.77,6.14,9.62,12.24,13.89,18.74c4.04,6.14,7.92,12.83,9.38,20.12
			C40.84,100.12,41,101.67,41,103.23c0,1.93,3,1.93,3,0c-0.01-6.97-2.91-13.67-6.23-19.65c-3.76-6.77-8.38-13.03-13.1-19.15
			C20.76,59.34,16.56,54.39,13.06,49c-0.59-0.91-1.15-1.83-1.64-2.8c-0.11-0.22-0.22-0.44-0.32-0.66c-0.18-0.38-0.02,0-0.16-0.38
			c-0.13-0.37-0.24-0.74-0.34-1.12c-0.07-0.27-0.04-0.33-0.03-0.15c-0.01-0.14-0.02-0.28-0.01-0.41c0.03-0.43-0.04,0.31,0.01-0.1
			c0.05-0.38-0.01-0.01,0.01-0.08c0.11-0.37-0.02,0,0.03-0.08c0.13-0.21,0.2-0.19,0.06-0.08c0.1-0.08,0.25-0.16,0.37-0.2
			c-0.43,0.15,0.18-0.04,0.28-0.06c0.45-0.11,0.27-0.08,0.89-0.1c0.5-0.01,1.01,0.02,1.5,0.07c0.88,0.1,2.27,0.42,3.32,0.72
			c3.24,0.93,6.33,2.29,9.33,3.82c8.35,4.26,16.05,9.86,22.86,16.29c1.88,1.77,3.7,3.62,5.44,5.54c1.53,1.68,3.18,3.37,4.49,5.23
			c3.51,4.98,6.63,10.28,9.89,15.43c6.64,10.5,13.11,21.12,19.04,32.04c5.75,10.6,10.65,21.65,16.7,32.08
			c2.96,5.11,6.46,9.86,9.53,14.91c2.9,4.77,5.28,10.04,5.28,15.73c0,2.64-0.55,5.21-1.78,7.55c0.56-0.23,1.13-0.46,1.69-0.69
			c-5.46-1.65-10.91-3.29-16.37-4.94c-2.32-0.7-4.92-1.2-7.04-2.41c-2.27-1.3-2.38-3.47-2.35-5.86c0.03-1.93-0.03-3.83-0.7-5.66
			c-0.6-1.63-1.49-3.09-2.55-4.46c-2.06-2.65-4.61-4.84-6.94-7.24c-2.38-2.46-4.63-5.28-4.47-8.89c0.02-0.53-0.31-1.02-0.74-1.3
			c-1.68-1.06-3.66-0.27-4.82,1.18c-0.59,0.74-0.89,1.62-1.15,2.52c-0.23,0.82-0.39,1.92-1.12,2.46c-1.04,0.77-2.49-0.12-3.29-0.84
			c-1.25-1.11-1.88-2.53-1.85-4.2c0.09-4.42,2.32-8.5,1.18-12.99c-0.84-3.28-2.96-6.02-4.95-8.68c-2-2.69-4.59-5.93-4.04-9.52
			c0.15-0.96-0.38-1.88-1.45-1.9c-4.73-0.08-9.18-1.75-11.32-6.24c-1.39-2.91-1.56-6.16-1.54-9.33
			C44.01,101.3,41.01,101.3,41,103.23z"/>
	</g>
</g>
<g>
	<path fill="#4DBA87" d="M81.78,148.2c3.43,14.9,3.9,30.48,1.35,45.55c-0.49,2.91-1.1,5.89-0.59,8.8c0.51,2.91,2.44,5.8,5.32,6.45
		c1.67,0.38,3.07-1.19,3.44-1.54c4.17-4-0.25-10.78,0.07-24.65c0.18-7.81,0.06-15.62,0.09-23.43c0-0.83-0.01-1.72-0.46-2.42
		c-0.93-1.45-3.27-1.24-4.5-0.04c-1.22,1.19-2.2,2.73-1.99,4.67"/>
	<g>
		<path fill="#4DBA87" d="M80.34,148.6c2.42,10.59,3.34,21.49,2.73,32.34c-0.3,5.42-1.25,10.69-1.96,16.05
			c-0.59,4.43-0.1,9.45,3.82,12.28c1.67,1.21,3.76,1.72,5.64,0.69c1.13-0.62,2.18-1.67,2.88-2.75c1.35-2.08,1.28-4.71,1.01-7.08
			c-0.41-3.62-1.11-7.19-1.39-10.82c-0.42-5.3-0.09-10.65-0.08-15.96c0-3.24-0.01-6.48-0.02-9.72c0-1.55,0.05-3.11,0-4.66
			c-0.04-1.24-0.27-2.49-1.18-3.4c-1.5-1.5-4.02-1.36-5.69-0.23c-1.99,1.36-3.24,3.86-3.09,6.25c0.13,1.92,3.13,1.93,3,0
			c-0.1-1.54,0.8-3.72,2.5-4.09c2.12-0.46,1.45,2.9,1.45,4.13c0,4.9,0.04,9.8,0.01,14.71c-0.03,4.52-0.25,9.04,0.14,13.56
			c0.28,3.18,0.83,6.31,1.25,9.47c0.25,1.87,0.58,4.21-0.24,5.86c-0.36,0.74-0.98,1.41-1.68,1.9c-1.42,1.01-3.05-0.26-3.95-1.42
			c-2.75-3.55-1.4-8.48-0.75-12.5c0.74-4.61,1.22-9.27,1.41-13.94c0.44-10.56-0.57-21.17-2.92-31.47
			C82.8,145.92,79.91,146.72,80.34,148.6L80.34,148.6z"/>
	</g>
</g>
</svg>
