<?xml version="1.0" encoding="utf-8"?>
<!-- Generator: Adobe Illustrator 23.0.6, SVG Export Plug-In . SVG Version: 6.00 Build 0)  -->
<svg version="1.1" id="Слой_1" xmlns="http://www.w3.org/2000/svg" xmlns:xlink="http://www.w3.org/1999/xlink" x="0px" y="0px"
	 viewBox="0 0 431.6 431.6" enable-background="new 0 0 431.6 431.6" xml:space="preserve">
<circle fill="#FFFFFF" stroke="#000000" stroke-width="18" stroke-miterlimit="10" cx="215.8" cy="215.8" r="205.8"/>
<g>
	
		<path fill-rule="evenodd" clip-rule="evenodd" fill="none" stroke="#000000" stroke-width="15.469" stroke-linecap="round" stroke-miterlimit="10" d="
		M172.4,412.6c-0.8-1.8-1-3.3-1-5.2c0-12.3,0-24.6,0-37.5c-4.3,0.4-8.7,0.9-13.1,1.3c-21.3,2.1-39.9-3.4-54.2-20
		c-2-2.3-3.6-5-5.3-7.6c-7.3-11.5-14.4-23.2-22-34.5c-2.3-3.5-6-6.2-9-9.2c-1.6-1.6-3.2-3.2-5.1-5.1c5.3-3.4,10.3-2.5,15.1-1.8
		c11.9,1.8,19.9,9.2,26.3,19c3.2,4.9,6.5,9.8,10.5,13.9c13,13.1,28.9,17.3,46.8,13.2c11.6-2.6,9.3-1.4,11.1-12
		c1.2-7.1,3.1-13.8,6.9-19.9c0.6-1,1.2-2.1,2-3.5c-5.1-1-9.8-1.8-14.5-2.9c-18.6-4.3-35.7-11.5-49.2-25.4
		C103.3,260.6,95.6,243,95,222.3c-0.5-17.4-0.3-34.8,3.6-51.9c2.5-11,7.1-20.8,15.1-29c1.2-1.3,2-4.3,1.4-5.9
		c-5.7-16.3-4.9-32.4,0.3-48.6c0.9-2.8,1.9-3.5,4.7-2.7c10.2,2.8,19,8.1,26.2,15.6c5,5.2,9.5,10.7,14.5,16.3
		c12.6-9.1,27.5-9.4,42.3-10.3c16.3-0.9,32.6-0.7,48.6,2.8c6.2,1.3,12.1,4.1,17.6,6c6.5-6.2,13.2-12.4,19.8-18.8
		c6-5.8,13-9.4,21-11.5c3-0.8,4.6-0.1,5.6,2.9c5.5,15.8,6.4,31.5,0.2,47.4c-0.9,2.3-1.5,4.5,0.6,6.5c10.8,10.3,16.1,23.2,17.3,37.8
		c1.2,15.3,2.6,30.8,1.9,46.1c-1.4,28.4-15.5,49.7-40,64.1c-7.2,4.2-19.1,7.2-42.5,14.1c-1.5,0.2-2.8,0.6-3.7,0.9
		c9.5,13.8,10,29.5,9.8,45.4c-0.2,19.3,0,38.5,0,57.8c0,1.3,0.2,3.3-0.8,5.5"/>
</g>
</svg>
