<?xml version="1.0" encoding="utf-8"?>
<!-- Generator: Adobe Illustrator 23.0.6, SVG Export Plug-In . SVG Version: 6.00 Build 0)  -->
<svg version="1.1" id="Слой_1" xmlns="http://www.w3.org/2000/svg" xmlns:xlink="http://www.w3.org/1999/xlink" x="0px" y="0px"
	 viewBox="0 0 431.6 431.6" enable-background="new 0 0 431.6 431.6" xml:space="preserve">
<g display="none">
	
		<circle display="inline" opacity="0.47" fill="#FFFFFF" stroke="#000000" stroke-width="18" stroke-miterlimit="10" enable-background="new    " cx="215.8" cy="215.8" r="205.8"/>
	<path display="inline" opacity="0.47" enable-background="new    " d="M264.7,214.5c-1.6-31.3-24.8-50.1-52.9-50.1h-1.1
		c-32.4,0-50.3,25.5-50.3,54.4c0,32.4,21.7,52.9,50.3,52.9c31.8,0,52.7-23.2,54.2-50.8L264.7,214.5L264.7,214.5z M210.9,136.3
		c21.7,0,42,9.5,57,24.6v0.1c0-7.2,4.8-12.6,11.6-12.6h1.7c10.5,0,12.7,9.9,12.7,13.1l0.1,111.8c-0.7,7.4,7.6,11.1,12.2,6.4
		c17.9-18.5,39.4-94.8-11.2-139.2c-47.2-41.3-110.4-34.4-144.1-11.3c-35.8,24.7-58.7,79.3-36.4,130.5c24.2,56,93.6,72.6,134.8,56
		c20.9-8.4,30.5,19.8,8.8,29c-32.8,13.9-124,12.5-166.6-61.3c-28.9-49.7-27.3-137.4,49-182.7c58.4-34.8,135.4-25.1,181.8,23.3
		c48.5,50.7,45.7,145.6-1.7,182.5c-21.5,16.8-53.3,0.5-53.1-24l-0.2-7.9c-15,14.8-34.8,23.4-56.4,23.4
		c-42.8-0.1-80.4-37.7-80.4-80.4C130.5,174.4,168.1,136.3,210.9,136.3"/>
</g>
<circle stroke="#000000" stroke-width="17" stroke-miterlimit="10" cx="216.7" cy="216" r="205.9"/>
<circle fill="none" stroke="#FFFFFF" stroke-width="20" stroke-miterlimit="10" cx="211.7" cy="221.3" r="70.1"/>
<path fill="none" stroke="#FFFFFF" stroke-width="19.8565" stroke-linecap="round" stroke-miterlimit="10" d="M282.8,159.6v113.1
	c-0.1,0.6-1.2,12.3,7,18.5c7.9,5.9,21.2,4.4,29.5-5.2c8.6-12.7,22.3-37.1,21.5-68.2c-1.5-57-51.3-123.3-125.9-122.3
	C148,96.4,93.5,150.2,92.6,216.1c-1,68.4,55,124.1,124.1,124.1c1.1,0,3.3,0,6.3-0.1c16.6-0.6,29.7-4.7,38.3-8.1"/>
</svg>
