<?xml version="1.0" encoding="utf-8"?>
<!-- Generator: Adobe Illustrator 23.0.6, SVG Export Plug-In . SVG Version: 6.00 Build 0)  -->
<svg version="1.1" id="Слой_1" xmlns="http://www.w3.org/2000/svg" xmlns:xlink="http://www.w3.org/1999/xlink" x="0px" y="0px"
	 viewBox="0 0 431.6 431.6" enable-background="new 0 0 431.6 431.6" xml:space="preserve">
<circle fill="#FFFFFF" stroke="#000000" stroke-width="18" stroke-miterlimit="10" cx="215.8" cy="215.8" r="205.8"/>
<g>
	<path d="M311.9,220.9c-6.9-1-5-8.9-6-13.9c-6.9-57.6-33.8-84.5-90.5-93.5c-5-1-11.9,0-11.9-6c0-8.9,8.9-5,13-6
		c54.7,2,102.4,51.7,101.5,106.5C317.8,212.9,319.8,220.9,311.9,220.9z"/>
	<path d="M289.9,198c-1,3.9,2,11-5,11.9c-8.9,1-6.9-6.9-8-11.9c-6-34.8-17.9-47.7-53.7-55.7c-5-1-13,0-11.9-8c1-8,8.9-5,13.9-3.9
		C261.1,134.3,289.9,164.2,289.9,198L289.9,198z"/>
	<path d="M263.1,192.1c0,3.9,0,8.9-6,10c-3.9,0-6-3-6.9-6.9c-1-14.9-8.9-22.9-23.8-24.9c-3.9-1-8.9-2-6.9-8c1-3.9,5-3.9,8.9-3.9
		C245.2,157.2,263.1,175.1,263.1,192.1z"/>
</g>
<path fill="#FFFFFF" stroke="#000000" stroke-width="16" stroke-miterlimit="10" d="M318.8,301.4c-6,16.9-26.9,33.8-44.8,33.8
	c-2-1-6.9-1-11.9-3C184.6,298.4,126.8,243.7,95,164.2c-11-25.8,1-48.7,27.9-57.6c5-2,10-2,14.9,0c11.9,3.9,40.7,44.8,41.8,56.7
	c1,10-6,14.9-11.9,18.9c-11.9,8-11.9,18.9-6.9,29.9c11.9,25.8,31.8,42.8,56.7,54.7c8.9,3.9,17.9,3.9,23.8-6
	c11-16.9,24.9-16.9,39.8-6c6.9,5,14.9,10,21.9,15.9C312.8,278.5,324.7,285.5,318.8,301.4z"/>
</svg>
