<?xml version="1.0" encoding="utf-8"?>
<!-- Generator: Adobe Illustrator 23.0.6, SVG Export Plug-In . SVG Version: 6.00 Build 0)  -->
<svg version="1.1" id="Слой_1" xmlns="http://www.w3.org/2000/svg" xmlns:xlink="http://www.w3.org/1999/xlink" x="0px" y="0px"
	 viewBox="0 0 431.6 431.6" enable-background="new 0 0 431.6 431.6" xml:space="preserve">
<circle fill="#FFFFFF" stroke="#000000" stroke-width="18" stroke-miterlimit="10" cx="215.8" cy="215.8" r="205.8"/>
<path id="path2993" fill="#FFFFFF" stroke="#000000" stroke-width="14" stroke-miterlimit="10" d="M166.5,303
	c-7.1,0-5.8-2.7-8.3-9.4l-20.7-68.1l128.3-80.1l15,4l-12.5,34.1L166.5,303z"/>
<path id="path2989" fill="#FFFFFF" stroke="#000000" stroke-width="14" stroke-linecap="round" stroke-linejoin="round" stroke-miterlimit="10" d="
	M166.5,303c5.4,0,7.8-2.5,10.9-5.4c4.7-4.5,65.2-63.4,65.2-63.4l-37.1-9.1l-34.4,21.7l-4.5,54.4L166.5,303L166.5,303z"/>
<path id="path2991" fill="#FFFFFF" stroke="#000000" stroke-width="14" stroke-linecap="round" stroke-linejoin="round" stroke-miterlimit="10" d="
	M170.2,247.6l87.7,64.7c10,5.4,17.2,2.7,19.7-9.2l35.7-168.2c3.6-14.7-5.6-21.2-15.2-16.9L88.6,198.8c-14.3,5.8-14.1,13.8-2.5,17.2
	l53.8,16.9l124.5-78.5c5.8-3.6,11.2-1.6,6.9,2.3L170.2,247.6z"/>
</svg>
