<?xml version="1.0" encoding="utf-8"?>
<!-- Generator: Adobe Illustrator 23.0.6, SVG Export Plug-In . SVG Version: 6.00 Build 0)  -->
<svg version="1.1" id="Слой_1" xmlns="http://www.w3.org/2000/svg" xmlns:xlink="http://www.w3.org/1999/xlink" x="0px" y="0px"
	 viewBox="0 0 431.6 431.6" enable-background="new 0 0 431.6 431.6" xml:space="preserve">
<circle stroke="#000000" stroke-width="18" stroke-miterlimit="10" cx="215.8" cy="215.8" r="205.8"/>
<path fill="#030000" stroke="#FFFFFF" stroke-width="16" stroke-miterlimit="10" d="M213.1,296.8h15.1c0,0,4.6-0.5,6.9-3
	c2.1-2.3,2.1-6.6,2.1-6.6s-0.3-20.3,9.1-23.3c9.3-2.9,21.2,19.6,33.9,28.3c9.6,6.6,16.8,5.1,16.8,5.1l33.8-0.5c0,0,17.7-1.1,9.3-15
	c-0.7-1.1-4.9-10.3-25.1-29.1c-21.2-19.7-18.4-16.5,7.2-50.5c15.6-20.7,21.8-33.4,19.8-38.8c-1.8-5.2-13.3-3.8-13.3-3.8l-38.1,0.2
	c0,0-2.8-0.4-4.9,0.9c-2,1.2-3.4,4.1-3.4,4.1s-6,16-14.1,29.7c-17,28.8-23.7,30.3-26.5,28.5c-6.5-4.2-4.8-16.7-4.8-25.7
	c0-27.9,4.2-39.5-8.2-42.5c-4.1-1-7.2-1.7-17.8-1.8c-13.6-0.1-25.1,0-31.6,3.2c-4.3,2.1-7.7,6.9-5.6,7.1c2.5,0.3,8.2,1.5,11.2,5.7
	c3.9,5.3,3.8,17.2,3.8,17.2s2.2,32.8-5.2,36.9c-5.1,2.8-12.2-2.9-27.3-29c-7.7-13.4-13.6-28.2-13.6-28.2s-1.1-2.8-3.1-4.2
	c-2.4-1.8-5.8-2.4-5.8-2.4l-36.2,0.2c0,0-5.4,0.1-7.4,2.5c-1.8,2.1-0.1,6.5-0.1,6.5s28.3,66.3,60.4,99.7
	C179.7,298.8,213.1,296.8,213.1,296.8"/>
</svg>
