<?xml version="1.0" encoding="utf-8"?>
<!-- Generator: Adobe Illustrator 23.0.6, SVG Export Plug-In . SVG Version: 6.00 Build 0)  -->
<svg version="1.1" id="Слой_1" xmlns="http://www.w3.org/2000/svg" xmlns:xlink="http://www.w3.org/1999/xlink" x="0px" y="0px"
	 viewBox="0 0 431.6 431.6" enable-background="new 0 0 431.6 431.6" xml:space="preserve">
<circle fill="#FFFFFF" stroke="#000000" stroke-width="18" stroke-miterlimit="10" cx="215.8" cy="215.8" r="205.8"/>
<path display="none" fill="#FFFFFF" stroke="#000000" stroke-width="16" stroke-miterlimit="10" d="M213.1,296.8h15.1
	c0,0,4.6-0.5,6.9-3c2.1-2.3,2.1-6.6,2.1-6.6s-0.3-20.3,9.1-23.3c9.3-2.9,21.2,19.6,33.9,28.3c9.6,6.6,16.8,5.1,16.8,5.1l33.8-0.5
	c0,0,17.7-1.1,9.3-15c-0.7-1.1-4.9-10.3-25.1-29.1c-21.2-19.7-18.4-16.5,7.2-50.5c15.6-20.7,21.8-33.4,19.8-38.8
	c-1.8-5.2-13.3-3.8-13.3-3.8l-38.1,0.2c0,0-2.8-0.4-4.9,0.9c-2,1.2-3.4,4.1-3.4,4.1s-6,16-14.1,29.7c-17,28.8-23.7,30.3-26.5,28.5
	c-6.5-4.2-4.8-16.7-4.8-25.7c0-27.9,4.2-39.5-8.2-42.5c-4.1-1-7.2-1.7-17.8-1.8c-13.6-0.1-25.1,0-31.6,3.2c-4.3,2.1-7.7,6.9-5.6,7.1
	c2.5,0.3,8.2,1.5,11.2,5.7c3.9,5.3,3.8,17.2,3.8,17.2s2.2,32.8-5.2,36.9c-5.1,2.8-12.2-2.9-27.3-29c-7.7-13.4-13.6-28.2-13.6-28.2
	s-1.1-2.8-3.1-4.2c-2.4-1.8-5.8-2.4-5.8-2.4l-36.2,0.2c0,0-5.4,0.1-7.4,2.5c-1.8,2.1-0.1,6.5-0.1,6.5s28.3,66.3,60.4,99.7
	C179.7,298.8,213.1,296.8,213.1,296.8"/>
<path fill-rule="evenodd" clip-rule="evenodd" d="M301.7,129.5c-22.8-22.8-53.1-35.4-85.3-35.4c-66.5,0-120.6,54.1-120.7,120.6
	c0,21.3,5.5,42,16.1,60.3l-17.1,62.5l64-16.8c17.6,9.6,37.5,14.7,57.7,14.7h0c66.5,0,120.6-54.1,120.7-120.6
	C337,182.6,324.4,152.3,301.7,129.5 M216.3,315L216.3,315c-18,0-35.7-4.8-51.1-14l-3.7-2.2l-38,10l10.1-37l-2.4-3.8
	c-10-16-15.3-34.4-15.3-53.4c0-55.3,45-100.2,100.3-100.2c26.8,0,52,10.5,70.9,29.4s29.4,44.1,29.3,70.9
	C316.6,270.1,271.6,315,216.3,315 M271.3,240c-3-1.5-17.8-8.8-20.6-9.8c-2.8-1-4.8-1.5-6.8,1.5c-2,3-7.8,9.8-9.5,11.8
	c-1.8,2-3.5,2.3-6.5,0.8c-3-1.5-12.7-4.7-24.2-15c-9-8-15-17.9-16.8-20.9c-1.8-3-0.2-4.6,1.3-6.2c1.4-1.4,3-3.5,4.5-5.3
	c1.5-1.8,2-3,3-5c1-2,0.5-3.8-0.3-5.3s-6.8-16.3-9.3-22.4c-2.4-5.9-4.9-5.1-6.8-5.2c-1.8-0.1-3.8-0.1-5.8-0.1c-2,0-5.3,0.8-8,3.8
	c-2.8,3-10.6,10.3-10.6,25.1c0,14.8,10.8,29.2,12.3,31.2c1.5,2,21.3,32.5,51.5,45.5c7.2,3.1,12.8,5,17.2,6.3c7.2,2.3,13.8,2,19,1.2
	c5.8-0.9,17.8-7.3,20.3-14.3c2.5-7,2.5-13.1,1.8-14.3C276.3,242.2,274.3,241.5,271.3,240"/>
</svg>
